<?xml version="1.0" encoding="UTF-8"?>
<svg xmlns="http://www.w3.org/2000/svg" viewBox="0 0 120.65 128.06">
  <defs>
    <style>
      .cls-1 {
        isolation: isolate;
      }

      .cls-2 {
        fill: #ebdcd1;
        mix-blend-mode: multiply;
      }
    </style>
  </defs>
  <g class="cls-1">
    <g id="Layer_2" data-name="Layer 2">
      <g id="BANNER_1" data-name="BANNER 1">
        <path class="cls-2" d="m67.12,71.74c4.81,3.07,9.59,5.89,14.13,9.06,6.65,4.65,12.37,10.16,15.88,17.74,3.67,7.93,1.02,19.79-4.99,25.63-5.1,4.96-14.57,5.23-20.12.54-5.92-5-7.29-11.1-3.69-19.98.82-2.03,2.42-3.81,3.91-5.49.96-1.07,2.37-1.72,4.01-.97-6.82,6.96-6.19,18.6,1.26,24.67,3.33,2.71,5.99,2.67,9.15-.27,5.14-4.8,10.01-15.98,4.73-25.47-2.39-4.28-5.42-7.93-9.06-11.12-5.23-4.59-11.18-8.14-17.25-11.78-1.63,2.19-3.25,4.33-4.82,6.51-5.92,8.24-11.49,16.73-18.3,24.31-3.98,4.43-8.21,8.58-13.71,11.1-7.21,3.3-14.34,3.53-21.05-1.26-4.13-2.95-5.81-7.41-6.67-12.21-1.66-9.26.59-17.72,5.46-25.6,5.22-8.45,12.29-15.16,20-21.26,2.56-2.02,5.21-3.93,7.78-5.85-2.31-2.91-4.68-5.68-6.8-8.62-5.66-7.86-8.11-16.53-6.23-26.2C22.93,4.02,32.07-1.94,43.19.57c16.18,3.66,23.94,22.28,15.22,36.4-3.71,6.01-8.9,10.55-14.2,15.03-.48.41-.97.81-1.59,1.31,6.22,6.42,13.39,11.49,20.55,16.05,4.61-5.24,9.05-10.48,13.71-15.51,4.68-5.05,10.09-9.17,16.57-11.71,6.31-2.47,12.54-2.16,18.6.78,7.65,3.72,10.59,11.71,7.2,19.34-3.08,6.94-12.15,9.48-18.14,4.8-2.23-1.74-3.97-4.21-5.62-6.56-1.13-1.61-.09-3.45,1.68-3.45.88,0,1.93-.05,1.5,1.47-.1.35.19.96.49,1.27,1.98,2.03,3.9,4.16,6.07,5.97,2.49,2.08,4.45,1.22,5.97-1.42,1.91-3.32,2.45-6.96,1.38-10.71-.86-3-2.62-5.42-5.11-7.26-3.15-2.32-6.51-3.01-10.29-1.45-4.65,1.92-8.82,4.55-12.63,7.78-6.44,5.47-12.03,11.72-17.09,18.47-.12.16-.21.35-.33.57Zm-27.54-16.04c-9.07,7.83-17.51,16.33-23.17,27.24-3.65,7.02-5.41,14.41-4.78,22.33.21,2.6.61,5.16,2.15,7.37,1.73,2.49,4.08,3.67,7.11,3,1.53-.34,3.07-.81,4.5-1.46,5.42-2.46,9.51-6.59,13.42-10.93,6.49-7.22,11.75-15.35,17.3-23.27,1.81-2.58,3.64-5.15,5.51-7.78-3.85-2.66-7.66-5.13-11.29-7.84-3.63-2.72-7.08-5.68-10.74-8.65Zm-2.48-7.84c2.9-2.54,5.71-4.79,8.28-7.28,4.67-4.52,7.92-9.77,8.67-16.47.98-8.77-3.95-17.67-11.76-20.65-4.42-1.68-8.49-.79-11.75,2.61-2.32,2.42-3.89,5.24-4.68,8.5-3.2,13.34,2.77,23.56,11.24,33.28Z"/>
      </g>
    </g>
  </g>
</svg>