<?xml version="1.0" encoding="UTF-8"?>
<svg id="Layer_2" data-name="Layer 2" xmlns="http://www.w3.org/2000/svg" viewBox="0 0 540.05 116.91">
  <defs>
    <style>
      .cls-1 {
        fill: #826147;
      }
    </style>
  </defs>
  <g id="BANNER_1" data-name="BANNER 1">
    <g>
      <path class="cls-1" d="m71.57,116.91c-1.23-1.69-1.08-3.86-1.95-5.67-.23-.48-.36-1.01-.49-1.52-.38-1.5.3-2.55,1.81-2.71.84-.09.9-.37.46-1-.29-.42-.82-.9-.35-1.4.5-.53,1.23-.71,1.95-.46,1.15.4,1.91,1.28,2.59,2.22.37.51.11.81-.36,1.07-1.3.71-2.74.92-4.18,1.04-1.58.13-1.66.21-1.18,1.65.75,2.26,1.46,4.52,2.19,6.79h-.5Z"/>
      <path class="cls-1" d="m0,107.01c0-.58,0-1.17,0-1.75,1.72-.38,3.19-1.33,4.8-1.98,6.12-2.45,12.24-4.9,18.33-7.41,7.68-3.17,14.67-7.51,21.25-12.53,1.35-1.03,2.61-2.17,3.96-3.2,2.2-1.68,3.34-4.02,4.35-6.49.73-1.79,1.73-3.48,2.48-5.26.58-1.36,1.56-1.86,2.96-2.03,3.83-.45,7.25-1.86,9.86-4.76,1.78-1.97,3.59-3.96,4.62-6.48.15-.37.4-.73.68-1.02,1.71-1.85,2.54-1.73,3.56.49.87,1.91,1.71,3.85,2.83,5.64.43.68.98,1.23,1.59,1.73.21.18.46.41.78.26.31-.15.28-.48.27-.77,0-1.49-.52-2.9-.8-4.35-.95-5.05,1.61-11.53,8.59-12.55,4.05-.59,7.81.57,11.64,1.4,3.67.8,7.32,1.67,10.95,2.64,2.66.72,5.26,1.67,7.89,2.51.96.31.97,1,.79,1.79-.53,2.31-2.05,4-4.21,4.5-5.33,1.22-9.51,4.61-14.25,6.93-4.66,2.28-9.42,4.27-14.45,5.55-.99.25-1.51.78-1.64,1.74-.35,2.41-1.59,4.39-3,6.3-2.44,3.31-4.15,6.95-4.92,10.98-.29,1.54-.25,3.15-.02,4.69.34,2.24,2.47,3.17,5.22,2.36,3.31-.97,5.96-3.02,8.51-5.23,3.05-2.66,5.59-5.91,9.23-7.88,3.65-1.98,7.49-3.56,11.41-4.95,3.2-1.14,6.44-2.19,9.66-3.28,2.55-.87,4.15-2.92,5.95-4.73.34-.34.38-.8.3-1.28-1.24-7.88-2.69-15.71-4.52-23.48-1.55-6.56-3.35-13.07-4.34-19.76-.38-2.56-.92-5.1-1.26-7.67-.26-1.96-.09-3.89,1.4-5.43.48-.49.93-.58,1.25.14,1.43,3.25,3.13,6.38,4.36,9.71.16.42.29.86.4,1.3.21.89-.17,1.22-1.06,1.1-1.49-.2-1.58-.05-1.35,1.51.54,3.63,1.42,7.18,2.25,10.75,1.58,6.81,3.52,13.55,4.77,20.43.49,2.67.86,5.37,1.07,8.07.31,4.09-.7,7.86-3.43,11.05-2.35,2.75-5.5,4.17-8.89,5.18-.87.26-1.76.48-2.61.79-2.11.76-3.47,2.1-4.2,4.34-1.01,3.09-2.31,6.09-2.61,9.37-.18,1.93-.32,3.87.36,5.75.77,2.14,2.63,3.41,4.93,3.53,5.21.28,9.62-1.8,13.85-4.45,5.36-3.37,10.04-7.58,14.67-11.84,3.66-3.36,7.61-6.37,11.46-9.52,2.79-2.28,5.68-4.41,8.63-6.47.72-.5,1.42-1.01,2.22-1.36.64-.28.68-.61.23-1.12-.52-.59-1.07-1.08-1.75-1.51-1.88-1.2-3.68-2.54-5.72-3.49-.98-.45-1.61-1.19-1.96-2.26-.58-1.81-1.19-3.58-1.2-5.52-.01-2.04.91-3.54,2.6-4.48,3.18-1.78,6.64-2.38,10.29-2.04,2.52.24,5.04.36,7.57.53,5.57.38,11.09,1.11,16.58,2.16,2.75.53,5.5,1.12,8.28,1.55,1.26.2,1.83.75,1.7,2.14-.26,2.91-2.04,4.64-4.38,5.99-1.77,1.02-3.74,1.58-5.68,2.19-5.57,1.74-10.84,4.12-15.77,7.25-.88.56-1.13,1.08-.56,1.99,1.53,2.44,1.91,5.13,1.71,7.96-.07,1.01-.43,1.25-1.41,1.11-2.28-.33-4.12-1.43-5.72-3.02-1.26-1.25-1.46-1.19-2.27.39-2.25,4.42-4.33,8.91-5.47,13.76-.21.91-.22,1.81-.16,2.7.1,1.57,1.29,2.53,2.88,2.66,3.51.3,5.95-1.74,8.4-3.71,2.66-2.13,4.89-4.7,7.18-7.2,1.12-1.23,2.5-2.17,3.96-2.97,5.62-3.09,11.59-5.36,17.75-7.11,2.51-.72,4.4-2.24,6.32-3.81.29-.24.51-.57.83-.74,2.03-1.08,1.91-2.75,1.49-4.65-1.59-7.09-3.1-14.2-4.66-21.3-1.27-5.79-2.55-11.57-3.76-17.37-.69-3.3-1.26-6.62-1.9-9.93-.39-2,.14-4.01.79-5.94.26-.77.83-.99,1.34-.2,2.19,3.37,4.23,6.8,4.85,10.87.11.71-.29.81-.78.74-1.13-.17-1.16.46-.98,1.25,1.26,5.5,2.55,10.98,3.78,16.49,1.35,6.06,3.05,12.06,4.02,18.2.97,6.11.32,11.95-3.6,17.04-2.09,2.73-5.02,4.28-8.27,5.22-5.73,1.65-11.29,3.65-16.27,6.99-2.8,1.88-5.34,4.04-7.66,6.49-2.26,2.38-4.73,4.55-7.78,5.88-3.79,1.66-6.16.55-7.96-2.89-2.48-4.74-1.56-9.24.55-13.76,1.51-3.26,3.38-6.32,5.13-9.45.21-.37.6-.82.26-1.25-.36-.46-.75.01-1.1.14-3.34,1.22-6.04,3.47-8.81,5.56-2.94,2.22-5.81,4.55-8.64,6.9-1.86,1.55-3.74,3.1-5.57,4.69-3.29,2.86-6.53,5.75-9.96,8.46-4,3.16-8.28,5.78-13.07,7.54-2.66.98-5.4,1.3-8.19.73-2.09-.43-3.57-1.67-4.51-3.56-1.64-3.32-1.64-6.88-1.3-10.42.38-4,1.5-7.84,3.1-11.53.45-1.04-.04-1.15-.88-1.02-2.14.33-4,1.34-5.84,2.39-4.15,2.38-7.73,5.49-11.29,8.63-2.13,1.88-4.45,3.45-6.92,4.92-2.99,1.78-8.2-1.33-8.8-4.45-1-5.18-.26-10.06,1.83-14.83,1.03-2.35,2.28-4.58,3.7-6.72.75-1.14,1.27-2.36,1.55-3.74.25-1.22-.33-1.67-1.24-2.03-1.67-.66-3.11-1.61-4.46-2.83-1.3-1.16-1.79-2.69-2.63-4.06-.52-.84-.9-1.76-1.34-2.66-.42-.86-.89-.86-1.48-.15-.88,1.07-1.56,2.25-1.95,3.57-.67,2.28-2.25,3.93-3.86,5.53-.62.62-.72.9.04,1.38.91.58,1.44,1.48,1.88,2.42,1.3,2.72,2.04,5.56,1.78,8.61-.15,1.82-1.78,3.2-4.23,3.47-5.63.62-10.38-2.47-12.03-7.84-.07-.23-.05-.58-.4-.44-.22.09-.55-.02-.68.39-.69,2.19-1.84,4.2-2.53,6.4-.46,1.45-1.73,2.31-2.81,3.25-3.37,2.94-6.98,5.61-10.77,7.98-6.57,4.1-13.53,7.43-21.01,9.62-4.73,1.38-9.52,2.46-14.4,3.19-.81.12-1.66.04-2.49.05Zm109.56-52.25c-3.22-.97-6.04-2.32-9.19-2.93-2.46-.47-4.93-1-7.4-1.45-2.79-.51-5.44.09-7.88,1.5-.83.48-1.69,1.23-1.49,2.25.57,2.85,1.11,5.73,2.39,8.39.27.56.64,1.1,1.37,1.11.87,0,1.73.02,2.6-.11,5.6-.85,10.46-3.49,15.3-6.18,1.37-.76,2.9-1.27,4.3-2.59Zm80.86,5.87c-1.46-.89-2.98-1.28-4.52-1.43-3.12-.31-6.25-.57-9.38-.75-5.11-.3-10.23-1.02-15.34,0-.32.06-.75-.05-.86.33-.08.28.23.51.46.69,1.95,1.53,3.83,3.18,5.9,4.53,1.77,1.15,3.2,2.56,4.35,4.25.39.57.65.55,1.19.31,1.85-.84,3.72-1.63,5.58-2.44,4.21-1.83,8.42-3.65,12.63-5.48Zm-124.88,17.64c.37-.11.96.28,1.19-.24.21-.5-.22-.93-.58-1.26-.3-.28-.66-.49-1.01-.7-1.94-1.14-4.12-1.68-6.24-2.35-.32-.1-.68-.28-.92.02-.25.33.1.61.27.87,1.73,2.55,4.34,3.39,7.3,3.66Z"/>
      <path class="cls-1" d="m231.57,114.33c3.26-1.39,6.3-2.47,9.33-3.56,8.73-3.16,17.52-6.19,26.17-9.54,4.09-1.58,7.85-3.94,11.65-6.14,4.17-2.41,8.17-5.04,11.9-8.11,2.03-1.66,3.24-3.82,4.51-5.99,1.83-3.15,3.78-6.22,6.45-8.76,1.72-1.64,3.04-1.83,5.01-.49,6.61,4.48,14,6.87,21.79,8.25,5.06.9,10.13,1.61,15.26,2.03,3.46.29,6.91.56,10.37.77,1.99.12,3.98.04,5.96.18,5.81.43,11.62.26,17.43.2,5.27-.05,10.54-.2,15.8-.48,4.82-.27,9.62-.85,14.44-1.16,2.95-.19,5.85-.74,8.78-1.02,6.64-.64,13.23-1.66,19.83-2.66,9.41-1.43,18.78-3.11,28.11-4.96,6.46-1.28,12.9-2.59,19.32-4.05,1.81-.41,3.52-1.22,5.37-1.55.24-.04.48-.14.72-.17,2.16-.25,2.23-.18,2.19,1.94-.04,2.24,1.36,3.56,3.87,3.74,2.72.19,5.35-.21,7.71-1.5,1.76-.96,3.31-2.3,4.67-3.81.25-.28.48-.78.99-.56.43.18.49.64.5,1.06.03,1.07.28,2.33,1.18,2.68,1.51.59,3.25.88,4.81-.03,1.69-.99,2.76-2.59,3.78-4.2.24-.38.49-.77.75-1.14.17-.24.38-.46.71-.39.34.07.41.35.49.65.74,2.68,3.42,4.97,6.19,5.17,1.19.08,2.24-.54,3.24-1.14.45-.27.33-.71.2-1.11-.72-2.19-1.44-4.38-2.15-6.57-1.8-5.56-3.67-11.09-5.34-16.69-.61-2.04.56-3.93,1.34-5.79.22-.52.55-.14.78.06.9.79,1.51,1.75,1.75,2.92.36,1.78.69,3.55.77,5.37.06,1.3.65,2.46,1.19,3.62,1.76,3.78,3.55,7.6,4.09,11.75.41,3.17.6,6.42-.75,9.5-1.73,3.95-5.74,5.29-9.48,3.13-1.19-.69-2.29-1.5-3.22-2.51-.59-.64-.96-.71-1.16.33-.66,3.44-7.44,6-10.21,3.42-.34-.31-.65-.62-.91-1.01-.83-1.25-.86-1.28-2.06-.29-2.48,2.04-5.41,2.8-8.52,3.01-.66.05-1.31.17-1.96.25-2.37.28-4.97-1.25-5.7-3.84-.6-2.14-.69-2.15-2.79-1.59-9.45,2.51-19.03,4.43-28.65,6.12-9.32,1.64-18.69,3.06-28.04,4.57-6.09.99-12.23,1.62-18.34,2.37-4.27.53-8.59.74-12.88,1.06-4.75.36-9.5.72-14.25,1.05-7.39.53-14.77.39-22.16.38-4.23,0-8.46-.24-12.69-.49-4.88-.29-9.74-.83-14.58-1.46-5.26-.69-10.49-1.52-15.66-2.72-1.85-.43-3.69-.95-5.54-1.4-.58-.14-1.27-.41-1.35.64-.33,4.6-3.52,4.87-6.61,3.76-2.53-.91-5.05-1.91-7.34-3.35-.61-.38-.99-.42-1.35.33-2.49,5.23-6.6,9.09-11.2,12.38-7.17,5.13-14.88,9.33-23.26,12.19-5.81,1.98-11.76,3.47-17.83,4.42-3.11.49-6.21.99-9.33,1.4-1.27.16-2.62.39-4.1-.51Zm71.63-36.31c-.65,0-1.12-.05-1.56.01-.59.08-.74.52-.25.82,1.6.97,3.09,2.24,5.14,2.14.27-.01.61.13.76-.23.1-.26-.07-.48-.23-.66-1.09-1.19-2.09-2.56-3.85-2.07Z"/>
      <path class="cls-1" d="m238.96,72.95c-1.1,2.21-1.84,4.37-2.45,6.57-.68,2.46-.98,5-1.53,7.48-.5,2.3-2.02,3.97-4.23,4.81-1.15.44-2.29-.06-3.17-.96-1.73-1.78-2.56-4.04-3.23-6.34-.57-1.92-1.09-3.86-1.43-5.85-.38-2.22.01-4.34.47-6.48.08-.36.22-.85.79-.81.57.04.57.52.64.91.43,2.41.43,4.84.42,7.27-.02,2.63,1.35,4.53,3.31,6.05,1.39,1.08,2.36.81,3.23-.75,1.11-1.99,1.77-4.16,2.46-6.31,1.04-3.2,1.53-6.57,3.01-9.64.72-1.49,1.48-2.95,2.59-4.2.54-.61,1.22-1.45,2.03-1.1.76.32,1.11,1.26,1.14,2.2.07,1.78-.19,3.53-.37,5.29-.27,2.66-1.1,5.28-.21,8.04,1.06,3.26,3.88,4.3,6.73,4.03,3.05-.29,5.29-1.81,6.74-4.62.88-1.71.35-3.29.17-4.94-.54-5.07-1.75-10.05-1.88-15.17-.02-.72.16-1.39.33-2.06.2-.78.69-.89,1.24-.26.66.75,1.07,1.66,1.47,2.56,1.78,3.99,2.56,8.24,3.22,12.52.26,1.71.68,3.39,1.49,4.95.59,1.15,1.27,2.26,2.37,2.98,1.64,1.09,3.38,1.8,5.32.64.8-.47,2.25-.03,2.43-1.18.13-.8-.5-1.71-.79-2.57-1.71-5.12-3.89-10.1-5.21-15.35-.55-2.19-1.02-4.42-.38-6.7.12-.43.19-1.01.65-1.12.5-.12.76.43,1.02.78,1.37,1.85,2.83,3.66,3.81,5.76.36.77.47,1.48-.43,2.04-.53.34-.3.84-.09,1.31,1.82,4.03,3.38,8.18,3.9,12.56.44,3.72-.35,7.33-3.26,10.06-1.45,1.36-3.39,1.27-5.21,1.01-3.55-.52-5.9-2.62-7.28-5.85-.13-.3-.21-.63-.53-.83-.58.37-.28.98-.4,1.46-1.07,4.33-5.75,7.92-10.22,8.05-4.49.14-6.25-1.56-7.79-5.45-.88-2.22-1.39-4.45-.94-6.87.22-1.18.04-2.44.04-3.92Z"/>
      <path class="cls-1" d="m146.41,71.36c.1-3.54-.66-6.98-1.18-10.46-.76-5.08-1.66-10.14-2.56-15.2-1.19-6.68-2.32-13.37-3.76-20-.67-3.08-1.6-6.12-2.28-9.21-.44-2.01.33-3.63,1.51-5.13.4-.5.94-.72,1.35.09,1.53,3.02,3.07,6.03,4.05,9.28.25.84.43,1.63-1,1.56-.97-.05-.62.78-.51,1.29.67,3.14,1.38,6.27,2.06,9.4,1.15,5.31,2.3,10.62,2.96,16,.42,3.45,1.73,6.7,2,10.15.08,1.03.24,2.05.26,3.07.08,3.69.86,7.39-.15,11.06-.14.51-.31,1.03-.52,1.52-.21.49-.56.85-1.16.69-.59-.16-1.08-.45-1.07-1.17,0-.99,0-1.98,0-2.97Z"/>
      <path class="cls-1" d="m283.59,80.1c.43-1.71.25-3.53.33-5.33.14-3.08-.64-6.05-1.06-9.05-.58-4.1-1.29-8.19-1.94-12.28-.63-4.02-1.25-8.04-1.89-12.06-.69-4.3-1.46-8.59-2.08-12.89-.28-1.93.33-3.74,1.29-5.43.27-.47.62-.66.92-.15,2.01,3.45,4.25,6.8,4.76,10.9.11.84-.12,1.27-1.06,1.1-.57-.1-.72.19-.6.74,1.1,5.15,1.83,10.36,2.51,15.57.42,3.16.99,6.31,1.21,9.52.24,3.6.85,7.17,1.09,10.78.15,2.26.22,4.54-.23,6.78-.19.93-.61,1.8-1.29,2.5-.42.43-.81,1.1-1.51.83-.64-.25-.25-.96-.43-1.53Z"/>
      <path class="cls-1" d="m227.52,70.19c1-3.26-.19-6.45-.71-9.56-.46-2.75-1.04-5.54-1.61-8.3-1.14-5.43-2.12-10.9-3.12-16.35-.31-1.7.19-3.45-.25-5.17-.86-3.39-1.49-6.83-2.17-10.25-.4-1.98.5-3.96,1.71-5.65.43-.61.69-.07.86.29.6,1.27,1.26,2.52,1.74,3.83.72,1.97,1.3,4,1.94,6,.21.66.19,1.18-.69,1.18-.8,0-.71.51-.62,1.02,1.13,6.23,2.33,12.44,3.36,18.69.73,4.38,1.28,8.78,1.81,13.19.43,3.54.93,7.1,0,10.66-.23.88-.48,1.75-.88,2.57-.14.28-.24.71-.66.63-.42-.09-.7-.42-.7-.9,0-.62,0-1.24,0-1.86Z"/>
      <path class="cls-1" d="m245.16,93.34c.43.05,1.02-.12,1.19.42.16.52-.45.62-.76.84-2.48,1.81-5.41,2.66-8.25,3.68-3.11,1.12-6.31,2-9.42,3.11-1.68.6-3.07,1.79-4.49,2.86-.26.2-.51.58-.84.46-1.78-.63-3.33.1-4.92.69-.41.15-1,.61-1.31-.03-.27-.56.2-1.02.65-1.32,2.26-1.5,4.77-2.49,7.29-3.44,6.05-2.28,12.22-4.21,18.19-6.68.83-.34,1.73-.59,2.66-.58Z"/>
      <path class="cls-1" d="m161.33,34.92c.19-1.62,1.52-2.6,2.91-3.39,3.19-1.82,6.73-2.79,10.26-3.67,3.17-.79,6.08-2.18,9.09-3.34,2.66-1.04,5.27-2.22,8.02-3.03.32-.09.63-.2.95-.3.71-.22,1.63-.28,1.9.37.27.64-.71.74-1.17.98-5.79,3.03-11.93,5.18-18.22,6.88-4.19,1.13-7.98,3.13-11.92,4.8-.47.2-.61.63-.74,1.08-.12.43.21,1.23-.49,1.18-.63-.04-.52-.81-.58-1.55Z"/>
      <path class="cls-1" d="m241.72,33.87c0-1.26.72-1.9,1.58-2.47,4.42-2.91,9.34-4.85,14.11-7.06,3.61-1.67,7.32-3.12,11-4.63.65-.27,1.62-.89,2-.13.29.59-.75,1.11-1.37,1.48-4.04,2.39-8.43,4.07-12.63,6.15-2.9,1.44-6.07,2.27-8.85,3.94-1.71,1.03-3.35,2.16-4.32,3.99-.29.56-.61.66-.99.09-.29-.45-.63-.89-.54-1.35Z"/>
      <path class="cls-1" d="m224.02,5.81c-.01,1.67-.89,2.85-2.5,3.47-1.74.66-3.6.49-5.38.84-.36.07-.75.09-1.09.22-.69.25-1.26.39-1.5-.57-.16-.64-.6-.43-.94-.13-.82.71-1.82.95-2.85,1.11-.44.06-.89-.03-1.04-.48-.16-.5.34-.58.66-.73.89-.42,2.13-.57,2.56-1.38.44-.83-.62-1.69-.79-2.62-.12-.69-.28-1.37-.45-2.05-.1-.39.03-.66.35-.83.42-.23.57.13.77.39.73.92,1.11,2.02,1.66,3.04.54,1.02,1.26,1.11,2.15.56.63-.39,1.26-.81,1.81-1.3,1.41-1.24,3.07-1.55,4.87-1.38,1.42.13,1.73.46,1.71,1.86Zm-3.69.13c-.55-.01-.97.1-1.02.7-.03.34.19.46.47.33.45-.2,1.23.2,1.34-.56.07-.5-.48-.44-.8-.47Z"/>
      <path class="cls-1" d="m321.87,89.4c.65,0,1.23,0,1.34.49.12.5-.51.54-.85.7-3.94,1.81-8.01,3.28-12.02,4.9-5.31,2.14-10.63,4.28-15.94,6.42-.27.11-.55.19-.82.28-.22.07-.42,0-.55-.17-.16-.2-.04-.38.07-.56.51-.85,1.29-1.37,2.14-1.83,2.82-1.51,5.81-2.63,8.78-3.79,3.02-1.18,6.06-2.33,9.11-3.44,2.6-.95,5.23-1.84,7.85-2.76.35-.12.71-.2.9-.25Z"/>
      <path class="cls-1" d="m154.65,12.62c1.17.39,2.16.66,3.1,1.04,3.26,1.29,6.6.95,9.95.59,4.89-.53,9.49-2.08,14.05-3.81.58-.22,1.18-.41,1.82-.32.41.06.91.14.97.62.06.43-.39.63-.74.72-2.4.66-4.58,1.87-6.95,2.64-5.39,1.75-10.89,2.36-16.53,2.19-.92-.03-2.09-.5-2.6.98-.18.52-.63-.08-.83-.31-1.04-1.21-1.74-2.6-2.25-4.35Z"/>
      <path class="cls-1" d="m283.95,17.32c-1.84.2-3.55-.63-5.36-.81-.63-.06-1.03-.16-.76.67.13.42.17.93-.34,1.02-.51.09-.95-.27-1.2-.73-.37-.66.17-2.56.97-3.29.76-.69,1.63-1.02,2.59-.36,1,.7,1.7.59,2.47-.45.87-1.18,2.2-1.87,3.48-2.55.99-.52,2.94-.15,3.62.59.62.68.59,2.32-.1,3.52-1.2,2.06-3.15,2.5-5.37,2.38Zm.56-2.5c.71-.16,1.5-.22,2.16-.68.2-.14.43-.3.36-.58-.08-.33-.36-.45-.66-.42-.84.07-1.61.32-2.25.88-.17.15-.43.32-.32.6.12.29.43.15.71.21Z"/>
      <path class="cls-1" d="m127.45.03c.42,0,.84-.02,1.25-.03-.1,1.64,1.06,2.7,1.85,3.92.29.44.74.25,1.08-.05.81-.71,1.6-1.44,2.42-2.13,1.18-1,2.54-1.24,4.03-.87.97.24,1.27,1.05,1.49,1.82.19.67-.38,1.14-.87,1.52-.76.58-1.56,1.05-2.54,1.25-1.29.26-2.56.58-3.69,1.37-.77.54-1.74.63-2.55-.06-.55-.47-1.11-.45-1.74-.23-1.02.35-2.07.62-3.16.61-.54,0-1.15-.14-1.26-.78-.12-.73.58-.7,1.01-.83,2.72-.79,2.72-.78,2.42-3.57-.07-.66.02-1.31.23-1.94Zm7.08,4.1c.67,0,1.24.14,1.76-.21.35-.23.5-.6.3-.95-.2-.35-.58-.27-.86-.07-.42.3-.97.47-1.2,1.23Z"/>
      <path class="cls-1" d="m78.6,33.6c-.6-.16-.63-.58-.45-.97.29-.61.83-1,1.41-1.35,3.63-2.17,7.4-4.08,11.23-5.87,5.8-2.71,11.62-5.39,17.44-8.06.67-.31,1.38-.56,2.07-.83.28-.11.58-.21.79.1.23.34-.1.53-.29.72-.86.87-1.99,1.34-3.04,1.91-3.99,2.18-8.24,3.81-12.39,5.64-5.59,2.47-11.25,4.83-16.29,8.37-.17.12-.33.23-.49.34Z"/>
      <path class="cls-1" d="m540.05,97.76c-5.96,2.95-12.21,4.99-18.38,7.18-4.29,1.52-8.68,2.79-13.03,4.16-.34.11-.85.32-1-.06-.17-.45.36-.68.71-.86,2.28-1.2,4.71-2.05,7.13-2.91,7.66-2.71,15.36-5.29,23.17-7.53.46-.13.92-.26,1.4.03Z"/>
      <path class="cls-1" d="m244.88,40.82c2.66-.07,4.57,3.15,4.32,5.46-.06.59-.55.7-1,.74-1.54.14-2.6.98-3.38,2.24-1.18,1.93-2.96,2.94-5.13,3.36-.52.1-1.22.37-1.47-.18-.29-.62.36-1.06.85-1.32,1.84-.98,3.55-2.12,5.04-3.58.94-.92.94-.93-.32-1.26-.57-.15-.79-.52-.82-1.08-.07-1.08.16-2.13.32-3.19.14-.93.69-1.38,1.58-1.2Z"/>
      <path class="cls-1" d="m527.15,95.92c-1.91-.38-3.33-1.66-4.55-3.21-.23-.29-.1-.62.02-.94.39-1,.78-2,1.13-3.01.27-.79.8-.98,1.56-.77,1.93.54,3.38,1.77,4.55,3.3.8,1.04.08,2.06-.41,3-.44.86-1.04,1.6-2.3,1.64Z"/>
      <path class="cls-1" d="m63.87,102.31c-1.73-.49-3.3-1.44-4.32-3.09-.55-.89.75-4.01,1.72-4.46.41-.19.79-.13,1.2,0,1.4.44,2.58,1.29,3.8,2.05.13.08.25.21.33.35.63,1.1-.89,4.8-2.11,5.1-.16.04-.33.03-.63.05Z"/>
      <path class="cls-1" d="m186.7,105.08c.69-1.55.91-3.42,2.29-4.79.23-.23.47-.58.83-.42,1.21.54,2.52.92,3.49,1.85.66.63.19,1.85-.84,2.28-1.04.44-2.16.58-3.29.54-.93-.03-1.12.23-.79,1.16.93,2.63,1.83,5.29,2.36,8.04.09.47.19.94-.4,1.12-.46.15-.86-.06-.99-.51-.88-3.03-2.09-5.97-2.65-9.29Z"/>
      <path class="cls-1" d="m56.63,99.65c0,1.15-1.67,3.65-2.73,4.08-.33.13-.67.13-.96-.03-1.13-.6-2.26-1.2-3.36-1.85-.65-.39-.58-1.08-.42-1.67.39-1.42,1.28-2.55,2.33-3.57.09-.08.2-.16.31-.2,1.31-.52,4.83,1.83,4.83,3.24Z"/>
      <path class="cls-1" d="m508.94,89.08c-.06,1.24-.99,2.34-2.39,2.7-.96.25-1.98.63-2.91.51-2.46-.33-3.98,1.16-5.71,2.43-2.14,1.58-4.2,3.36-6.86,4.1-.25.07-.57.37-.76-.02-.18-.37.22-.47.44-.64,3.07-2.38,6.14-4.74,9.2-7.14.98-.77,1.92-1.31,3.28-.93.89.24,1.83.18,2.62-.66.67-.71,1.81-.59,2.67-1.15.52-.34.31.52.42.8Z"/>
      <path class="cls-1" d="m205.08,100.57c1.98.04,3.75-.96,5.7-1.12.35-.03.8-.31.95.19.13.41-.38.45-.62.65-1.88,1.51-4.01,2.44-6.42,2.67-.49.05-1,.11-1.48.05-1.62-.22-2.19-1.16-1.68-2.69.18-.54.35-1.09.55-1.63.33-.89.33-1.59-.83-1.82-.54-.11-.49-.44-.24-.83,1.01-1.57,3.76-1.62,4.84-.05.4.58.38,1.15-.26,1.61-.68.48-1.29,1.04-1.75,1.73-.2.3-.53.64-.37.99.18.42.66.2,1.01.25.2.02.41,0,.62,0Z"/>
      <path class="cls-1" d="m297.59,45.56c1.09,0,2.03.03,2.97-.01.7-.03.88.3.8.9-.1.75-.3,1.44-1.05,1.85-1.65.89-3.38,1.55-5.23,1.91-.3.06-.7.2-.88-.2-.14-.33.15-.54.37-.72.97-.79,1.05-1.49.08-2.43-.96-.93-.18-3.49,1.21-4.38,1.49-.95,2.72-.48,3.19,1.23.11.4.09.71-.38.88-.37.13-.82.22-1.08.98Z"/>
      <path class="cls-1" d="m134.21,85c.06.83-.23,1.68-.66,2.5-.74,1.41-1.56,1.71-3.03,1.06-.04-.02-.07-.04-.11-.06-3.34-1.58-3.79-3.51-1.55-6.55.35-.48.78-.58,1.3-.37.88.35,1.78.68,2.64,1.08,1.44.67,1.45.71,1.41,2.35Z"/>
      <path class="cls-1" d="m156.74,99.75c-1.79.6-3.13,1.88-4.68,2.79-3.66,2.17-7.26,4.45-11.18,6.18-.64.28-1.33.44-2,.65-.44.13-.89.04-1.09-.35-.23-.44.23-.63.52-.85,2.38-1.88,5.1-3.18,7.83-4.45,2.47-1.15,4.97-2.27,7.47-3.35.98-.42,1.99-.91,3.12-.62Z"/>
      <path class="cls-1" d="m310.44,99.79c1.94.03,3.37,1.27,3.41,2.85.02.71-.22,1.19-.95,1.4-.84.24-1.67.46-2.55.5-1.34.06-1.59.34-1.22,1.57.55,1.85.77,3.8,1.57,5.58.13.3.33.74,0,.89-.48.23-.59-.32-.73-.63-.95-2.06-1.86-4.14-2.81-6.2-.49-1.06-.2-1.97.6-2.68.75-.66,1.23-1.46,1.47-2.38.2-.76.58-1.03,1.22-.91Z"/>
      <path class="cls-1" d="m186.69,35.15c.54.95.96,1.7,1.39,2.44.18.31.33.78.77.66.41-.11.18-.57.22-.87.12-.75-.19-1.47-.24-2.2-.02-.36-.08-.81.42-.91.38-.08.61.23.76.53.29.54.59,1.07.59,1.73,0,.49.12,1.15.78,1.01.74-.16.2-.75.11-1.1-.15-.54-.45-1.04-.68-1.55-.14-.3-.34-.6.08-.85.31-.19.64-.24.93,0,1.21.98,1.8,2.34,2.22,3.78.1.34-.19.61-.4.87-.67.83-1.6,1.27-2.51,1.78-2.56,1.43-3.78.56-4.58-2.21-.28-.96-.42-1.93.12-3.1Z"/>
      <path class="cls-1" d="m264.93,41.48c.34,1.07-.36,1.63-1.39,2.06-.96.4-1.97.65-2.99.76-1.65.19-2.88-.91-3.07-2.67-.05-.45-.05-.91-.02-1.36.02-.29-.18-.75.29-.81.33-.04.59.3.75.58.25.42.4.9.65,1.32.2.32.51.58.94.39.38-.17.33-.51.26-.85-.15-.76-.27-1.53-.39-2.3-.04-.28-.07-.62.3-.72.35-.1.54.16.64.44.25.69.45,1.4.72,2.09.15.38.41.9.83.76.5-.16.23-.69.12-1.06-.2-.67-.44-1.33-.62-2-.11-.41-.08-.87.36-1.09.37-.18.6.18.83.4,1.13,1.05,1.91,2.27,1.78,4.05Z"/>
      <path class="cls-1" d="m105.24,34c.02-.5,0-.8.07-1.07.06-.22.21-.5.39-.57.29-.12.41.23.52.42.38.64.71,1.31,1.09,1.94.18.31.39.73.85.57.43-.16.39-.61.34-.97-.14-.89-.36-1.78-.47-2.67-.04-.39-.31-1.01.35-1.14.52-.1.79.41,1,.8.3.55.38,1.17.43,1.79.02.25.16.52.46.47.34-.06.25-.39.22-.61-.09-.78-.53-1.48-.51-2.28,0-.34-.04-.7.36-.83.39-.13.7.11.8.42.49,1.44,1.23,2.79,1.38,4.34.08.83-.28,1.29-1.08,1.55-1.22.4-2.42.86-3.61,1.34-.74.3-1.26.17-1.68-.53-.59-.98-.79-2.05-.9-2.96Z"/>
      <path class="cls-1" d="m94.18,110.5c1.22-.19,2.5-.35,3.79-.27.35.02.83-.18.99.27.17.49-.3.72-.62.95-.33.24-.7.49-1.09.57-1.37.26-2.75.49-4.14.66-.87.11-1.29-.35-1.31-1.23-.02-1.22.14-2.36,1-3.33.53-.59.76-1.1-.45-1.2-.56-.05-1.65.16-1.58-.68.04-.58,1.05-.79,1.79-.75.41.02.83.06,1.22.17,1.38.38,1.59.97.73,2.1-.35.46-.8.85-1.12,1.32-.24.35-.74.71-.5,1.18.26.51.83.11,1.3.24Z"/>
      <path class="cls-1" d="m42.61,101.02c-.27.51-.71.86-1.24,1.12-1.93.96-3.81,2.05-5.8,2.84-2.3.92-4.53,2.01-6.84,2.9-.37.14-.94.62-1.21.08-.27-.54.36-.85.8-1.05,4.19-1.99,8.39-3.97,12.59-5.94.37-.17.78-.26,1.19-.35.27-.06.5.02.52.39Z"/>
      <path class="cls-1" d="m245.19,13.99c.03-2.21.37-2.76,1.76-2.97,1.05-.16,2.15.61,2.8,1.84.52,1,.04,1.64-.65,2.25-.15.14-.29.3-.46.41-.77.49-1.57,1.08-2.51.61-.89-.45-.99-1.35-.93-2.14Z"/>
      <path class="cls-1" d="m506.22,39.14c0,1.66-2.42,3.41-3.95,2.92-.77-.25-.8-1.02-.93-1.63-.13-.62.09-1.27.62-1.65.52-.39.67.22.92.5.21.24.46.33.78.26.19-.05.26-.19.27-.37.02-.37-.24-.45-.53-.56-.49-.19-1.31-.2-.84-1.1.35-.66,1.85-1.15,2.34-.77.8.63,1.44,1.38,1.33,2.4Z"/>
      <path class="cls-1" d="m62.94,39.63c-1.65,0-1.74-.1-1.36-1.66.07-.28.14-.56.23-.83.58-1.72,1.97-2.31,3.66-1.57,1.37.61,1.59,2.12.46,3.07-.84.7-1.66.98-2.98.98Z"/>
      <path class="cls-1" d="m171.33,43.58c-.79.02-1.75.08-1.7-1.31.05-1.47,1.19-3.21,2.1-3.15.82.05,2.41,1.63,2.41,2.4,0,1.26-1.02,2.06-2.81,2.06Z"/>
      <path class="cls-1" d="m297.87,61.71c0,1.53-.27,1.69-1.63,1-.59-.3-1.2-.61-1.83-.75-.98-.21-1.17-.81-1-1.63.17-.81.36-1.62,1.48-1.68,1.94-.11,2.97.91,2.98,3.06Z"/>
      <path class="cls-1" d="m103.03,75.43c-.02.41.03.88-.48,1.03-.52.15-.72-.29-.93-.64-.82-1.44-1.8-2.76-2.9-4-.26-.3-.46-.7-.55-1.09-.15-.66.42-1.16.98-.93,1.64.68,3.9,3.96,3.88,5.64Z"/>
      <path class="cls-1" d="m153.41,35.59c-.19.59.4,1.81-.26,1.9-.97.13-.72-1.16-.96-1.82-.59-1.62-1.06-3.29-1.59-4.93-.1-.32-.31-.67.01-.91.41-.3.79-.03,1.09.28,1.17,1.23,1.61,2.75,1.7,4.39.02.33,0,.66,0,1.09Z"/>
      <path class="cls-1" d="m53.1,52.57c.01,1.07-.4,1.42-1.35,1.03-.99-.4-1.95-.87-2.83-1.5-.57-.41-.61-.8-.04-1.26.74-.6,1.53-.77,2.41-.35.89.44,1.82.86,1.81,2.07Z"/>
      <path class="cls-1" d="m299.17,59.89c.31-.58.11-1.31.57-1.85.33-.4.59-1.01,1.25-.78.57.2,1.21.48,1.3,1.19.08.61-.33,1-.87,1.21-.64.25-.86.71-.8,1.36.07.79-.17,1.54-.41,2.29-.07.23-.25.48-.52.47-.35-.02-.27-.34-.28-.57-.07-1.1.12-2.22-.24-3.31Z"/>
      <path class="cls-1" d="m504.45,51.98c.67-.01,1.9,1.11,2.19,2.27.12.49.59,1.09.16,1.51-.48.47-1.1,0-1.61-.19-1.96-.76-2.32-1.28-1.89-2.64.15-.47.36-.94,1.15-.94Z"/>
      <path class="cls-1" d="m53.87,52.77c.17-1.02.24-2.14.84-3.12.6-.98,1.5-1.2,2.28-.58.25.19.61.38.52.77-.08.33-.39.59-.72.6-1.17.05-1.3.78-1.22,1.7.03.32.01.68-.1.97-.18.47-.26,1.19-.98,1.06-.66-.13-.61-.78-.62-1.4Z"/>
      <path class="cls-1" d="m510.7,53.1c.04.32-.1.73-.52,1.01-.55.37-1.05.78-1.3,1.43-.1.26-.39.46-.72.32-.29-.12-.21-.41-.2-.65.04-1.01.39-1.93.85-2.81.26-.5.69-.92,1.28-.74.52.17.58.74.62,1.42Z"/>
    </g>
  </g>
</svg>