<?xml version="1.0" encoding="UTF-8"?>
<svg id="Layer_2" data-name="Layer 2" xmlns="http://www.w3.org/2000/svg" viewBox="0 0 93.63 147.71">
  <defs>
    <style>
      .cls-1 {
        fill: #c7a48b;
      }
    </style>
  </defs>
  <g id="BANNER_1" data-name="BANNER 1">
    <g>
      <path class="cls-1" d="m2.58,147.71l.29-.7c.47-1.11.93-2.22,1.35-3.35,3.97-10.49,5.9-21.59,7.77-32.36,1.11-6.39,2.25-13,3.83-19.43,3.04-12.41,7.08-26.89,14.01-40.25,8.77-16.9,21.28-31.81,32.32-44.97.4-.48,1.12-.78,1.94-1.13.13-.05.25-.11.38-.16.06.17.12.34.18.51.29.83.57,1.62.5,2.32l-.33,3.38c-.7,7.27-1.43,14.78-2.53,22.11-1.57,10.45-3.19,21.26-5.64,31.89-3.17,13.75-9.75,27.29-19.56,40.24-8.05,10.63-16.57,21.19-24.9,31.52l-6.24,7.75c-.69.86-1.71,1.54-2.71,2.21-.22.15-.44.29-.66.44Zm15.49-58.62c-.25.05-.45.25-.51.51l-8.9,44.93c-.06.33.13.64.43.74.06.02.27.03.34.02.2-.04.37-.18.46-.36,1.28-2.76,2.51-5.45,3.75-8.17,2.83-6.21,5.5-12.08,8.48-17.85,2.26-4.37,2.4-8.55.45-13.14-.63-1.46-1.28-2.91-1.96-4.42l-.85-1.9c-.1-.23-.34-.39-.6-.39,0,0-1.06.01-1.08.02Zm21.57,7.69l-1.06.54c-7.61,3.91-14.8,7.6-17.88,16.77-1.33,3.96-3.32,7.79-5.26,11.51-.9,1.73-1.8,3.46-2.65,5.21-.19.41-.37.82-.59,1.35l-.25.61c-.13.3-.01.65.26.81.14.09.31.11.47.08.15-.03.28-.11.38-.23,2.59-3.22,5.34-6.42,8.02-9.54,6.97-8.12,14.18-16.52,19.44-26.23.13-.26.09-.56-.11-.76-.16-.16-.38-.23-.6-.18l-.17.06Zm10.41-21.04c-1.41.88-2.82,1.75-4.25,2.63-3.89,2.4-7.92,4.88-11.75,7.51-1,.68-1.45,1.97-1.9,3.24-.15.44-.31.87-.48,1.27-1.19,2.66-2.35,5.32-3.58,8.11l-1.52,3.47c-.11.26-.05.56.16.75.15.14.37.19.57.15.04,0,.15-.05.19-.07,1.22-.69,2.44-1.36,3.66-2.04l.54-.3c3.69-2.04,7.5-4.15,11.15-6.46,1.27-.8,1.97-2.34,2.66-3.82.16-.34.31-.67.46-.98,1.43-2.87,2.8-5.78,4.17-8.68l1.62-3.42c.13-.29.05-.63-.22-.81l-.75-.53c-.15-.1-.33-.14-.51-.11-.04,0-.18.06-.21.09Zm-25.32-8.29c-.06-.01-.13-.02-.19,0-.23.05-.42.22-.49.45l-1.27,4.17c-1.34,4.41-2.68,8.82-3.96,13.24-.21.72.15,1.49.47,2.19l.13.27c1.27,2.82,2.55,5.63,3.89,8.56l1.68,3.68c.11.23.34.38.72.37.21-.04.38-.19.47-.38.56-1.33,1.15-2.62,1.74-3.93,1.39-3.07,2.7-5.97,3.6-9.06.64-2.22.46-5.24-.48-8.07-1.17-3.49-2.97-6.95-5.83-11.22-.13-.19-.35-.31-.46-.28,0,0-.02,0-.02,0Zm32.05-15.47c-1.16.6-2.36,1.14-3.62,1.71-5.08,2.28-10.33,4.63-11.91,11.7-.66,2.98-1.93,5.9-3.16,8.74-.62,1.44-1.25,2.88-1.8,4.33-.34.9-.6,1.8-.87,2.76-.12.44-.25.89-.39,1.35-.08.26,0,.53.22.7.15.12.35.17.54.13.04,0,.16-.05.19-.07l3.91-2.24c4.02-2.3,7.96-4.55,11.85-6.87.82-.49,1.55-1.52,1.81-2.58,1.28-5.07,2.9-11.8,4.17-18.96.04-.25-.06-.49-.26-.63-.15-.11-.34-.15-.52-.11l-.17.06Zm-22.63-5.83c-.2.04-.38.18-.46.37l-1.9,4.16c-1.98,4.31-4.02,8.77-5.94,13.27-.45,1.05.05,2.54.55,3.6,1.55,3.31,3.18,6.59,4.83,9.94l1.78,3.62c.12.23.36.37.71.35.22-.05.4-.2.48-.41l1.73-4.75c1.86-5.08,3.96-10.83,5.91-16.41.37-1.06.05-2.48-.44-3.42-1.28-2.47-2.66-4.9-3.99-7.25l-1.49-2.63c-.1-.19-.29-.31-.51-.33l-1.1-.1s-.15,0-.18.01Zm26.91-29.8l-16.52,39.35c-.11.25-.05.53.15.72.16.15.37.21.58.17q.06-.01,1.87-.85l1.84-.85c2.91-1.33,5.42-2.49,7.89-3.77.97-.5,1.65-1.85,1.8-2.87,1.23-8.3,2.39-16.61,3.55-24.91l.89-6.33c.04-.3-.12-.58-.41-.7l-.82-.32c-.07-.03-.3-.05-.37-.03-.21.04-.38.19-.47.39Zm1.37-8.22c-.18.18-.35.34-.62.6-.4.37-.77.73-1.08,1.15l-8.35,11.19c-5.19,6.96-10.37,13.92-15.59,20.85-1.42,1.88-1.39,3.32.08,5.32,1.37,1.87,2.55,3.93,3.69,5.94.48.85.96,1.69,1.45,2.51.13.21.36.33.69.31.21-.04.38-.19.46-.38L63.49,8.86c.12-.29.03-.62-.23-.79-.14-.1-.33-.14-.5-.1-.07.01-.28.13-.33.18Z"/>
      <path class="cls-1" d="m1.81,146l.44-.36c.71-.57,1.41-1.13,2.09-1.73,6.38-5.5,11.63-12.14,16.72-18.58,3.02-3.82,6.14-7.78,9.48-11.45,6.45-7.1,14.3-15.22,23.66-21.55,11.84-8.01,25.43-13.38,37.43-18.11.44-.17,1.02-.12,1.68-.05.1,0,.2.02.31.03-.02.13-.05.27-.07.4-.1.65-.2,1.27-.5,1.71l-1.43,2.12c-3.07,4.54-6.24,9.24-9.58,13.69-4.78,6.34-9.71,12.89-15.14,19.03-7.01,7.94-16.21,14.52-27.32,19.56-9.12,4.13-18.53,8.05-27.72,11.89l-6.89,2.88c-.76.32-1.68.4-2.58.49-.2.02-.4.04-.59.06Zm31.21-33.14c-.19-.06-.39,0-.52.16l-21.96,26.47c-.16.19-.15.47.02.65.03.04.17.12.21.13.15.04.31.02.43-.08,1.83-1.36,3.61-2.7,5.4-4.05,4.09-3.09,7.96-6.01,11.99-8.75,3.06-2.08,4.65-4.78,5-8.52.11-1.19.2-2.38.29-3.62l.12-1.56c.02-.19-.09-.38-.26-.47,0,0-.7-.37-.72-.38Zm11.49,12.8l-.89-.02c-6.42-.15-12.49-.28-17.81,4.67-2.29,2.13-4.98,3.95-7.59,5.71-1.21.82-2.43,1.64-3.61,2.49-.27.2-.53.41-.87.68l-.39.31c-.19.15-.24.42-.12.63.06.11.16.19.28.22.11.03.22.03.33-.02,2.86-1.2,5.82-2.32,8.71-3.42,7.51-2.86,15.27-5.82,22.22-10.35.18-.12.26-.34.2-.54-.05-.16-.17-.29-.33-.33l-.13-.02Zm14.4-10.16c-1.24.08-2.49.15-3.74.22-3.43.19-6.97.39-10.44.75-.9.09-1.67.78-2.41,1.46-.26.23-.52.47-.77.66-1.73,1.33-3.46,2.67-5.26,4.07l-2.25,1.75c-.17.13-.23.35-.16.55.05.15.17.26.32.3.03,0,.12.02.15.02,1.05-.02,2.1-.03,3.15-.04h.46c3.17-.03,6.44-.06,9.67-.28,1.12-.08,2.14-.84,3.12-1.57.22-.17.44-.33.66-.48,1.97-1.38,3.92-2.81,5.86-4.24l2.29-1.68c.19-.14.25-.4.15-.61l-.31-.62c-.06-.12-.17-.21-.3-.25-.03,0-.14-.02-.17-.02Zm-13.75-14.54s-.08-.06-.12-.07c-.17-.05-.36,0-.49.12l-2.33,2.3c-2.46,2.43-4.93,4.86-7.35,7.32-.4.4-.44,1.04-.47,1.61v.23c-.19,2.32-.35,4.63-.51,7.05l-.21,3.03c-.01.19.09.37.35.5.15.05.32.01.44-.09.85-.67,1.7-1.32,2.56-1.97,2.02-1.53,3.92-2.97,5.62-4.69,1.22-1.24,2.18-3.29,2.57-5.5.48-2.72.53-5.65.17-9.49-.02-.17-.12-.33-.2-.35,0,0-.01,0-.02,0Zm26.69,1.27c-.98-.02-1.97-.09-3-.17-4.17-.32-8.48-.65-12.05,3.46-1.5,1.73-3.39,3.21-5.21,4.64-.93.73-1.85,1.45-2.74,2.21-.55.47-1.04.98-1.56,1.51-.24.25-.49.5-.74.75-.14.14-.18.35-.11.54.06.14.17.24.31.28.03,0,.12.02.15.02l3.38-.08c3.48-.08,6.88-.16,10.28-.29.71-.03,1.57-.45,2.12-1.05,2.66-2.89,6.14-6.75,9.54-11.02.11-.15.14-.34.06-.51-.06-.13-.17-.22-.3-.26l-.13-.02Zm-12.85-11.95c-.15-.05-.31-.02-.44.08l-2.74,2.06c-2.85,2.14-5.79,4.35-8.67,6.63-.67.53-.88,1.69-.93,2.58-.16,2.74-.26,5.49-.37,8.29l-.12,3.03c0,.2.1.37.35.48.16.05.34,0,.47-.1l2.85-2.52c3.04-2.69,6.49-5.73,9.78-8.72.62-.57.92-1.62.93-2.41.04-2.09,0-4.19-.04-6.21l-.04-2.27c0-.16-.08-.31-.22-.4l-.69-.46s-.1-.05-.12-.06Zm28.43-10.03l-24.99,20.06c-.16.13-.22.34-.16.53.05.15.17.27.32.32t1.54.11l1.52.1c2.4.16,4.46.3,6.56.34.82.02,1.75-.63,2.22-1.25,3.78-5.04,7.52-10.1,11.26-15.17l2.85-3.86c.13-.18.13-.43-.02-.61l-.42-.5s-.18-.14-.23-.15c-.15-.05-.32-.01-.45.09Zm3.85-4.93c-.18.05-.35.1-.63.18-.4.11-.77.21-1.12.37l-9.52,4.4c-5.91,2.74-11.83,5.47-17.75,8.18-1.61.73-2.11,1.69-1.85,3.54.24,1.73.27,3.51.31,5.24.01.73.03,1.46.06,2.18,0,.18.12.35.35.45.15.05.32.01.44-.08l30.16-23.59c.18-.14.24-.4.13-.61-.06-.12-.17-.21-.29-.24-.05-.02-.23-.02-.28,0Z"/>
      <path class="cls-1" d="m7.78,116.48v-.57c.03-.91.05-1.81.04-2.71-.1-8.42-1.79-16.71-3.43-24.76-.98-4.77-1.99-9.71-2.65-14.63C.46,64.31-.69,53.07.5,41.83,2,27.62,6.65,13.77,10.77,1.54c.15-.45.57-.85,1.04-1.32.07-.07.15-.14.22-.22.09.1.17.21.26.31.43.5.84.98.98,1.48l.7,2.45c1.5,5.27,3.05,10.73,4.29,16.15,1.77,7.74,3.6,15.73,4.8,23.84,1.55,10.48.66,21.75-2.65,33.49-2.72,9.64-5.78,19.36-8.77,28.86l-2.24,7.12c-.25.79-.78,1.55-1.29,2.29-.12.16-.23.33-.34.49Zm-5.23-45.23c-.16.11-.25.3-.22.5l6.09,33.85c.05.25.27.42.51.4.05,0,.2-.05.24-.08.13-.08.21-.22.22-.38.14-2.28.26-4.5.38-6.74.27-5.12.53-9.95,1.04-14.8.38-3.68-.66-6.64-3.29-9.31-.84-.85-1.69-1.68-2.58-2.55l-1.12-1.09c-.14-.14-.34-.18-.52-.11,0,0-.74.3-.75.31Zm17.19-.54l-.59.67c-4.25,4.82-8.26,9.37-7.91,16.62.15,3.13-.19,6.36-.52,9.48-.16,1.46-.31,2.91-.42,4.37-.02.34-.03.67-.04,1.11v.5c-.02.24.16.46.39.5.12.02.25,0,.35-.07.1-.06.16-.15.2-.26.93-2.96,1.97-5.95,2.99-8.86,2.65-7.59,5.39-15.43,6.4-23.66.02-.22-.09-.42-.29-.5-.15-.07-.33-.06-.47.04l-.1.09Zm1.51-17.56c-.74,1-1.49,2-2.25,3-2.06,2.74-4.2,5.58-6.15,8.47-.51.75-.47,1.78-.44,2.79.01.35.02.69,0,1.02-.1,2.18-.19,4.36-.28,6.65l-.11,2.84c0,.21.12.4.32.48.15.05.31.03.44-.05.02-.02.09-.08.11-.1.66-.81,1.33-1.62,2-2.43l.3-.36c2.02-2.44,4.11-4.96,6.02-7.57.66-.91.74-2.17.81-3.4.02-.28.03-.55.06-.81.21-2.4.37-4.81.53-7.21l.19-2.83c.02-.24-.14-.45-.37-.51l-.67-.16c-.13-.03-.27-.01-.38.06-.03.02-.11.09-.13.12Zm-19.97,1.15s-.09.02-.13.05c-.15.1-.23.27-.22.45l.26,3.27c.27,3.45.54,6.9.86,10.34.05.56.51,1,.93,1.4l.16.16c1.66,1.63,3.33,3.24,5.07,4.92l2.19,2.11c.14.13.34.17.61.06.13-.09.22-.24.22-.4.03-1.08.09-2.15.14-3.23.13-2.53.25-4.91.03-7.32-.16-1.73-1.11-3.79-2.55-5.51-1.77-2.12-3.98-4.05-7.15-6.24-.14-.1-.33-.12-.4-.07,0,0-.01,0-.01.01Zm18.17-19.59c-.64.74-1.34,1.44-2.06,2.19-2.93,2.98-5.96,6.07-5.12,11.44.35,2.26.27,4.66.19,6.97-.04,1.18-.08,2.35-.07,3.52,0,.72.08,1.42.15,2.17.03.34.07.69.1,1.05.02.2.15.37.34.43.14.04.29.02.41-.06.03-.02.1-.08.11-.1l2.12-2.64c2.18-2.71,4.31-5.36,6.4-8.05.44-.56.66-1.49.56-2.3-.5-3.89-1.2-9.04-2.28-14.4-.04-.18-.17-.33-.35-.37-.13-.03-.28-.01-.39.06l-.1.09Zm-17.42,2.13c-.13.08-.21.23-.22.38l-.19,3.43c-.2,3.55-.41,7.23-.52,10.91-.03.86.73,1.76,1.37,2.37,1.99,1.89,4.03,3.74,6.1,5.62l2.24,2.04c.15.13.35.16.59.05.14-.09.23-.25.22-.42l-.09-3.8c-.09-4.06-.2-8.66-.37-13.09-.03-.84-.65-1.75-1.24-2.27-1.57-1.38-3.2-2.7-4.78-3.98l-1.76-1.43c-.12-.1-.29-.14-.45-.09l-.8.23s-.1.04-.12.06ZM12.66,8.63l-.76,32.03c0,.2.11.39.3.46.15.06.32.05.45-.04t1.08-1.11l1.06-1.1c1.67-1.73,3.1-3.22,4.48-4.8.54-.61.65-1.75.47-2.5-1.42-6.14-2.88-12.26-4.34-18.39l-1.11-4.67c-.05-.22-.25-.37-.48-.38h-.66c-.05,0-.22.05-.27.08-.13.09-.22.23-.22.4Zm-1.29-6.12c-.08.17-.15.34-.27.59-.17.37-.34.72-.44,1.1l-2.77,10.11c-1.72,6.29-3.44,12.57-5.19,18.85-.48,1.7-.06,2.7,1.52,3.7,1.47.93,2.86,2.05,4.21,3.14.57.46,1.14.92,1.7,1.36.15.11.34.14.57.02.13-.09.22-.24.22-.39L12.3,2.72c0-.23-.15-.44-.38-.49-.13-.03-.27,0-.38.07-.05.03-.16.17-.18.22Z"/>
    </g>
  </g>
</svg>