<?xml version="1.0" encoding="UTF-8"?>
<svg id="Layer_2" data-name="Layer 2" xmlns="http://www.w3.org/2000/svg" viewBox="0 0 128.27 58.5">
  <defs>
    <style>
      .cls-1 {
        fill: #c7a48b;
      }
    </style>
  </defs>
  <g id="BANNER_1" data-name="BANNER 1">
    <path class="cls-1" d="m128.27.51c-3.9,3.51-7.68,7.16-11.73,10.48-3.59,2.94-7.48,5.51-11.41,8.36,1.45,3.21,1.8,6.85,1.06,10.6-.56,2.83-1.67,5.43-3.69,7.47-3.38,3.42-8.5,2.52-10.01-1.29-.6-1.5-.5-2.97.38-4.19,1.76-2.44,3.68-4.77,5.6-7.09,1.12-1.35,2.38-2.59,3.49-4.05-6.82,3.24-14.03,5.12-21.53,6.64.74,3.41.14,6.58-1.21,9.59-1.47,3.28-3.45,6.19-7,7.45-1.27.45-2.79.6-4.12.38-2.99-.49-4.48-3.13-3.13-5.83,1.04-2.08,2.5-4.04,4.12-5.72,1.79-1.85,3.97-3.33,5.96-4.95-9.35,1.17-18.85,2.37-27.96,3.51-.23,3.14-.27,5.99-.7,8.79-.42,2.76-1.99,5.02-4.1,6.82-1.42,1.22-3.09,1.57-4.85.78-1.78-.8-2.5-2.34-2.5-4.2,0-2.67,1.02-4.95,2.92-6.82,1.42-1.39,2.87-2.74,4.55-4.35-7.54,1.54-14.28,4.47-20.19,6.96-.61,3.5-.98,6.57-1.72,9.55-.7,2.81-1.54,5.63-3.82,7.75-1.43,1.33-2.94,1.77-4.75.96-1.86-.84-3.12-2.18-3.23-4.3-.16-3.04,1.15-5.6,3.03-7.84,1.13-1.35,2.52-2.5,3.96-3.91-1.28.07-2.42.19-3.56.19-3.83,0-7.41-.79-10.44-3.34-2.56-2.16-2.17-5.59.85-6.97,3.28-1.51,6.52-.75,9.34.92,3.02,1.8,5.68,4.21,8.76,6.54,2.76-1.18,6.01-2.57,9.71-4.16-1.51-.37-2.58-.61-3.63-.9-3.11-.86-6.1-1.92-8.12-4.7-1.91-2.63-.79-5.83,2.39-6.57,4.11-.96,7.71.49,10.68,3.07,2.15,1.87,3.71,4.4,5.41,6.49,7.05-1.17,14.17-2.36,21.33-3.55-3.38-1.04-6.65-2.26-9.29-4.68-.79-.73-1.59-1.52-2.13-2.43-1.5-2.53-.05-5.69,2.87-6.27,3.24-.65,5.94.61,8.37,2.63,3.19,2.65,5.26,5.99,6.18,10.5,7.61-1.24,15.2-2.47,22.79-3.7-.03-.14-.05-.28-.08-.42-2.78-.75-5.59-1.41-8.34-2.26-2.36-.74-4.38-2.07-5.88-4.12-1.91-2.62-1.06-5.56,2-6.65,2.34-.83,4.64-.37,6.79.63,4.58,2.12,8.05,5.4,10.02,10.14.12.29.29.56.48.93,7.89-2.63,15.08-6.43,21.88-11.68-1.81.19-3.29.4-4.77.48-5.32.3-10.02-1.4-14.22-4.57-1.97-1.48-1.97-2.97.02-4.44,1.78-1.31,3.85-1.62,6-1.6,5.99.04,10.7,2.65,14.5,7.14.24.28.47.58.63.78,3.92-3.2,7.77-6.34,11.62-9.48.14.17.27.34.41.51Zm-38.29,23.36c-2.59-3.29-12.86-9.34-16.9-9.87.2,1.13.07,2.38.62,3.06,1.12,1.38,2.45,2.77,3.99,3.6,3.7,1.99,7.82,2.71,12.29,3.2Zm4.73-19.02c1.2,4.63,14.39,7.9,20.36,5.2-6.54-2.94-13.24-4.43-20.36-5.2Zm-27.18,38.43c1.57.88,3.24.53,4.84-.15,4.59-1.94,7.94-8.88,7.04-14.43-1.77,2.51-3.43,5.14-5.39,7.54-2,2.45-4.28,4.66-6.48,7.04Zm28.01-5.65c3.23-5.54,6.93-10.77,8.42-17.12-.48.27-.83.63-1.17,1.01-1.57,1.77-3.2,3.48-4.68,5.32-1.54,1.91-3.13,3.84-4.32,5.97-1.09,1.95-.35,3.57,1.75,4.83Zm-76.83,2.38c.05-.11.1-.23.15-.34-1.28-1.21-2.5-2.51-3.86-3.62-2.46-2.02-5.24-3.4-8.46-3.73-2.59-.27-4.39.61-5.13,2.59,5.78,1.71,11.54,3.41,17.3,5.11Zm78.03-1.94c1.87.49,3.96-.26,5.35-2.06,2.55-3.32,3.53-7.11,3.25-11.25-.06-.94-.26-1.88-.35-2.48-2.72,5.21-5.5,10.53-8.25,15.8Zm-34.4-9.28c-5.85-5.91-11.34-9.64-14.97-10.03.39,1.15.49,2.3,1.08,3.06,3.4,4.36,8.19,6.08,13.89,6.97Zm4.31,13.75c4.75-4.04,8.49-8.82,11.9-14.33-3.54,1.52-6.45,3.39-8.78,5.98-1.38,1.54-2.51,3.34-3.56,5.13-.6,1.03-.67,2.27.44,3.21Zm-54.34,14.27c1.79.59,3.13.41,3.89-.94,1.13-2,2.35-4.03,2.95-6.21.74-2.68.89-5.53,1.29-8.31-.28-.08-.55-.15-.83-.23-2.4,5.17-4.81,10.34-7.3,15.69Zm7.62-31.94c5.03,2.8,10.05,5.6,15.09,8.37.26.14.64.06,1.42.11-1.47-1.8-2.62-3.29-3.86-4.71-2.02-2.32-4.6-3.77-7.57-4.43-1.8-.4-3.64-.46-5.07.66Zm-.75.76c-.48,1.96,0,3.25,1.19,4.27,3.08,2.64,6.81,3.67,10.72,4.19.94.12,1.91.02,2.86.02.04-.19.08-.37.11-.56-4.89-2.6-9.77-5.2-14.88-7.92Zm26.55,7.13c-2.59,4.87-5.13,9.62-7.68,14.42,2.01.71,3.36-.37,4.52-1.72,3.13-3.66,3.91-7.94,3.17-12.7Zm17.59-4.15c-1.01-3.8-2.93-6.61-5.39-9.01-1.73-1.68-3.83-2.91-6.36-2.87-1.03.01-2.06.42-3.08.65,0,.18.01.35.02.53,5.88,2.07,10.65,5.67,14.81,10.7Zm-45.13,13.3c-4.28,2.58-7.53,5.79-8.21,10.95-.19,1.44.35,2.57,1.58,3.4,2.21-4.79,4.39-9.5,6.63-14.35ZM96.24,3.71c5.75,1.43,11.76,2.93,17.31,4.3-6.26-5.52-12.54-7.07-17.31-4.3ZM1.26,35.82c.19,3.63,8.12,6.7,16.28,4.8-5.38-1.59-10.77-3.18-16.28-4.8Zm35.84,10.89c2.48-4.62,4.82-8.97,7.15-13.31-.14-.1-.29-.2-.43-.31-2.44,1.82-4.83,3.78-6.44,6.4-1.28,2.08-1.94,4.45-.28,7.22ZM74.46,13.15c6.13,2.35,11.57,5.25,16.1,9.66-4.35-7.8-10.66-11.67-16.1-9.66Z"/>
  </g>
</svg>