<?xml version="1.0" encoding="UTF-8"?>
<svg id="Layer_2" data-name="Layer 2" xmlns="http://www.w3.org/2000/svg" viewBox="0 0 86.52 128.51">
  <defs>
    <style>
      .cls-1 {
        fill: #c7a48b;
      }
    </style>
  </defs>
  <g id="BANNER_2" data-name="BANNER 2">
    <path class="cls-1" d="m60.94,103.45c1.68.09,3.37.29,5.01.49l.47.06c.3.04.67.29.83.56.67,1.15,1.31,2.3,1.94,3.41,1.02,1.82,2.17,3.88,3.37,5.81,1.62,2.63,3.8,6.07,6.25,9.38,1.37,1.85,3.09,3.42,4.59,4.72.69.59,1.09.74,1.49.55.3-.14.61-.48.98-.94.12-.15.27-.29.44-.45.05-.05.11-.1.17-.15l.03-.03-.13-.14c-.11-.12-.22-.25-.35-.35-3.33-2.84-6.24-6.22-8.9-10.33-.28-.44-.43-1.12-.36-1.7.33-2.79,1.36-5.4,3.04-7.75.77-1.07,1.56-2.17,2.12-3.37.21-.44.41-.88.62-1.32.94-1.97,1.91-4,2.47-6.11,1.29-4.84.24-9.68-.81-13.37-.66-2.32-1.28-4.69-1.87-6.98v-.04c-.37-1.4-.75-2.85-1.13-4.26-.05-.18-.18-.34-.33-.52h0c-.04-.06-.08-.11-.12-.16l-.03-.03-.03.03s-.1.08-.15.12c-.17.13-.34.27-.41.44l-.14.35c-1.04,2.54-2.23,5.43-3.29,8.22-3.14,8.25-4.31,15.7-3.57,22.79.23,2.18.63,4.32,1.03,6.4.17.91.34,1.77.48,2.62l-.14.06c-6.36-8.95-8.13-19.39-5.42-31.91v-.07s.3.06.3.06h.01c.09.02.16.04.23.05.41.04.81-.03,1.14-.19.43-.2.74-.55.91-1,.4-1.06.03-2.27-.86-2.87-.6-.41-1.36-.47-1.97-.18-.15.07-.29.17-.42.28-.63.58-.97,1.79-.44,2.62.38.6.31,1.07.07,1.65-1.67,4.01-2.33,8.2-1.99,12.43l.16,1.88-.33.07-5.91-14.48.04-.03c.69-.58,1.39-1.14,1.96-1.59l.03-.03c1.33-1.07,2.58-2.08,3.74-3.18,6.7-6.37,9.62-13.46,8.88-21.65-.27-2.99-.44-6-.61-8.92v-.23c-.11-1.66-.21-3.38-.32-5.07-.02-.22-.15-.43-.3-.67-.05-.08-.09-.15-.14-.23l-.02-.03-.03.02s-.27.13-.39.18c-.16.08-.33.17-.43.3,0,.01-.02.02-.02.03-.69,1.01-1.37,2.02-2.06,3.03l-.29.43c-2.58,3.79-5.26,7.71-7.8,11.7-3.1,4.86-4.54,10.44-4.28,16.56.04.91.11,1.84.16,2.67l.08,1.2-.15.04-.58-1.32c-2.88-6.57-5.85-13.37-9.76-19.52l-.03-.05.04-.04c.23-.22.45-.44.66-.64l.04-.04c.47-.46.92-.89,1.33-1.34,4.12-4.48,6.46-8.45,7.57-12.86.92-3.65,1.01-7.53.28-11.86-.55-3.28-1.29-6.56-1.99-9.73l-.1-.43c-.2-.9-.41-1.83-.61-2.75-.06-.25-.21-.47-.38-.71h0c-.05-.08-.1-.16-.15-.23l-.02-.04-.04.03c-.08.06-.16.11-.24.16-.24.16-.48.32-.61.53l-.42.67c-1.42,2.26-2.9,4.6-4.25,6.95-1.9,3.29-3.24,6.43-4.08,9.6-1.82,6.8-1.53,13.05.88,19.1l-.13.07c-.39-.55-.76-1.11-1.1-1.59-.77-1.14-1.5-2.22-2.32-3.23-2.39-2.94-4.86-5.84-7.25-8.65l-.65-.76c-.41-.48-.42-.79-.06-1.28.88-1.22,1.74-2.5,2.54-3.78,2.96-4.72,4.15-8.96,3.76-13.35-.45-5.02-1.67-9.97-2.85-14.75l-.48-1.94c-.07-.26-.19-.45-.35-.53-.12-.06-.27-.05-.42.02-.13.06-.25.17-.37.31-.01.02-.03.04-.04.06-.26.33-.49.69-.71,1.04-.11.17-.23.36-.36.55-4,5.94-5.89,12.45-5.64,19.35.16,4.31,1.02,8.12,2.64,11.64l.1.21-.2-.12c-.34-.21-.66-.41-.87-.7-2.8-3.72-6.25-6.65-9.25-9.03-5.03-3.99-10.36-6.02-16.28-6.19-1.19-.03-2.39,0-3.55.03-.53.01-1.08.03-1.59.03l-.15.07v.03c0,.1,0,.2,0,.31-.01.26-.02.53.09.66.71.84,1.41,1.69,2.11,2.53,2.36,2.84,4.8,5.78,7.35,8.56,3.33,3.64,7.9,5.45,13.58,5.4,1.9-.02,3.93-.17,6.22-.48,1.83-.24,3.15.29,4.16,1.69.54.75,1.13,1.55,1.78,2.44l.06.07c1.28,1.76,2.61,3.57,3.86,5.4.81,1.19,1.53,2.41,2.28,3.7l.08.14c.3.52.62,1.05.94,1.58l.06.1h-.12c-.05.01-.1.02-.14.02h-.01c-.1.02-.16.03-.21-.01-4.17-3.08-9.24-5.14-15.96-6.48-.62-.12-1.04-.35-1.2-1.09-.18-.88-1.13-1.55-2.16-1.51-.29,0-.57.08-.82.2-.5.24-.87.68-.99,1.21-.21.88.24,1.9,1.05,2.36.6.35,1.54.39,2.14.1.17-.08.31-.19.41-.32.01-.02.03-.04.04-.06.14-.18.29-.31.45-.39.34-.16.71-.08,1.05.02,6.93,2.02,13.1,5.48,18.34,10.29,1.05.96,1.62,2.2,2.18,3.4l.03.06c.19.42.39.85.61,1.26.75,1.4,1.43,2.92,2.08,4.62l-.13.09-.14-.13c-.11-.1-.24-.22-.36-.34-5.66-5.66-11-9.23-16.81-11.21-5.67-1.94-11.48-2.83-17.26-2.64h-.18c-.31,0-.6.02-.84.13-.2.1-.35.27-.45.52v.02s.4.85.4.85h0c.43.48.85.95,1.28,1.43l.06.07c.91,1,1.85,2.04,2.75,3.09,2.47,2.89,5.54,6.49,9.36,9.02,4.7,3.11,9.66,4.46,14.72,4.03,2.05-.17,4.05-.58,6.18-1.01h.03c.95-.2,1.93-.4,2.93-.58h.06s6.6,15.43,6.6,15.43l-.34.16-.03-.03c-4.48-3.64-8.92-5.95-13.56-7.07h-.05s0-.06,0-.06c-.21-1.48-.65-2.05-1.7-2.2-.47-.07-.83-.03-1.12.11-.27.13-.48.36-.63.69-.31.7-.05,1.73.56,2.26.57.5,1.13.53,2,.11.22-.11.47-.24.75-.42l.03-.02.55.29c.41.22.78.41,1.16.6,4.99,2.39,9.09,5.33,12.52,8.98,1.26,1.34,2.1,2.59,2.63,3.93.59,1.47,1.22,2.96,1.82,4.41l.07.18c.38.92.78,1.86,1.16,2.8.13.32.24.65.38,1.08.06.2.13.41.21.64l-.13.08-3.11-3.56c-4.51-5.18-9.1-9.17-14.03-12.22-4.39-2.71-9.23-4.09-13.81-5.28-.18-.05-.38-.1-.63-.17-.4-.12-.85-.25-1.3-.32-.28-.04-.51-.03-.68.05-.32.15-.38.53-.17,1.02.27.64.54,1.16.83,1.59.82,1.21,1.64,2.43,2.45,3.64,2.46,3.66,5.01,7.45,7.61,11.12,2.35,3.33,4.95,5.57,7.94,6.84,4.06,1.73,8.32,2.16,11.96,2.34Zm-18.4-30.1c.21.12.33.29.34.45.03.51-.21,1.22-.65,1.52-.22.11-.57.01-1-.1-.23-.07-.49-.13-.75-.18l-.09-.02.03-.08c.1-.25.18-.47.25-.68h0c.11-.35.21-.63.37-.82.03-.04.06-.08.1-.11.04-.04.1-.07.15-.1h0c.37-.18.91-.07,1.23.12Zm14.59,9.27c.54.42.93,1.06,1.29,1.68.18.3.34.57.52.82l.02.11-.26.02-8.61-7.2.08-.13c.21.05.39.12.52.22.57.39,1.14.77,1.58,1.07,1.62,1.08,3.29,2.2,4.85,3.41ZM24.52,41.9c.16.33.19.69.08,1.02-.11.31-.34.57-.66.73h-.02c-.85.41-1.81.09-2.19-.71-.38-.82-.16-1.5.6-1.86l.05-.03c.8-.36,1.72,0,2.14.85Zm9.65,3.93l.07-.13.5.21c.4.17.86.36,1.3.56l.44.2c.54.24,1.1.48,1.62.79.72.43,1.45.88,2.15,1.33.61.38,1.24.78,1.87,1.16.97.58,1.71,1.5,2.07,2.57l.07.2-10.1-6.88Zm25.94,32.64c.23-1.65.83-2.92,1.88-3.99,1.48-1.5,3.22-2.75,5.06-3.63.52-.25,1.05-.47,1.59-.66l.23-.08-.15.19c-.13.17-.26.33-.38.49-2.6,3.3-5.19,5.77-8.12,7.75l-.13.09.02-.16Zm4.16-6.61l-.16.11c-.65.45-1.25.97-1.88,1.52-.28.24-.57.5-.87.75l-.18.15.06-.22c.13-.46.24-.92.36-1.39h0c.26-1.08.51-2.1.97-3.02.52-1.02,1.53-1.86,2.44-2.58.91-.71,1.91-1.33,2.97-1.84.12-.06.24-.11.36-.17.8-.36,1.66-.6,2.57-.86h.05c.42-.13.85-.26,1.3-.4l.15-.05-.33.79c-.18.43-.32.77-.48,1.1-.82,1.73-1.71,3.35-3.47,4.2-.3.15-.63.27-.98.36-.3.08-.6.2-.93.35-.68.33-1.32.77-1.95,1.19Zm-.44-4.34c-.12.11-.24.21-.4.35l-.45.39.06-.22c1.77-7.08,3.32-9.76,9.54-12.75.32-.15.66-.31,1.03-.48l.09-.04v.1c.12,2.07-.01,4.05-.42,6.06l-.02.1c-.35,1.54-.48,2.11-1.22,2.47-.37.18-.91.31-1.72.5-.94.23-1.86.56-2.74.98-1.3.62-2.56,1.48-3.74,2.54Zm2-7.92l.03-.23c.63-4.69,3.12-8.68,7.22-11.52l.1-.07.12,1.45c.13,1.5.25,2.93.35,4.36.02.24-.24.57-.47.68,0,0-.35.16-.52.24-2.71,1.3-4.9,2.91-6.68,4.91l-.16.17Zm1.54-12.06c.63,3.87-.6,7.24-1.91,10.37l-.1.24-.04-.26c-.06-.45-.12-.91-.16-1.35v-.02c-.12-1.04-.23-2.02-.5-2.97-.34-1.17-.15-2.1.61-3.1.47-.62.89-1.27,1.34-1.95l.03-.05c.19-.3.4-.61.61-.93l.1-.15.03.18Zm-3.45,5.26c1.43,2.5.92,8.5-1.17,13.66l-.1.25-.03-.27c-.08-.67-.15-1.37-.2-2-.14-1.56-.28-3.16-.72-4.67-.48-1.65-.25-3.03.77-4.63.32-.51.62-1.05.91-1.57.11-.2.39-.7.49-.87l.06.11Zm-3.14,20.43l-.09.23-.04-.25c-.09-.53-.16-1.07-.24-1.65v-.05c-.18-1.35-.36-2.75-.86-4.02-.94-2.39-.2-4.46.51-6.46.27-.76.56-1.55.74-2.35h.15c1.54,5.58,1.48,10.34-.17,14.55Zm-1.35,4.49h-.15c-.6-3.78-.74-7.2-.42-10.46l.15-.02c1.07,2.99,1.2,6.23.42,10.48Zm9.51-27.16l3.6-8.84.15.02.09,1.21c.1,1.39.19,2.71.27,4.02.01.17-.13.38-.27.5-.91.75-1.83,1.47-2.76,2.22l-1.08.86Zm-.77-.03l-.15-1.11c-.12-.83-.21-1.52-.29-2.23-.02-.16,0-.41.11-.58.94-1.36,1.88-2.69,2.91-4.17l.81-1.15.31.19-3.7,9.04Zm-.03,48.61c-1.65-4.32-1.9-9.1-.77-14.59l.15.02c-.36,4.68-.1,9.57.77,14.53l-.14.04Zm-8.56-18.51c.7,1.77,1.42,3.6,2.19,5.37,2.7,6.16,5.77,13.15,8.92,19.88,1.23,2.63,2.72,5.19,4.16,7.66l.58,1c2.87,4.93,6.18,8.89,10.11,12.1l.04.03-.02.05c-.23.52-.43.9-.7,1.03-.29.14-.61.01-1.12-.44-1.56-1.37-2.94-2.63-4.03-4.13-2.23-3.08-4.47-6.41-6.82-10.16-3.42-5.46-6.57-11.47-9.37-17.86-1.08-2.47-2.06-5.02-3-7.48-.49-1.29-1-2.61-1.52-3.91l-.58-1.45c-.98-2.48-2.1-5.28-3.24-7.98l-.23-.53c-1.65-3.89-3.36-7.92-5.19-11.85-1.78-3.8-3.72-7.51-5.41-10.7-.89-1.68-1.87-3.35-2.81-4.96v-.02c-.45-.75-.9-1.52-1.34-2.28-.06-.11-.12-.22-.17-.34l-.1-.21.27-.17.04.05c.41.58.82,1.17,1.23,1.75l.24.35c1.01,1.43,2.16,3.06,3.21,4.65,3.45,5.23,6.23,10.3,8.48,15.5,1.34,3.1,2.67,6.35,3.83,9.23l1.04,2.55c.42,1.04.83,2.07,1.28,3.22v.04Zm-11.51-36.16c.06-.59.61-1.19,1.02-1.6,2.04-2.01,4.32-3.6,6.97-4.87.14-.07.53-.25.69-.32l-.03.14c-1.43,6.31-5.45,10.94-9.11,14.78l-.14.14v-.2c.06-.67.1-1.32.14-1.97l.02-.36c.13-1.99.24-3.87.44-5.75Zm-.04-1.15l.25-2.1v-.07c.24-1.95.46-3.8.69-5.64.04-.31.27-.6.46-.84,1.32-1.67,2.99-3.04,5.11-4.17.53-.29,1.04-.6,1.63-.96l.11-.07c.25-.15.51-.31.79-.48l.1-.06v.12c.2,2.85.24,5.24-.21,7.61-.04.22-.22.52-.44.63h0c-.28.13-.57.26-.86.4-2.8,1.34-5.25,3.14-7.48,5.49l-.15.16Zm7.74-14.07c-2.22,1.29-4.52,2.62-6.27,4.64l-.03.04-.34-.12v-.06c.12-.63.23-1.25.34-1.95v-.02c.26-1.56.52-3.18.94-4.73.28-1.01,1.08-1.95,1.83-2.73.71-.74,1.52-1.4,2.3-2.05.33-.28.68-.56,1.01-.85l.03-.02.4.12.25,1.49v.04c.29,1.63.57,3.32.81,4.99.04.29-.4.7-.66.85l-.62.36Zm-7.14-6.26c1.31,2.83.75,5.48.21,8.04h0c-.21,1.01-.43,2.04-.52,3.06h-.15c-.07-.26-.14-.53-.21-.78-.16-.62-.32-1.26-.54-1.86-.2-.55-.47-1.11-.71-1.6-.16-.32-.32-.66-.46-.99-.07-.17-.08-.42,0-.59.53-1.26,1.08-2.53,1.66-3.88l.66-1.53.07.14Zm-2.69,6.25c2.73,4.72,2.21,9.53,1.45,13.19l-.04.2-.09-.19c-.17-.36-.33-.74-.5-1.14h0c-.39-.96-.8-1.93-1.43-2.74-1.24-1.59-.91-3.16-.57-4.81.21-1.01.45-2,.71-3.05v-.03c.1-.38.32-1.28.39-1.58l.09.16Zm-.87,10.11c.69,1.44,1.41,2.94,2.12,4.45.13.28.14.6.13.77-.07,1.48-.16,2.92-.24,4.45l-.12,2.16-.12-.19c-1.83-2.95-2.96-8.73-2.52-12.89l.03-.25.72,1.51Zm5.69-14.52l3.22-10.24.39.09.29,1.34c.33,1.51.63,2.87.9,4.24.05.27-.09.68-.29.85-1.02.87-2.06,1.71-3.15,2.61l-1.36,1.11Zm.99-7.35l.65-1.12.24.16-2.64,9-.32-.87c-.24-.66-.47-1.3-.69-1.95-.05-.15-.06-.37.02-.51.91-1.57,1.84-3.17,2.74-4.72Zm-10.82,40.16c.14.26.32.59.52.86.73,1,1.48,2,2.15,2.88l1.01,1.34-.21-.07c-5.84-1.83-9.61-5.06-11.54-9.86v-.03s.22-.36.22-.36l.06.03c.63.34,1.27.69,1.89,1.02,1.6.86,3.25,1.74,4.8,2.73.49.31.8.89,1.11,1.44Zm-3.92,9.09c2.62-1.26,9.07-3.85,12.51-.82l.1.09-.14.03c-3.9.92-8.31,1.97-12.88,1.04l-.2-.04c.17-.09.51-.25.61-.3Zm-3.91-12.4c.44,1.07,1.15,2,1.91,3,.33.43.66.87.98,1.33l.14.21-.23-.11c-.61-.28-1.23-.55-1.82-.8-1.47-.65-3-1.31-4.43-2.08-.67-.36-1.16-1.07-1.63-1.77l-.19-.28c-.44-.63-.81-1.28-1.25-2.04l-.02-.03c-.24-.43-.44-.77-.63-1.1l-.08-.14.64.12c.24.05.43.08.62.13.29.07.57.15.81.22h.04c.47.14.96.27,1.44.37,1.86.36,3,1.28,3.7,2.97Zm-7.53-3.62c.6,1.1,1.21,2.22,1.79,3.3l.6,1.11-.19-.08c-.54-.23-1.09-.44-1.63-.66l-.04-.02c-1.33-.52-2.7-1.06-3.95-1.78-.59-.34-.97-1.03-1.35-1.69l-.02-.03c-.16-.28-.32-.58-.51-.84l-.03-.04.25-.39,1.06.17c1.16.18,2.36.38,3.54.58.19.03.38.21.46.36Zm-5.64-.72c.24.46.47.94.65,1.32l.26.55-6.5-2.05.05-.38,1.18.02c1.18.02,2.52.05,3.84.1.21,0,.43.25.52.43Zm6.28,5h.02c.45.19.92.39,1.38.58l.2.09-7.29,1.59-2.93-3.36.65-.19c1.64-.5,3.2-.96,4.9-.09,1,.51,2.06.95,3.08,1.37Zm4.79,2.18c1.4.6,2.83,1.26,3.98,1.79l1.73.79-.2.05c-.54.13-1.05.25-1.68.4-1.3.3-2.64.61-3.95.99-.78.22-1.54.53-2.28.83-.44.18-.9.36-1.35.52-.46.16-.79.19-.93.07-1.44-1.21-2.91-2.49-4.21-3.62l-1.31-1.14.12-.04c2.91-.97,5.21-1.54,7.65-1.42.73.04,1.46.36,2.16.66l.27.12Zm-3.89,5.87c.42-.17.83-.34,1.19-.5.83-.35,1.61-.69,2.43-.92,1.32-.36,2.67-.64,3.98-.92.5-.1,1.02-.21,1.53-.32.9-.2,1.76-.07,2.69.39,1.53.76,3.11,1.49,4.5,2.12.49.22,1.57.72,1.92.89l-.2.05c-.49.11-1,.22-1.53.33-1.21.25-2.46.52-3.68.89-.82.25-1.62.63-2.4,1l-.04.02c-.39.18-.78.37-1.18.54l-.08.04c-.27.12-.57.25-.83.19-3-.65-5.73-1.85-8.32-3.68l-.11-.08.12-.05Zm-9.82-9.56l-2.37-2.65-.03-.05.12-.26,5.38,2.03-3.09.93Zm33.06,12.11c-4.41-1.25-6.89-4.78-8.86-8.01l.11-.11c3.68,2.62,6.57,5.24,8.82,8l.14.18-.22-.06Zm-15.68,17.83l-3.17-4.64.11-.11,5.94,3.64-2.87,1.11Zm16.9,17.52c2.82-1.23,5.62-2.32,8.73-2.02.28.03.56.07.74.22,1.06.84,2.13,1.7,3.22,2.59l1.2.98h-.22c-.79-.05-1.55-.08-2.2-.1-3.76-.15-7.65-.3-11.47-1.52l-.18-.06.17-.08Zm.92-9.96l.04,1.11-1.64-1.12c-1.48-1-3.15-2.14-4.73-3.27-.3-.22-.44-.68-.57-1.09l-.03-.09c-.29-.95-.57-1.93-.83-2.87l-.34-1.2.41-.34,1.95,1.4c1.74,1.25,3.55,2.54,5.32,3.82.15.11.28.33.29.51.05,1.05.09,2.12.13,3.15Zm-8.58-8.63c.26,1.04.51,2.06.77,3.13l.34,1.38-.36-.23-.06-.03c-.15-.09-.3-.19-.45-.3-.5-.35-1.01-.72-1.5-1.07-1.12-.8-2.27-1.63-3.46-2.4-.82-.53-1.26-1.16-1.4-2.04-.04-.23-.1-.46-.15-.69l-.09-.38v-.05s.22-.33.22-.33l1.49.61c1.42.58,2.89,1.19,4.32,1.8.14.06.25.25.33.58Zm-6.87-2.63c.1.35.18.7.28,1.11l.19.81-5.71-3.48.12-.31,1.26.34c1.15.31,2.33.64,3.49.97.23.07.36.5.37.54Zm6.33,6.72l1.66,1.18-6.12,2.09-4.02-5.95.89-.28h.03c.7-.23,1.35-.43,2.02-.61.24-.06.55.04.74.18,1.61,1.13,3.22,2.27,4.79,3.38Zm2.09,1.95c.28,0,.6,0,.81.15,1.63,1.08,3.24,2.18,4.95,3.34l2.16,1.47h-.21c-2.29.16-4.37.7-6.36,1.65-.92.44-1.81.96-2.73,1.6l-.06.04-4.71-6.16.48-.25c.49-.25.95-.49,1.42-.72,1.17-.56,2.58-1.13,4.25-1.12Zm-.74,8.7l-.04-.03.02-.05s.03-.06.04-.09v-.02c.04-.08.07-.15.14-.19.89-.49,1.57-.85,2.23-1.16,1.99-.95,3.7-1.48,5.4-1.67,1.07-.12,1.81.07,2.49.63,1.08.89,2.23,1.74,3.33,2.57.49.36.98.73,1.48,1.12l.15.12h-.19c-3.13.19-5.43.71-7.46,1.68-.22.1-.43.21-.63.32-.05.03-.1.05-.15.08-.64.31-1.23.31-1.96,0-1.77-.73-3.36-1.81-4.86-3.3Zm20.91,4.94l-.04-.04c-.46-.36-.93-.72-1.38-1.06l-.03-.02c-1.11-.85-2.27-1.72-3.26-2.72-.45-.45-.62-1.17-.8-1.86h0c-.08-.32-.15-.63-.25-.92l-.02-.06.48-.25,5.65,6.66-.34.27Zm-6.05-6.84c.08.46.12.94.15,1.4v.03c.02.21.03.43.06.66v.16s-.11-.1-.11-.1c-.57-.43-1.14-.84-1.62-1.19l-.08-.05c-1.38-1.01-2.81-2.06-4.14-3.17-.51-.42-.69-1.3-.83-2-.12-.59-.16-1.2-.2-1.85v-.02c-.02-.28-.04-.6-.06-.94v-.15s.11.08.11.08c.12.08.22.14.31.19.18.11.31.19.41.29l.87.83c1.44,1.39,3.08,2.96,4.62,4.51.3.31.42.84.51,1.31Zm15.14,10.71v.71s-.05.08-.05.08l-.36.04-.72-6.97.15-.05c1.07,1.99,1.03,4.12.98,6.19Zm1.13-6.8c.25-1.47.5-3,.78-4.49.05-.28.21-.59.48-.95.08-.1.16-.21.24-.31,1.67-2.12,3.79-4.11,6.47-6.09.03-.03.07-.05.13-.08l.48-.22v.11c.04.4.07.79.11,1.12.08.8.15,1.56.13,2.33-.04,1.51-.19,3.04-.35,4.52v.12c-.04.28-.29.63-.54.75h0c-.39.17-.78.36-1.17.55-2.51,1.2-4.76,2.58-6.89,4.22l-.14.11.29-1.68Zm7.89-12.44c-2.41,1.69-4.58,3.69-6.44,5.96l-.12.14v-.18c-.26-4.71,2.21-10.13,5.5-12.09l.08-.05.37,1.38c.34,1.26.69,2.57,1,3.85.07.29-.15.81-.39.99Zm-7.05-4.7c.85,2.3.97,4.19.4,6.12-.36,1.23-.58,2.51-.81,3.86v.03c-.12.68-.22,1.3-.35,1.96l-.04.21-.09-.19c-.95-1.94-1.62-3.57-.96-5.52.47-1.39.82-2.83,1.19-4.34l.02-.09c.16-.65.33-1.33.5-2.02l.06-.22.08.21Zm-2.25,9.93s.06.08.09.12c1.36,2.19,1.06,4.52.59,6.91-.08.39-.11.8-.16,1.22v.06c-.02.18-.04.37-.06.56l-.15.02c-1.06-3.35-1.23-6.75-.45-8.9l.05-.11.09.12Zm1.04,13.86v-.03c.01-.57.02-1.16-.05-1.73-.19-1.61.47-2.86,1.99-3.84,1.4-.9,2.86-1.75,4.26-2.57.61-.36,1.21-.71,1.82-1.07l.04-.03.47.42-.02.05c-.26.55-.52,1.09-.79,1.69-.6,1.29-1.23,2.63-1.91,3.92-.5.94-1.1,1.84-1.68,2.72v.02c-.24.33-.47.69-.7,1.05-1.07,1.66-2.17,3.38-2.72,5.43h-.15c-.06-.46-.12-.9-.17-1.32v-.08c-.14-1-.28-2.05-.37-3.07-.04-.51-.03-1.04-.02-1.55Zm3.67-22.85l1.54-8.89h.15s.33,1.11.33,1.11c.39,1.33.83,2.84,1.25,4.34.05.17-.05.42-.17.58-.02.02-.04.04-.06.06-.71.67-1.45,1.34-2.16,1.99l-.89.81Zm-1.09,1.31l-.1-.15c-.77-1.17-1.04-3.01-.61-4.11.53-1.33,1.06-2.66,1.61-4.02l.67-1.66.35.05-1.93,9.88Zm-8.87-8.3l.03-.02c.27-.13.6-.14.93-.03.38.14.7.42.87.79.36.76.13,1.86-.46,2.16-.24.12-.57.1-.94-.04-.49-.18-.91-.55-1.07-.92-.27-.63.07-1.65.64-1.95ZM34.47,10.12l-.15.02c-.1-.28-.21-.56-.3-.82l-.1-.27c-.31-.83-.58-1.55-.81-2.31-.09-.3.05-.72.21-1.01.5-.91,1.04-1.82,1.56-2.7l.65-1.1.15.05-1.2,8.15Zm-.83,13.89c.07-1.25.15-2.55.27-3.85.03-.36.25-.8.55-1.11,1.11-1.14,2.26-2.28,3.38-3.38l1.23-1.21.53.22.05,1.29c.05,1.34.11,2.72.13,4.08,0,.26-.25.56-.47.74-1.36,1.12-2.76,2.25-4.12,3.35l-1.64,1.33.09-1.44Zm.46-5.73l.02-.17c.06-.58.11-1.17.16-1.73.12-1.44.24-2.93.6-4.36.19-.77.85-1.42,1.49-2.05l.02-.02c.19-.19.39-.39.57-.58.21-.23.5-.37.83-.54.15-.07.33-.17.52-.27l.09-.05.24,1.3.02.11c.24,1.28.46,2.49.65,3.73.04.25-.2.59-.37.74-1.2.99-2.41,1.95-3.58,2.89l-1.25,1Zm.93-8.03l1.24-8.64h.47s.32,1.36.32,1.36c.35,1.53.72,3.1,1.05,4.66.05.24-.1.63-.28.76-.62.45-1.26.86-1.94,1.3l-.86.56Zm-2.29-3.14c1.55,3.21,1.76,6.91.64,10.99l-.05.18-.63-1.31-.02-.03c-.65-1.36-1.27-2.64-1.88-3.94-.08-.17-.1-.42-.04-.59.44-1.3.89-2.59,1.4-4.02l.5-1.43.07.16Zm-2.28,6.65c3.18,4.05,2.96,8.58,2.41,12.07l-.03.23-.48-1c-.35-.73-.72-1.51-1.1-2.27-.11-.22-.25-.44-.38-.65-.17-.28-.37-.59-.5-.92l-.08-.2c-.25-.64-.52-1.3-.49-1.95.05-1.23.2-2.43.35-3.7.06-.49.12-1.02.18-1.56l.02-.17.11.14Zm3.04,18.11c0-1.65,0-3.36.04-5.05,0-.27.23-.58.44-.78,1.4-1.31,2.94-2.73,4.86-4.47.05-.05.12-.09.21-.13h0c.06-.03.12-.06.19-.08.07-.03.14-.06.2-.09l.1-.05v.11c.07,2.92-2.68,8.12-5.43,11.6-.16.2-.32.4-.48.6l-.13.15v-1.81Zm-.48,2.2l-.13-.23c-1.91-3.54-2.88-7.38-3.13-12.43v-.24s.13.2.13.2c2.99,4.18,3.26,8.64,3.14,12.44v.26Zm-11.66-9.99c.62.53,1.03,1.31,1.42,2.07l.02.04c.2.38.41.78.65,1.14.23.35.48.7.71,1.04l.02.03c.32.45.68.95,1,1.48l-.11.11c-.77-.51-1.62-.9-2.44-1.28-1.47-.68-2.99-1.37-4.04-2.74-.89-1.15-1.65-2.42-2.39-3.65l-.02-.03c-.32-.53-.65-1.09-.99-1.62l-.03-.05.5-.49.05.03c.51.35,1.04.69,1.56,1.03l.13.09c1.34.87,2.72,1.76,3.96,2.81Zm-6.63-3.85c.75,1.44,1.48,2.88,2.18,4.27l.81,1.6-.2-.1c-.54-.28-1.08-.56-1.61-.83-1.39-.71-2.82-1.45-4.21-2.29-.64-.39-1.08-1.1-1.5-1.79l-.16-.26c-.31-.49-.55-1.03-.81-1.61v-.02c-.12-.25-.24-.52-.37-.79l-.05-.1h.11c.1,0,.19-.02.27-.03h.02c.17-.02.31-.04.49.01l.08.02c1.37.38,2.79.78,4.17,1.23.3.1.63.38.78.68Zm-6.29-1.9c.42.85.83,1.72,1.23,2.55l.55,1.16L1.8,17.91l-.04-.33,1.15.08c1.69.11,3.44.23,5.16.36.15.01.32.19.38.32Zm7.67,7.52l.13.07c.38.2,1.25.65,1.56.81l-6.74,1.04h-.16s-.01,0-.01,0c-.12.08-.24.15-.35.21-1.14.55-1.86-.34-2.43-1.05-.55-.67-1.13-1.34-1.74-2.04l-.03-.04c-.25-.28-.82-.95-.99-1.14l.12-.02c2.6-.46,5.05-.89,7.44.44,1.08.6,2.16,1.17,3.22,1.71Zm-1.04,1.7c2.62-.43,4.89.02,6.93,1.37.83.54,1.72,1.01,2.5,1.41l.03.02c.33.17.64.33.92.49l.2.11-1.96.22c-1.58.17-3.36.37-5.14.59-.56.07-1.01.19-1.37.36-.08.04-.15.08-.22.12-.09.06-.19.11-.28.15-.78.37-1.55.29-2.35-.26-1.06-.72-2.12-1.46-3.16-2.19l-1.34-.94.14-.51,1.74-.33c1.1-.21,2.24-.42,3.36-.61Zm1.57,5.31c4.26-1.49,10.33-2.2,13.45.67l.12.11h-.16c-7.52.62-10.78.46-13.41-.65l-.17-.07.17-.06Zm6.23-7.15l-.03-.05.37-.37,7.2,7.16-.37.37-.04-.02c-3.29-1.47-5.25-4.19-7.13-7.08Zm-14.02-2.89c-1.12.16-2.27.33-3.42.47-.22.03-.54-.16-.69-.34-1.34-1.62-2.45-3.01-3.48-4.59l-.14-.22,9.13,4.47-1.38.2Z"/>
  </g>
</svg>