<?xml version="1.0" encoding="UTF-8"?>
<svg id="Layer_2" data-name="Layer 2" xmlns="http://www.w3.org/2000/svg" viewBox="0 0 145.42 153.39">
  <defs>
    <style>
      .cls-1 {
        fill: #c7a48b;
      }
    </style>
  </defs>
  <g id="BANNER_1" data-name="BANNER 1">
    <path class="cls-1" d="m9.44,85.77c.1.08.2.16.3.24.3.25.59.48.92.58l1,.27h.03c3.44.94,7,1.91,10.53,2.72,4.95,1.14,9.49,1.62,13.86,1.46,9.4-.34,17.26-3.16,24.05-8.6l.14.14c-.56.72-1.12,1.41-1.61,2.02-1.15,1.43-2.24,2.79-3.21,4.23-2.82,4.18-5.56,8.48-8.21,12.65l-.71,1.12c-.45.7-.84.85-1.61.58-1.91-.65-3.87-1.24-5.83-1.76-7.19-1.93-13.08-1.79-18.52.42-6.24,2.53-12.08,6.03-17.73,9.42l-2.29,1.37c-.31.19-.5.42-.53.66-.03.18.04.36.18.52.13.14.31.26.55.35.54.22,1.12.38,1.68.53h.05c.27.09.54.16.81.24,9.15,2.78,18.21,2.65,26.93-.38,5.45-1.89,9.98-4.49,13.84-7.92l.23-.21-.08.3c-.13.51-.27,1-.56,1.39-3.66,5.04-6.05,10.58-7.92,15.35-3.13,7.99-3.63,15.59-1.54,23.22.42,1.53.93,3.05,1.43,4.53.23.68.46,1.38.66,2.02l.14.16h.03c.13-.06.26-.09.4-.13.33-.09.68-.18.8-.37.8-1.23,1.6-2.46,2.41-3.69,2.71-4.13,5.51-8.41,8.06-12.74,3.34-5.68,3.87-12.23,1.58-19.46-.77-2.42-1.76-4.96-3.05-7.76-1.03-2.24-.86-4.14.53-5.98.8-1.05,1.61-2.13,2.39-3.18l.13-.18c1.74-2.32,3.53-4.72,5.37-7.03,1.2-1.5,2.47-2.89,3.83-4.36.54-.59,1.18-1.28,1.8-1.98l.1-.12.06.15c.03.07.05.13.08.19.06.12.09.19.06.27-2.31,6.54-2.95,13.83-2.02,22.92.09.84-.04,1.47-.92,1.95-1.06.58-1.53,2.05-1.08,3.35.13.37.32.69.57.97.51.55,1.21.84,1.93.79,1.21-.07,2.33-1.05,2.61-2.27.21-.9-.1-2.11-.71-2.77-.18-.2-.37-.33-.59-.41-.32-.11-.56-.27-.74-.45-.34-.38-.38-.87-.39-1.35-.14-9.64,1.86-18.88,5.96-27.45.82-1.72,2.18-2.94,3.49-4.12.51-.46.98-.88,1.42-1.33,1.5-1.5,3.17-2.96,5.09-4.46l.16.13-.11.23c-.1.22-.2.41-.29.59-5.02,9.45-7.48,17.66-7.75,25.86-.26,8.01.88,15.77,3.39,23.08l.07.22c.12.38.25.76.49,1.02.2.22.49.35.84.37h.02s.93-.84.93-.84h0c.33-.56.65-1.11.98-1.66l.33-.55c.89-1.51,1.9-3.21,2.93-4.83,2.72-4.28,6.12-9.6,7.85-15.49,2.13-7.22,1.92-14.08-.61-20.38-1.02-2.54-2.32-4.94-3.7-7.47l-.05-.09c-.61-1.13-1.24-2.29-1.86-3.48l-.03-.07,17.14-14.47.33.37-.02.05c-2.89,7.15-4.11,13.73-3.72,20.09v.07s-.05.03-.05.03c-1.81.84-2.37,1.64-2.14,3.04.1.62.29,1.08.58,1.39.27.3.64.47,1.13.53,1.01.12,2.23-.62,2.67-1.6.41-.93.23-1.65-.64-2.59-.22-.24-.49-.5-.83-.79l-.04-.04.15-.82c.12-.61.22-1.16.3-1.72,1.1-7.31,3.25-13.69,6.58-19.51,1.22-2.13,2.49-3.69,3.99-4.9,1.67-1.35,3.35-2.75,4.98-4.11l.73-.61c.82-.68,1.67-1.39,2.51-2.08.37-.3.76-.58,1.22-.9l.02-.02c.22-.16.46-.32.72-.51l.15.14-3.33,5.36c-4.84,7.78-8.15,15.21-10.12,22.71-1.74,6.67-1.61,13.39-1.33,19.7.01.29.02.59.02.87,0,.59.02,1.2.1,1.79.05.37.17.66.33.85.33.35.82.28,1.38-.18.7-.59,1.26-1.14,1.7-1.69.99-1.22,1.98-2.45,2.97-3.67l.85-1.05c3.67-4.53,7.47-9.22,11.09-13.91,3.33-4.31,5.17-8.5,5.63-12.82.62-5.86-.51-11.48-1.69-16.2-.55-2.17-.95-4.42-1.33-6.59l-.11-.62c-.07-.4.1-.97.38-1.28,1.19-1.28,2.42-2.57,3.61-3.81,2.03-2.13,4.13-4.32,6.1-6.58,2.73-3.11,6.28-7.25,9.53-11.66,1.82-2.47,3.16-5.28,4.23-7.71.49-1.11.52-1.69.12-2.12-.17-.19-.44-.36-.77-.53-.24-.12-.51-.24-.82-.36-.26-.11-.51-.25-.74-.39-.08-.05-.17-.1-.26-.15l-.05-.03-.12.22v.02c-.12.19-.23.38-.31.57-2.33,5.36-5.51,10.4-9.71,15.41-.45.53-1.27.99-2.04,1.13-3.7.67-7.42.38-11.08-.85-1.66-.56-3.37-1.14-5.13-1.39-.64-.09-1.28-.18-1.93-.28-2.88-.43-5.86-.87-8.77-.76-6.68.25-12.46,3.48-16.75,6.27-2.65,1.72-5.39,3.4-8.03,5.03l-.19.12c-1.78,1.09-3.38,2.08-5.01,3.1-.22.14-.38.38-.54.63l-.04.05c-.04.06-.07.11-.11.16l-.04.05.05.03c.07.05.14.1.22.15.24.17.47.33.71.35l.51.05c3.85.36,7.83.72,11.79.99,11.76.79,21.74-.64,30.5-4.36,2.67-1.13,5.23-2.48,7.71-3.79l.05-.03c1.04-.55,2.11-1.11,3.16-1.65l.13.16c-8.94,11.62-21.59,17.97-38.64,19.42h-.09s-.04-.39-.04-.39v-.04c-.01-.12-.02-.2-.03-.29-.11-.54-.35-1.02-.69-1.39-.42-.46-.99-.73-1.63-.77-1.51-.09-2.91.84-3.33,2.23-.28.93-.07,1.92.54,2.59.15.17.33.31.52.42.05.03.09.05.14.08,1,.5,2.57.41,3.37-.54.61-.72,1.25-.82,2.08-.74,5.78.56,11.38-.23,16.65-2.33l2.34-.94.22.4-16.18,13.21-.06-.04c-.95-.62-1.87-1.24-2.8-1.88h-.02c-1.89-1.3-3.68-2.51-5.56-3.57-.77-.44-1.54-.84-2.3-1.22-9.93-4.96-19.39-5.49-28.83-1.64-3.7,1.51-7.49,2.91-11.15,4.27-2.36.87-4.49,1.67-6.63,2.49-.27.1-.49.36-.72.63h-.01c-.07.1-.15.19-.23.28l-.04.04.04.04s.39.43.39.43c.18.19.38.38.6.45,1.79.55,3.57,1.1,5.35,1.65,5.87,1.82,11.95,3.7,18,5.38,7.42,2.06,15.11,1.72,22.83-1.02,1.1-.39,2.21-.82,3.29-1.23l1.56-.6.11.18-1.46,1.25h-.02c-7.27,6.26-14.78,12.72-21.1,20.11l-.05.06-.07-.04c-.34-.18-.66-.36-.97-.53l-.19-.11c-.64-.35-1.25-.69-1.87-1-.12-.06-.23-.11-.35-.17-7.34-3.51-13.32-4.94-19.39-4.64-5.02.25-10.02,1.65-15.26,4.28-3.93,1.97-7.82,4.18-11.58,6.31l-.07.04c-1.34.76-2.55,1.45-3.78,2.14-.3.17-.54.47-.76.76-.08.1-.16.2-.24.29l-.04.04.05.04Zm97.89-2.57l-4.69,5.87-.18-.09,2.33-9.01,2.54,3.23Zm6.52-37.55l-.04.03c-.35.21-.71.43-1.03.66l-.07.05-.51-.52,6.3-9.83.48.33-.03.07c-.26.66-.51,1.34-.75,1.99l-.07.19c-.65,1.77-1.32,3.6-2.22,5.28-.4.75-1.25,1.26-2.07,1.75Zm-6.66,9.95c1.21-2.38,2.57-5.09,3.96-7.67.27-.51.9-.87,1.47-1.16.53-.28,1.1-.5,1.71-.74h.02c.25-.11.55-.22.85-.35l.2-.08-.07.2c-.26.73-.52,1.46-.77,2.18l-.12.36c-.76,2.19-1.55,4.46-2.47,6.65-.34.81-1.39,1.39-2.23,1.85-.71.39-1.48.68-2.3.98-.36.13-.76.28-1.17.45l-.18.07.06-.19c.05-.18.09-.33.12-.47.06-.25.12-.46.21-.64l.73-1.43Zm-1.16,3.27c1.25-.46,2.53-.9,3.78-1.34l1.6-.56-.79,2.53h0c-.74,2.41-1.51,4.89-2.32,7.33-.16.47-.7.83-1.17,1.15l-.11.07c-1.12.76-2.27,1.5-3.38,2.22l-1.36.88-.6-.39.72-2.14c1.01-3,2.05-6.11,3.1-9.19.08-.24.32-.49.54-.57Zm-3.69,12.94c1.25-.75,2.47-1.48,3.77-2.26l1.56-.93-.15.55v.02c-.07.25-.14.5-.22.76-.22.68-.45,1.36-.68,2.02l-.1.31c-.59,1.75-1.2,3.55-1.71,5.36-.36,1.26-.99,2.06-2.06,2.59-.28.14-.56.31-.83.47l-.44.26-.06.02-.51-.16.17-1.78v-.07c.21-2.14.41-4.34.64-6.51.02-.2.23-.42.61-.66Zm-.66,9.81c.39-.26.8-.49,1.27-.76l1.01-.59-2.21,8.66-.44-.03-.05-1.75c-.05-1.59-.1-3.23-.12-4.84,0-.3.46-.62.55-.69Zm6.22-11.08l.74-2.23,5.07,7-6.03,7.46-.71-1.05c-.56-.81-1.08-1.57-1.57-2.36-.17-.28-.17-.72-.07-1.02.88-2.71,1.79-5.45,2.57-7.8Zm1.42-4.16c.77-2.58,1.57-5.16,2.41-7.88l.95-3.08.1.26c1.09,2.87,2.58,5.32,4.58,7.48.92,1,1.94,1.94,3.11,2.86l.07.06-6.03,8.43-.42-.43c-.56-.57-1.07-1.09-1.55-1.61-1.17-1.27-2.46-2.86-3.09-4.99-.11-.35-.23-.76-.13-1.09Zm11.5-1.3h-.07s-.09-.03-.14-.03h-.03c-.12-.01-.22-.02-.29-.09-.97-.94-1.7-1.67-2.36-2.39-1.99-2.16-3.34-4.14-4.24-6.24-.57-1.32-.62-2.34-.17-3.43.7-1.71,1.32-3.43,1.98-5.26l.06-.16c.26-.71.52-1.44.79-2.17l.09-.24.09.24c1.46,3.92,3.01,6.66,5.05,8.87.21.23.43.45.66.68.05.05.11.11.16.16.64.7.88,1.45.77,2.5-.24,2.55-1,5-2.3,7.5l-.03.06Zm2.26-10.33c-2.68-3.13-5.16-6.27-6-10.36-.07-.36-.13-.74-.01-1.03.62-1.61,1.28-3.25,1.92-4.83l.89-2.22.07.28c.24.93.48,1.84.74,2.85,1.28,4.86,2.61,9.88,2.55,15.25v.25s-.17-.19-.17-.19Zm-31.27,21.76c.62-.24,1.64-.21,2.19.23.23.24.24.72.26,1.32v.02c.01.31.02.65.06,1.01v.12s-.1-.01-.1-.01c-.35-.04-.66-.05-.94-.06h-.04c-.52-.02-.94-.03-1.28-.2-.03-.01-.05-.03-.08-.04-.07-.04-.13-.09-.19-.15-.37-.4-.45-1.13-.33-1.62.08-.32.24-.54.45-.62Zm-32.32,22.07l-.2-.04.08-.74c.06-.57.12-1.22.2-1.87l.08-.64c.09-.79.19-1.6.38-2.38.25-1.05.54-2.11.82-3.13l.04-.14c.25-.93.52-1.89.75-2.84.36-1.47,1.24-2.77,2.47-3.66l.23-.17-4.84,15.59Zm34.73-33c-.02-.29,0-.55.07-.75.25-.81.5-1.63.74-2.43.75-2.49,1.53-5.06,2.47-7.54.32-.86.99-1.59,1.63-2.3h.01c.29-.33.59-.65.85-.99l.13-.07.13.32-5.83,13.82-.2-.05Zm-.22-13.08c1.99-1.58,4.05-3.22,6-4.9l.13-.11c6.78-5.84,14.47-12.47,21.78-19.06,2.87-2.59,5.55-5.5,8.14-8.31l1.06-1.15c5.18-5.6,8.94-11.37,11.51-17.66l.03-.07h.07c.75.09,1.31.21,1.59.51.29.31.26.78-.12,1.6-1.14,2.53-2.2,4.78-3.7,6.76-3.08,4.08-6.45,8.23-10.31,12.69-5.64,6.51-12.08,12.89-19.15,18.96-2.72,2.34-5.6,4.59-8.38,6.77-1.49,1.16-2.94,2.3-4.4,3.48l-1.63,1.31c-2.94,2.36-5.98,4.79-8.92,7.26l-.59.5c-4.32,3.63-8.8,7.38-13.1,11.27-4.15,3.74-8.13,7.69-11.54,11.1-1.8,1.79-3.54,3.7-5.23,5.54l-.07.07c-.77.83-1.56,1.7-2.35,2.54-.11.12-.23.23-.36.34l-.23.21-.32-.28.06-.07c.72-.92,1.45-1.86,2.1-2.7h0c1.51-1.96,3.07-3.98,4.67-5.92,5.33-6.47,10.73-11.99,16.48-16.9,3.43-2.93,7.07-5.89,10.28-8.51l2.85-2.32c1.2-.98,2.43-1.95,3.62-2.9l.05-.04Zm-8.92,34.24c-2.63-2.85-8.47-10.08-5.94-15.66l.08-.17.1.16c2.71,4.62,5.78,9.85,6.37,16.05l.03.27c-.18-.19-.52-.55-.63-.66Zm-14.69,28.37c.49-.49,1.01-.97,1.43-1.35l.6-.55-.07,9.1-.5.09-.43-1.51-.03-.11c-.45-1.58-.92-3.22-1.35-4.84-.07-.27.16-.65.34-.83Zm.38-18.52c1.19-.99,2.11-2.26,3.08-3.61l.02-.03c.41-.58.84-1.17,1.29-1.73l.21-.27-.04.34c-.11.85-.21,1.7-.3,2.53v.1c-.26,2.13-.51,4.33-.94,6.48-.2,1-.92,1.9-1.62,2.78l-.28.36c-.66.83-1.38,1.61-2.15,2.43-.38.41-.76.81-1.15,1.24l-.14.16-.09-.88c-.04-.34-.06-.58-.08-.83-.02-.36-.03-.72-.04-1.07v-.12c-.02-.65-.04-1.32-.12-1.97-.27-2.52.46-4.34,2.34-5.89Zm-1.68,11.04c1.12-1.16,2.21-2.26,3.52-3.58l1.19-1.2-.03.27c-.08.78-.14,1.59-.2,2.37-.15,1.91-.3,3.88-.74,5.76-.2.88-.93,1.64-1.64,2.39-.31.33-.63.66-.9,1l-.04.05-.59-.16-.2-1.42c-.22-1.55-.44-3.16-.64-4.75-.03-.26.12-.57.27-.73Zm5.21-2.47v-.05c.06-.58.12-1.28.2-1.98l.03-.29,4.89,8.69-3.14,5.06-.5-.75c-1.28-1.91-2.48-3.71-2.03-6.22.26-1.47.41-2.99.55-4.45Zm.87-6.6l.05-.4c.22-2,.49-4.01.73-5.78l.33-2.52.14.24c.42.71.84,1.44,1.16,1.99.89,1.53,1.81,3.12,2.81,4.65.58.89,1.26,1.74,1.93,2.57l.06.07c.39.48.79.97,1.16,1.47.39.52.55.93.45,1.16-.92,2.19-1.89,4.36-2.92,6.66l-1,2.25-.1-.14c-2.37-3.34-4.01-6.04-4.81-9.22-.24-.95-.11-2,0-3.02Zm9.07,2.28c-.37-.46-.73-.89-1.11-1.33-.78-.92-1.52-1.79-2.12-2.75-.97-1.53-1.86-3.15-2.72-4.71v-.02c-.34-.6-.68-1.22-1.02-1.83-.6-1.08-.78-2.22-.55-3.59.36-2.19.66-4.39.94-6.52v-.07c.1-.71.32-2.29.39-2.8l.14.24c.34.59.68,1.21,1.01,1.8v.02c.81,1.44,1.64,2.94,2.58,4.35.64.96,1.44,1.83,2.22,2.68.41.45.81.89,1.19,1.34l.08.1c.25.3.54.63.57.99.35,4.09-.13,8.04-1.44,12.07l-.06.17-.11-.14Zm-7.26-22.23v.29c-.06,8.17-2.7,14.26-8.08,18.6l-.04.03-.55-.15.02-.09c.2-.94.38-1.89.57-2.82v-.06c.48-2.36.96-4.8,1.61-7.15.21-.74.81-1.37,1.41-1.98.3-.31.63-.65.9-1,.92-1.23,1.83-2.47,2.7-3.68l1.46-2Zm-1.11,38.51l-2.46,4.06-.05.06-.37-.05.49-7.67,2.4,3.59Zm2.52-46.98c.14,6.13-3.41,10.67-6.76,14.46l-.18-.1c1.9-5.72,4.12-10.43,6.77-14.4l.17-.25v.3Zm35.88-35.82c-4.88,3.8-10.88,5.99-18.34,6.7l-.03-.19c6.11-1.37,12.26-3.61,18.26-6.67l.11.17Zm-33.34,15.62l.21.17c.82.66,1.72,1.22,2.67,1.81l.07.04c.4.25.82.51,1.23.78l.26.17h-.31c-.65.02-1.29.06-1.91.09-1.48.09-2.87.17-4.24-.06-1.51-.26-2.98-1.23-4.24-2.11-1.27-.89-2.45-1.92-3.51-3.07-.12-.13-.24-.26-.35-.39-.78-.88-1.43-1.89-2.12-2.96v-.02c-.33-.49-.66-1.01-1.02-1.54l-.12-.17,1.14.11c.58.06,1.09.1,1.59.18,2.53.37,4.94.87,6.72,2.79.31.34.59.71.85,1.11.22.35.49.69.82,1.05.68.74,1.49,1.39,2.29,2.02Zm-5.37,2.26c.19.11.37.23.6.38l.67.42-.3.02c-9.74.51-13.77-.42-20.02-7.19-.32-.35-.65-.71-1.01-1.12l-.09-.1.13-.05c2.6-.96,5.19-1.56,7.91-1.83h.13c2.1-.16,2.89-.22,3.63.59.36.4.71.99,1.29,1.96l.02.04c.66,1.11,1.44,2.16,2.32,3.12,1.31,1.42,2.89,2.69,4.7,3.78Zm15.44.47c-2.14.34-3.95.1-5.68-.76-.05-.03-.1-.05-.15-.08-2.49-1.3-4.78-3.04-6.62-5.04-.52-.57-1.02-1.16-1.47-1.77l-.19-.26.3.11c5.6,2.1,10,4.52,13.85,7.63l.17.13-.21.03Zm-35.51-6.67c2.51,2.73,5.18,4.78,8.13,6.25.25.13.5.25.76.36l.28.13-.31.05c-6.24,1.03-12.31-.6-17.54-4.71l-.13-.1,1.81-.73c1.78-.72,3.61-1.46,5.44-2.15.3-.11.82.09,1.05.33,0,0,.34.38.51.57Zm-6.83,9.49c4.7-2.31,9.49-2.07,14-1.61l.34.04-.31.15c-.56.26-1.15.52-1.66.74h-.03c-1.28.57-2.5,1.09-3.61,1.82-1.36.89-2.62,1.02-4.2.43-.96-.36-1.94-.64-2.99-.94h-.03c-.48-.15-.98-.29-1.5-.44l-.23-.07.22-.11Zm8.07,2.35c2.63-2.81,10.49-4.5,17.9-3.85l.36.03-.33.15c-.81.37-1.65.71-2.47,1.04-1.93.79-3.93,1.6-5.69,2.75-1.92,1.25-3.78,1.5-6.22.83-.74-.2-1.48-.36-2.36-.55-.3-.06-1.04-.23-1.31-.29l.11-.12Zm27.32-3.99l.33.03-.3.15c-.66.34-1.38.66-2.08.98-1.66.75-3.37,1.52-4.81,2.66-2.69,2.14-5.62,2.01-8.45,1.88-1.08-.05-2.2-.1-3.29-.03l-.06-.2c6.52-4.15,12.62-5.94,18.66-5.48Zm6.27-.03l.06.2c-4.59,2.25-8.91,3.76-13.19,4.64l-.08-.19c3.4-2.53,7.48-3.97,13.22-4.64Zm-38.42-1.51l-12.7-1.14-.03-.2,1.39-.53c1.78-.69,3.47-1.34,5.16-1.97.21-.08.54.01.74.15,1.3.87,2.59,1.75,3.92,2.66l1.52,1.04Zm.26,1l-1.52.7c-.88.41-1.72.8-2.56,1.17-.2.09-.52.16-.78.08-2.19-.7-4.36-1.4-6.46-2.09l-1.79-.58.11-.47,13,1.19Zm-27.52,35.73c3.1-2.78,6.7-3.11,10.19-3.42,1.36-.12,2.76-.25,4.1-.53l.08.19c-.25.16-.51.32-.77.47l-.17.1c-.73.44-1.48.9-2.17,1.42-.62.47-1.2,1.01-1.76,1.53-.35.33-.72.66-1.08.98-.19.16-.51.26-.76.24-1.82-.18-3.61-.38-5.76-.62l-2.05-.22.16-.14Zm9.04.98c4.96-5.33,11.31-6.55,16.28-7.01l.28-.03-.21.19c-.4.37-.86.75-1.27,1.09-1.05.87-2.14,1.77-2.93,2.89-1.55,2.2-3.67,2.4-5.92,2.62-1.41.13-2.84.21-4.22.29-.52.03-1.76.11-2.18.13l.16-.18Zm13.55-3.12c1.48-1.37,3.01-2.78,4.55-4.18.32-.29.76-.43.94-.47,2.1-.53,4.15-1.03,6.33-1.57l2.25-.55-.2.23c-3.05,3.49-9.99,7.2-15.48,8.26l-.33.06,1.94-1.79Zm12.63-7.25c-2.61.62-5.07,1.21-7.57,1.7-.78.15-1.77-.32-2.44-.67-3.36-1.82-6.29-4.11-8.95-6.99-.14-.16-.52-.58-.68-.76h.19c8.55-.66,15.99,2.61,22.29,5.76.05.03.1.05.15.08l.24.12-.26.06c-1,.23-1.97.47-2.93.7h-.05Zm-9.01,2.2l-2.8.51c-2.61.48-5.08.93-7.54,1.35-.41.07-.88-.11-1.26-.26-2.65-1.04-5.05-2.63-7.33-4.89-.58-.58-1.18-1.1-1.87-1.71-.38-.34-.7-.62-1.05-.94l-.11-.1.15-.05c3.57-1.37,6.61-2.35,9.81-2.71.3-.03.75.08.97.31.28.32.56.64.85.96,2.81,3.05,6.06,5.48,9.94,7.41l.26.13Zm-13.35,1.47c.24.12.48.23.73.34l.06.03-.02.48h-.08c-.87.11-1.76.23-2.61.35h-.02c-2.1.29-4.27.59-6.42.65-1.36.04-2.84-.59-4.12-1.22-.03-.02-.06-.03-.09-.05-1.22-.61-2.38-1.38-3.5-2.13h-.01c-.48-.33-.98-.66-1.48-.98l-.05-.03v-.56s1.8-.9,1.8-.9l.05-.02c1.98-1,4.03-2.03,6.07-2.98.35-.16,1.05.24,1.34.51l.7.65c2.33,2.16,4.72,4.39,7.65,5.85Zm-11.34,2.26l-14.34-.1-.04-.53,1.6-.9.06-.03c1.64-.92,3.33-1.88,5.01-2.78.3-.16.82-.16,1.13,0,.02.01.05.02.07.04,1.57,1,3.15,2.06,4.67,3.08l1.84,1.23Zm-11.45,1.22l.11-.37,12.53-.15-.99.75c-.78.59-1.49,1.12-2.22,1.65-.17.12-.44.22-.65.17-2.31-.53-4.65-1.08-6.91-1.61l-1.86-.44Zm25.34,53.22c.66,1.4,1.29,2.72,1.88,4.06.12.28.01.75-.17,1.02-1.54,2.34-2.89,4.3-4.49,6.24l-.22.27,2.14-13.41.86,1.82Zm-1.87-19.17l-.05.06-.62-.33,6.33-12,.61.32v.07c-.59,4.77-3.3,8.34-6.27,11.88Zm11.57,5.16c-3.57-4.85-6.86-12.34-4.41-17.44l.09-.2.08.2c3.72,9.37,4.79,13.59,4.4,17.39l-.02.25-.15-.2Zm-15.34,16.17c1.01-.95,2.02-1.88,2.99-2.78l1.05-.96-1.98,12.4-.4.18-.35-1.5c-.53-2.27-1.05-4.49-1.56-6.73-.04-.2.12-.48.25-.61Zm4.39-21.38c.43-.42.87-.85,1.24-1.31.38-.46.75-.94,1.08-1.36.47-.61.96-1.25,1.5-1.86l.18.1c-.35,1.17-.51,2.41-.67,3.61h.05s-.06.02-.06.02c-.29,2.14-.59,4.36-1.91,6.23-1.13,1.59-2.45,3.06-3.73,4.48l-.15.17c-.52.57-1.05,1.17-1.56,1.76l-.05.06-.83-.45.02-.07c.27-.86.52-1.74.76-2.59l.02-.06c.58-2.03,1.18-4.14,2.03-6.09.43-1,1.27-1.83,2.09-2.63Zm-4.42,12.61c1.57-1.56,3.18-3.1,4.6-4.46l1.73-1.66-.06.29c-.14.75-.28,1.52-.41,2.27l-.02.12c-.37,2.06-.74,4.18-1.28,6.27-.25.96-.99,1.81-1.7,2.62l-.27.31c-.51.59-1.1,1.11-1.73,1.66l-.08.07c-.26.23-.53.46-.8.71l-.11.1-.05-.14c-.05-.14-.1-.26-.15-.37-.09-.21-.16-.38-.17-.63-.05-1.93-.09-3.93-.07-5.9,0-.43.23-.95.56-1.27Zm6.66-4.16c.1-.56.34-1.85.43-2.31l3.97,8.21.06.19v.02s.02.01.02.01c.16.13.29.25.4.37,1.14,1.24.29,2.5-.39,3.51-.68,1.01-1.33,2.06-1.96,3.08-.26.43-.88,1.42-1.07,1.72l-.08-.15c-1.6-3.14-3.11-6.1-2.35-9.68.36-1.71.68-3.44.96-4.97Zm2.54.85c-1.57-3.18-1.89-6.25-.97-9.39.37-1.25.61-2.57.82-3.73v-.02c.09-.49.18-.98.27-1.42l.06-.29,1.08,2.51c.88,2.04,1.78,4.15,2.73,6.25.31.69.64,1.22.99,1.6.08.09.16.17.24.24.11.1.21.2.31.3.78.85.97,1.86.59,3.1-.51,1.65-1.04,3.3-1.56,4.9l-.67,2.08-.71.02-1-1.92-.04-.07c-.72-1.36-1.46-2.77-2.15-4.16Zm-29.9-18.7l-11.52,1.8-.2-.6,1.62-.94c1.95-1.13,3.72-2.15,5.54-3.17.29-.16.85-.12,1.08.05.81.62,1.59,1.27,2.41,1.96l1.07.9Zm18.12-3.61c-1.63.39-3.32.8-5.03,1.16-.47.1-1.1,0-1.61-.26,0,0-.02,0-.03-.01-1.9-.98-3.82-2.01-5.68-3.01l-2-1.07.08-.77,1.62-.57c1.67-.59,3.41-1.19,5.16-1.76.33-.1.81.1,1.13.31,2.12,1.4,4.22,2.82,6.25,4.19l1.98,1.33-1.88.45Zm-7.5,1.65l-.23.04c-.72.14-1.42.29-2.27.47h-.02c-1.88.41-3.82.84-5.78.94-1.05.05-2.14-.53-3.21-1.11-.28-.15-.54-.29-.81-.43-.07-.03-.13-.06-.2-.1-.36-.18-.65-.48-.98-.83h-.01c-.16-.18-.34-.37-.55-.56l-.1-.09,1.57-.81c1.43-.74,3.05-1.59,4.63-2.36.3-.15.83.01,1.09.19,1.73,1.14,3.44,2.31,5.09,3.45l1.77,1.21Zm-13.73,6.11c3.5-3.23,8.13-4.96,13.78-5.13h.26s-1.43,1.31-1.43,1.31l-.14.13c-1.44,1.33-2.81,2.59-4.2,3.85-.19.17-.5.29-.74.28-1.76-.05-3.52-.12-5.38-.2h-.3s-2.02-.09-2.02-.09l.17-.16Zm31.52-10.72c-2.04.62-4.35,1.33-6.65,1.99-.31.09-.72-.03-1.04-.19-.04-.02-.08-.04-.12-.07-2.21-1.27-4.63-2.68-7.62-4.45-.08-.05-.16-.12-.25-.21h0c-.06-.07-.12-.14-.18-.22l-.02-.02c-.05-.07-.11-.14-.17-.21l-.1-.11.14-.05c3.92-1.3,12.34.43,17.9,2.78l.24.1-2.13.65Zm-22.14,11.03c3.94-5.65,9.8-7.14,14.48-7.8l.3-.04-1.1,1.01c-.79.73-1.64,1.5-2.47,2.3-.23.22-.44.47-.68.74-.28.33-.61.71-.98,1.01l-.23.18c-.71.58-1.46,1.17-2.29,1.39-1.59.41-3.18.7-4.87,1-.6.11-1.34.24-2.07.38l-.23.04.13-.19Zm-6.22-3.69l.08.19c-.4.3-.78.59-1.15.87l-.07.06c-.95.73-1.77,1.35-2.64,1.94-.35.23-.94.22-1.38.13-1.28-.27-2.58-.58-3.96-.91l-1.77-.42v-.2s10.89-1.65,10.89-1.65Zm31.17-7.54l-.25.25c-3.78,3.83-8.3,6.56-14.65,8.87l-.31.11.2-.26c4.17-5.45,9.76-7.55,14.66-8.88l.34-.09Zm13.12,10.93l-.05-.06c-.77-.88-.66-2.2.25-3.07.36-.34.81-.52,1.27-.5.46.02.88.22,1.21.58h0c.83.94.8,2.29-.07,3.08-.89.81-1.85.79-2.62-.04ZM120.37,23.25l.92-.26.11.02.19.44-8.62,3.65-.11-.17c2.12-2.14,4.86-2.92,7.52-3.68Zm-9.12,1.22c-1.98.26-4.02.53-6.04.76-.38.04-.84-.03-1.4-.24-3.52-1.3-7.06-3.29-10.8-6.06-.05-.03-.09-.07-.15-.14l-.48-.53.13-.05c.49-.19.96-.38,1.39-.56.99-.41,1.94-.8,2.93-1.08,1.94-.55,3.96-.94,5.91-1.33l.16-.03c.36-.07.91.11,1.16.38h0c.39.45.78.89,1.15,1.29,2.52,2.73,5.16,5.08,8.08,7.16l.2.14-2.26.29Zm-8.84.68l.23.09-.23.09c-5.91,2.16-13.81,1.13-17.61-2.3l-.09-.08,1.61-1.01c1.4-.88,2.98-1.87,4.54-2.78.3-.18.91-.15,1.28.03.05.02.1.05.14.08,2.26,1.76,4.68,3.29,7.23,4.57.95.48,1.92.92,2.91,1.32Zm-13.37,4.96c2.6-1.98,4.97-2.88,7.67-2.9,1.73-.02,3.46-.25,5.29-.49l.17-.02c.79-.1,1.61-.21,2.46-.3l.28-.03-.21.2c-2.1,1.96-3.93,3.46-6.68,3.39-1.96-.05-3.93.06-6.01.18-.88.05-1.88.11-2.91.15h-.3s.24-.17.24-.17Zm13.56-1c.04-.06.08-.12.13-.17,2.27-2.6,5.36-3.12,8.59-3.46.53-.05,1.06-.16,1.62-.28h.05c.25-.06.5-.11.77-.16l.08.19c-3.86,2.67-8.14,4.22-11.19,4.06l-.16-.03.11-.15Zm17.32-6.76h-.03c-.74.22-1.52.44-2.23.75-1.98.87-3.84.53-5.69-1.04-1.71-1.45-3.43-3.03-4.94-4.44-.61-.57-1.34-1.23-2.08-1.91l-.05-.05.35-.77h.07c.82.13,1.66.25,2.48.37,1.89.26,3.84.54,5.74.91,1.4.27,2.79.68,4.13,1.08h.03c.48.15,1.05.32,1.61.48,2.54.71,5.16,1.45,8,1.35l.05.2c-.54.24-1.09.49-1.61.74l-.05.02c-1.25.57-2.53,1.16-3.83,1.68-.63.25-1.3.44-1.94.63Zm-30.65,4.26l-11.96,1.51-.07-.19,1.3-.86c1.46-.97,3.28-2.17,5.05-3.3.21-.14.63-.1.87.02.01,0,.02.01.03.02,1.14.65,2.28,1.33,3.39,1.98l1.38.82Zm2.1.88l-.15.18c-1.19,1.44-3.44,2.51-5.01,2.39-1.82-.15-3.67-.31-5.46-.46l-.3-.03-2.38-.21-.06-.46,13.37-1.41Zm-4.39,14.62c-.58.49-1.68.55-2.38.2-.14-.07-.26-.15-.36-.25l-.03-.04c-.27-.3-.42-.71-.4-1.17.02-.54.26-1.06.66-1.42.83-.77,2.33-.89,2.95-.26.24.26.35.69.32,1.22-.04.69-.34,1.37-.76,1.72Z"/>
  </g>
</svg>