<?xml version="1.0" encoding="UTF-8"?>
<svg id="Layer_2" data-name="Layer 2" xmlns="http://www.w3.org/2000/svg" viewBox="0 0 111.54 123.92">
  <defs>
    <style>
      .cls-1 {
        fill: #c7a48b;
      }
    </style>
  </defs>
  <g id="BANNER_1" data-name="BANNER 1">
    <path class="cls-1" d="m0,123.63c2.01-5.75,3.82-11.58,6.09-17.22,2.01-5,4.54-9.78,6.95-14.88-3.27-2.46-5.65-5.97-7-10.2-1.01-3.19-1.33-6.46-.42-9.66,1.53-5.37,7.24-7.31,10.92-4.27,1.45,1.2,2.17,2.75,1.95,4.48-.43,3.47-1.08,6.91-1.75,10.34-.39,2-.98,3.97-1.29,6.08,5.14-7.11,11.42-13.05,18.21-18.78-2.66-3.06-3.81-6.62-4.12-10.45-.34-4.16.06-8.23,2.97-11.5,1.04-1.17,2.51-2.17,3.98-2.69,3.32-1.18,6.3.68,6.44,4.19.11,2.7-.29,5.51-1,8.13-.78,2.88-2.18,5.6-3.3,8.37,8.86-6.42,17.87-12.94,26.5-19.19-1.52-3.32-3.07-6.25-4.2-9.33-1.11-3.04-.78-6.22.36-9.24.77-2.04,2.27-3.33,4.5-3.5,2.26-.18,3.86.99,4.89,2.87,1.49,2.72,1.73,5.61.84,8.57-.67,2.2-1.39,4.39-2.2,6.97,6.82-5.78,12.04-12.53,16.67-18.36-1.33-3.9-2.68-7.23-3.58-10.68-.85-3.26-1.58-6.6-.44-10.02.72-2.15,2.01-3.44,4.3-3.63,2.36-.19,4.4.47,5.69,2.57,1.86,3.01,1.96,6.34,1.29,9.67-.4,2.01-1.17,3.95-1.85,6.19,1.26-.79,2.36-1.54,3.52-2.18,3.9-2.14,7.98-3.34,12.49-2.43,3.81.77,5.33,4.48,3.03,7.57-2.5,3.37-6.22,4.41-10.03,4.28-4.08-.14-8.14-1.11-12.57-1.77-2.15,2.75-4.68,5.97-7.56,9.66,1.75-.47,2.97-.83,4.2-1.12,3.65-.86,7.28-1.45,10.89.25,3.41,1.61,4.06,5.5,1.24,8.02-3.65,3.27-8.12,3.81-12.59,2.84-3.23-.7-6.24-2.41-9.14-3.58-6.52,5.13-13.11,10.31-19.74,15.53,4.02-.83,8.03-1.41,12.07-.43,1.21.3,2.47.66,3.53,1.28,2.94,1.74,3.23,5.76.58,7.99-2.94,2.47-6.39,2.7-9.99,2-4.72-.91-8.7-3.16-12.15-7.24-7.06,5.51-14.1,11-21.14,16.49.11.13.21.26.32.39,3.25-.79,6.48-1.69,9.75-2.35,2.82-.57,5.62-.34,8.29.91,3.41,1.6,4.19,5.06,1.68,7.88-1.92,2.16-4.52,2.96-7.27,3.15-5.85.4-11.21-1-15.86-4.72-.28-.23-.6-.41-1.01-.68-6.57,7.08-11.76,14.97-15.75,24.11,1.74-1.2,3.12-2.24,4.58-3.16,5.25-3.28,10.98-4.17,17.03-3.3,2.84.41,3.66,1.93,2.46,4.53-1.08,2.33-3.01,3.79-5.21,4.98-6.12,3.3-12.38,3.28-18.75.83-.4-.16-.8-.32-1.08-.44-2.21,5.45-4.37,10.8-6.54,16.14-.23-.09-.47-.19-.7-.28Zm25.93-45.17c4.47,1.9,18.3,2.32,22.72.61-.84-1.04-1.39-2.38-2.34-2.77-1.91-.78-4.04-1.46-6.08-1.44-4.88.04-9.48,1.61-14.3,3.6Zm5.81,22.01c-3.81-4.04-19.06,0-23.63,6.08,8.3-.66,15.95-2.88,23.63-6.08Zm6.21-54.3c-2.09-.02-3.59,1.27-4.84,2.85-3.59,4.54-3.12,13.47.89,18.62.41-3.54.63-7.15,1.28-10.68.66-3.61,1.75-7.14,2.67-10.78Zm-25.36,21.4c-.19,7.44-1.04,14.83.99,22.13.34-.54.5-1.11.63-1.68.61-2.67,1.32-5.33,1.8-8.03.5-2.81,1.04-5.65,1.07-8.49.02-2.6-1.64-3.83-4.48-3.94ZM89.47,22.24c.01.14.03.29.04.43,1.98.52,3.94,1.16,5.95,1.53,3.63.68,7.24.54,10.69-.92,2.79-1.18,4.13-3.07,3.78-5.5-6.83,1.49-13.65,2.97-20.47,4.46ZM11.12,67.79c-2.18.55-3.89,2.47-4.29,5.09-.74,4.81.38,9.21,2.97,13.27.59.93,1.32,1.77,1.74,2.33-.14-6.83-.28-13.79-.42-20.69Zm40.2-9.77c9.25,2.76,16.92,3.48,20.84,1.85-1.04-.95-1.78-2.06-2.81-2.51-5.9-2.54-11.73-1.61-18.03.66Zm-12.07-11.59c-2.58,6.77-3.72,13.73-4.11,21.23,2.76-3.52,4.68-7.05,5.6-11,.55-2.34.7-4.8.76-7.21.03-1.38-.58-2.68-2.24-3.02ZM86.61,1.56c-2.15.39-3.41,1.33-3.43,3.13-.03,2.66-.14,5.42.46,7.97.74,3.15,2.19,6.13,3.33,9.18.32-.08.65-.16.97-.24-.44-6.61-.88-13.21-1.33-20.05Zm10.08,36.77c-6.69-.04-13.36-.09-20.03-.1-.34,0-.68.3-1.5.68,2.5,1.01,4.51,1.89,6.56,2.64,3.35,1.23,6.79,1.27,10.19.28,2.06-.6,3.96-1.57,4.8-3.51Zm.34-1.2c-.6-2.26-1.8-3.31-3.6-3.69-4.61-.97-8.98.07-13.25,1.72-1.02.4-1.95,1.05-2.92,1.58.07.21.13.42.2.64,6.43-.08,12.85-.17,19.57-.25Zm-31.01,7.57c-.08-6.41-.16-12.66-.23-18.97-2.44.4-3.22,2.26-3.63,4.27-1.14,5.47.45,10.27,3.87,14.7Zm-15.59,14.06c3.15,3.31,6.67,5.09,10.52,6.16,2.7.75,5.52.82,8.07-.63,1.04-.59,1.86-1.58,2.78-2.38l-.32-.53c-7.14,1.17-14.01.17-21.05-2.63Zm38.52-38.75c2.92-5.01,4.44-10.1,2.24-15.73-.61-1.57-1.79-2.42-3.51-2.58.42,6.12.84,12.13,1.27,18.31ZM30.83,102.47c-6.65,1.76-13.61,3.59-20.03,5.29,9.46,2.12,16.72.19,20.03-5.29ZM109.59,16.74c-2.22-3.59-12.01-2.29-19.26,4.2,6.36-1.39,12.74-2.78,19.26-4.2Zm-42.57,8.94c.05,6.1.11,11.82.16,17.55.2.02.41.05.61.07,1.47-3.22,2.8-6.55,2.98-10.11.14-2.84-.51-5.62-3.75-7.5Zm-19.3,55.02c-7.55,1.04-14.71,1.12-21.79-.84,8.78,5.51,17.37,5.92,21.79.84Z"/>
  </g>
</svg>