<?xml version="1.0" encoding="UTF-8"?>
<svg id="Layer_2" data-name="Layer 2" xmlns="http://www.w3.org/2000/svg" viewBox="0 0 105.32 122.97">
  <defs>
    <style>
      .cls-1 {
        fill: #c7a48b;
      }
    </style>
  </defs>
  <g id="BANNER_2" data-name="BANNER 2">
    <path class="cls-1" d="m99.57,50.28c-.08-.05-.16-.11-.24-.17-.25-.18-.48-.34-.73-.39l-.78-.15h-.03c-2.68-.54-5.46-1.09-8.2-1.52-3.85-.61-7.34-.73-10.68-.38-7.17.76-13.04,3.34-17.94,7.86l-.12-.1c.39-.58.78-1.14,1.12-1.63.8-1.16,1.56-2.25,2.23-3.41,1.93-3.35,3.8-6.79,5.61-10.11l.49-.9c.31-.56.6-.69,1.2-.53,1.5.39,3.03.74,4.55,1.04,5.6,1.09,10.1.68,14.14-1.3,4.64-2.27,8.92-5.26,13.06-8.15l1.68-1.17c.23-.16.36-.35.37-.53.01-.14-.05-.28-.17-.39-.11-.1-.25-.18-.44-.24-.43-.14-.88-.23-1.32-.32h-.04c-.21-.05-.42-.09-.63-.14-7.15-1.64-14.07-1.06-20.58,1.72-4.07,1.74-7.39,3.96-10.17,6.8l-.17.17.04-.24c.07-.4.16-.78.35-1.1,2.53-4.05,4.07-8.42,5.24-12.16,1.97-6.28,1.95-12.12-.06-17.84-.4-1.15-.87-2.28-1.33-3.39-.21-.51-.43-1.03-.61-1.51l-.12-.12h-.03c-.09.05-.2.09-.3.12-.25.08-.51.17-.6.33-.55.98-1.1,1.97-1.65,2.95-1.85,3.31-3.77,6.72-5.48,10.17-2.25,4.52-2.31,9.56-.17,14.97.71,1.81,1.61,3.7,2.74,5.77.91,1.66.88,3.12-.09,4.6-.56.85-1.11,1.72-1.66,2.56l-.09.14c-1.2,1.87-2.45,3.8-3.73,5.66-.83,1.21-1.74,2.34-2.7,3.54-.38.48-.83,1.04-1.27,1.61l-.07.1-.05-.11c-.02-.05-.05-.1-.07-.14-.05-.09-.08-.14-.06-.21,1.42-5.13,1.52-10.73.33-17.64-.11-.64-.05-1.12.6-1.54.78-.5,1.06-1.65.65-2.62-.12-.27-.28-.51-.49-.71-.42-.39-.97-.58-1.52-.5-.92.12-1.73.93-1.87,1.87-.11.7.19,1.61.69,2.08.15.14.3.23.47.28.25.07.44.17.59.31.28.27.34.65.37,1.01.62,7.37-.42,14.54-3.1,21.31-.54,1.36-1.51,2.36-2.45,3.34-.37.38-.7.73-1.02,1.09-1.07,1.23-2.27,2.44-3.66,3.68l-.13-.09.07-.18c.07-.18.13-.33.19-.46,3.34-7.49,4.78-13.91,4.55-20.19-.23-6.14-1.51-12.02-3.82-17.47l-.07-.17c-.11-.28-.23-.57-.43-.76-.16-.16-.39-.24-.66-.24h-.02l-.67.7h0c-.22.45-.44.88-.66,1.32l-.22.44c-.6,1.2-1.29,2.56-1.98,3.85-1.86,3.42-4.17,7.67-5.18,12.27-1.24,5.64-.72,10.87,1.55,15.56.92,1.89,2.04,3.65,3.23,5.52l.04.07c.53.83,1.07,1.69,1.6,2.56l.03.05-12.34,11.98-.27-.26v-.04c1.85-5.63,2.43-10.72,1.79-15.56v-.05s.04-.02.04-.02c1.34-.74,1.72-1.38,1.48-2.44-.11-.47-.28-.81-.51-1.03-.23-.22-.52-.33-.89-.34-.78-.03-1.67.59-1.96,1.37-.26.73-.09,1.28.62,1.95.18.17.4.36.68.56l.03.03-.07.64c-.06.47-.11.9-.14,1.33-.45,5.65-1.76,10.65-3.99,15.27-.82,1.7-1.71,2.95-2.79,3.96-1.21,1.12-2.42,2.29-3.59,3.41l-.53.5c-.59.57-1.21,1.15-1.81,1.73-.27.25-.55.48-.89.75h-.02c-.16.15-.33.29-.52.44l-.12-.1,2.26-4.27c3.29-6.21,5.43-12.07,6.53-17.91.98-5.19.52-10.33-.03-15.14-.03-.22-.05-.45-.06-.67-.04-.45-.08-.92-.17-1.36-.06-.28-.16-.5-.3-.63-.27-.25-.65-.17-1.04.21-.51.49-.9.94-1.21,1.38-.69.99-1.38,1.98-2.07,2.96l-.6.85c-2.57,3.66-5.22,7.45-7.74,11.23-2.32,3.47-3.5,6.78-3.63,10.11-.16,4.52,1,8.75,2.16,12.3.53,1.63.96,3.33,1.37,4.97l.12.47c.08.3-.03.75-.23,1-.84,1.04-1.71,2.09-2.55,3.11-1.44,1.73-2.93,3.53-4.32,5.35-1.92,2.53-4.42,5.88-6.67,9.42-1.26,1.98-2.14,4.21-2.83,6.12-.31.88-.31,1.32.02,1.63.14.14.35.25.62.36.19.08.41.15.65.23.2.07.4.17.59.26.07.03.14.07.21.1l.04.02.08-.17h0c.08-.17.15-.31.2-.46,1.5-4.23,3.66-8.25,6.61-12.3.31-.43.92-.82,1.5-.97,2.79-.71,5.66-.69,8.52.06,1.3.34,2.64.69,4,.79.49.03.99.07,1.49.11,2.23.17,4.53.35,6.75.12,5.1-.55,9.35-3.32,12.48-5.68,1.94-1.46,3.94-2.89,5.88-4.28l.14-.1c1.3-.93,2.48-1.77,3.67-2.64.16-.12.27-.31.38-.51l.03-.04s.05-.09.07-.13l.02-.04-.04-.02c-.06-.03-.12-.07-.18-.1-.19-.12-.38-.23-.56-.23h-.39c-2.96-.08-6.03-.14-9.07-.14-9.04.02-16.59,1.64-23.1,4.95-1.98,1.01-3.87,2.18-5.7,3.31l-.04.02c-.76.47-1.55.96-2.33,1.43l-.11-.11c6.22-9.37,15.55-14.9,28.52-16.91h.07s.05.29.05.29v.03c.02.09.03.15.04.22.12.41.32.76.6,1.02.35.33.8.5,1.29.5,1.16,0,2.18-.8,2.43-1.88.17-.72-.04-1.47-.55-1.95-.12-.12-.27-.22-.42-.29-.04-.02-.07-.04-.11-.05-.79-.33-1.98-.18-2.55.59-.43.58-.91.69-1.55.68-4.45-.12-8.69.78-12.61,2.67l-1.74.84-.19-.29,11.67-10.97.05.03c.76.42,1.49.85,2.24,1.29h.02c1.52.89,2.95,1.72,4.44,2.43.61.29,1.22.56,1.82.81,7.86,3.27,15.12,3.17,22.14-.28,2.75-1.35,5.57-2.63,8.3-3.86,1.76-.8,3.35-1.51,4.94-2.25.2-.09.36-.3.52-.52h0c.05-.08.11-.15.16-.23l.03-.03-.03-.03s-.32-.31-.32-.31c-.15-.14-.31-.27-.48-.31-1.4-.32-2.79-.65-4.18-.98-4.59-1.08-9.34-2.2-14.05-3.16-5.79-1.18-11.65-.51-17.41,1.99-.82.36-1.65.74-2.45,1.12l-1.16.54-.09-.13,1.05-1.04h.01c5.23-5.17,10.63-10.51,15.07-16.51l.03-.05.05.02c.27.12.52.24.77.35l.15.07c.51.24,1,.46,1.49.67.09.04.18.08.28.11,5.8,2.3,10.45,3.07,15.08,2.52,3.83-.46,7.57-1.8,11.44-4.09,2.9-1.71,5.76-3.61,8.52-5.45l.05-.03c.98-.65,1.87-1.24,2.78-1.84.22-.14.38-.39.54-.62.05-.08.11-.16.17-.24l.03-.04-.04-.02Zm-74.74,7.17l3.27-4.74.14.06-1.3,7.02-2.12-2.34Zm-2.99,29.07l.03-.02c.26-.18.52-.36.75-.56l.05-.04.42.37-4.3,7.85-.38-.22.02-.05c.16-.52.32-1.05.47-1.56l.04-.15c.4-1.39.82-2.82,1.41-4.16.27-.6.89-1.03,1.49-1.45Zm4.57-7.96c-.79,1.89-1.7,4.03-2.62,6.07-.18.4-.64.71-1.06.97-.39.24-.82.44-1.27.66h-.01c-.19.1-.41.2-.63.31l-.15.07.04-.16c.16-.57.32-1.15.47-1.71l.08-.28c.47-1.72.95-3.49,1.53-5.22.22-.64.99-1.13,1.61-1.53.52-.34,1.1-.6,1.71-.87.27-.12.57-.26.87-.4l.14-.07-.03.15c-.03.14-.05.26-.07.37-.04.2-.06.36-.13.5l-.48,1.14Zm.71-2.56c-.93.42-1.89.83-2.82,1.22l-1.19.51.47-1.98h0c.44-1.88.89-3.82,1.39-5.73.1-.37.49-.67.83-.94l.08-.06c.81-.64,1.66-1.27,2.47-1.88l.99-.74.48.27-.43,1.67c-.61,2.35-1.24,4.78-1.88,7.19-.05.19-.22.39-.38.46Zm2.14-10.09c-.91.64-1.81,1.27-2.77,1.93l-1.15.79.09-.43v-.02c.04-.19.08-.39.13-.59.13-.53.27-1.07.41-1.58l.06-.24c.36-1.37.73-2.78,1.02-4.19.21-.98.65-1.63,1.44-2.09.21-.12.41-.27.61-.4l.32-.22.04-.02.4.1-.03,1.37v.06c-.04,1.64-.08,3.34-.14,5.01,0,.15-.15.33-.44.53Zm-.01-7.54c-.28.22-.58.42-.93.65l-.74.5,1.23-6.74h.34s.13,1.33.13,1.33c.12,1.21.25,2.46.35,3.7.02.23-.32.5-.39.55Zm-4.17,8.8l-.45,1.74-4.25-5.08,4.21-6.03.6.76c.47.59.91,1.15,1.33,1.72.15.2.17.55.11.78-.53,2.12-1.08,4.26-1.55,6.1Zm-.87,3.26c-.45,2.02-.92,4.03-1.42,6.16l-.57,2.41-.09-.19c-.98-2.14-2.26-3.93-3.9-5.48-.76-.72-1.59-1.38-2.53-2.02l-.06-.04,4.16-6.77.35.31c.46.41.88.77,1.27,1.15.97.91,2.03,2.06,2.63,3.65.1.27.21.57.16.83Zm-8.73,1.61h.05s.07.01.11.01h.02c.09,0,.17,0,.23.05.79.67,1.39,1.19,1.93,1.7,1.64,1.55,2.78,2.99,3.58,4.55.5.98.6,1.76.32,2.61-.44,1.35-.83,2.7-1.23,4.13l-.03.12c-.16.56-.32,1.13-.49,1.7l-.05.19-.08-.18c-1.32-2.92-2.66-4.93-4.34-6.51-.17-.16-.35-.32-.54-.48-.04-.04-.09-.08-.13-.11-.53-.5-.75-1.06-.72-1.87.05-1.96.5-3.88,1.36-5.86l.02-.05Zm-1.18,8.02c2.22,2.25,4.28,4.52,5.14,7.61.08.27.14.56.06.79-.39,1.27-.81,2.55-1.21,3.79l-.57,1.75-.07-.21c-.23-.7-.46-1.38-.72-2.14-1.24-3.65-2.52-7.42-2.76-11.53v-.19s.12.14.12.14Zm22.76-18.31c-.46.21-1.25.25-1.69-.06-.19-.17-.22-.54-.27-1v-.02c-.02-.23-.05-.5-.1-.77l-.02-.09h.09c.27.01.51,0,.72,0h.03c.4-.01.72-.03.99.08.02,0,.04.02.06.03.05.03.11.06.15.11.31.29.4.84.34,1.22-.04.25-.15.43-.31.5Zm23.55-18.6l.15.02-.02.57c-.01.44-.03.94-.05,1.44l-.02.49c-.03.61-.06,1.23-.16,1.84-.14.82-.3,1.64-.46,2.44l-.02.11c-.14.73-.29,1.48-.42,2.22-.2,1.15-.8,2.18-1.69,2.93l-.17.14,2.87-12.18Zm-24.81,27.09c.03.22.02.42-.02.58-.15.63-.3,1.27-.44,1.9-.44,1.94-.9,3.95-1.49,5.9-.2.67-.67,1.27-1.12,1.85h0c-.2.27-.41.53-.6.8l-.1.06-.12-.24,3.72-10.88.16.03Zm.86,9.99c-1.44,1.32-2.92,2.68-4.33,4.07l-.1.09c-4.88,4.83-10.41,10.31-15.64,15.74-2.06,2.14-3.95,4.5-5.79,6.79l-.75.94c-3.66,4.56-6.23,9.17-7.86,14.12l-.02.05h-.06c-.58-.03-1.01-.09-1.24-.3-.24-.22-.24-.58,0-1.23.74-1.99,1.43-3.77,2.47-5.37,2.14-3.28,4.49-6.64,7.21-10.25,3.97-5.28,8.56-10.5,13.64-15.52,1.96-1.93,4.04-3.81,6.05-5.62,1.07-.97,2.13-1.92,3.18-2.89l1.18-1.09c2.12-1.96,4.32-3.99,6.43-6.03l.43-.41c3.11-3.01,6.33-6.11,9.42-9.32,2.97-3.08,5.81-6.32,8.24-9.11,1.28-1.47,2.51-3.02,3.71-4.51l.05-.06c.54-.68,1.1-1.38,1.66-2.06.08-.1.17-.19.26-.28l.16-.17.26.2-.04.06c-.5.74-1.01,1.5-1.46,2.18h0c-1.05,1.58-2.14,3.21-3.26,4.78-3.74,5.23-7.57,9.74-11.71,13.8-2.47,2.42-5.1,4.88-7.41,7.05l-2.06,1.93c-.86.81-1.75,1.62-2.61,2.41l-.03.03Zm5-26.67c2.16,2.04,7.01,7.26,5.37,11.66l-.05.13-.08-.12c-2.32-3.39-4.95-7.23-5.72-11.94l-.03-.21c.15.13.43.39.52.47Zm9.73-22.48c-.35.4-.72.79-1.02,1.11l-.43.46-.43-6.97.38-.1.41,1.13.03.08c.43,1.19.88,2.42,1.29,3.63.07.2-.09.51-.22.66Zm.69,14.19c-.86.82-1.49,1.84-2.17,2.93l-.02.03c-.29.46-.58.94-.89,1.4l-.15.22v-.26c.05-.65.08-1.31.11-1.95v-.08c.08-1.64.16-3.34.37-5,.1-.78.6-1.5,1.09-2.21l.2-.29c.46-.67.97-1.3,1.51-1.97.27-.33.54-.66.82-1.01l.1-.13.12.67c.05.26.08.44.1.63.03.27.06.55.09.82v.09c.06.5.11,1.01.2,1.5.34,1.91-.12,3.34-1.48,4.63Zm.7-8.53c-.8.94-1.57,1.84-2.5,2.93l-.84.98v-.21c.03-.6.03-1.22.04-1.82.01-1.47.02-2.98.26-4.45.11-.69.62-1.31,1.13-1.91.22-.27.45-.54.63-.81l.03-.04.46.09.23,1.07c.25,1.18.51,2.4.75,3.6.04.19-.06.44-.17.57Zm-3.86,2.17v.04c-.01.45-.02.98-.05,1.53v.23s-4.21-6.39-4.21-6.39l2.13-4.04.42.55c1.08,1.39,2.1,2.71,1.89,4.65-.12,1.14-.15,2.31-.18,3.44Zm-.31,5.09v.31c-.08,1.54-.18,3.09-.27,4.46l-.12,1.94-.12-.17c-.36-.52-.72-1.05-1-1.46-.76-1.13-1.55-2.29-2.39-3.41-.49-.65-1.06-1.27-1.61-1.86l-.05-.05c-.32-.35-.65-.7-.96-1.07-.33-.38-.47-.68-.41-.86.59-1.73,1.21-3.44,1.88-5.25l.65-1.77.08.1c1.99,2.43,3.39,4.41,4.17,6.79.23.72.19,1.52.16,2.31Zm-7.06-1.26c.3.33.61.64.92.96.65.66,1.25,1.29,1.77,1.99.83,1.12,1.59,2.31,2.33,3.46h0c.28.46.58.91.87,1.36.52.79.71,1.65.61,2.72-.16,1.69-.27,3.39-.37,5.03v.05c-.04.55-.12,1.77-.14,2.16l-.12-.18c-.29-.43-.58-.89-.87-1.33h0c-.69-1.07-1.4-2.17-2.2-3.2-.54-.7-1.2-1.32-1.84-1.93-.34-.32-.67-.64-.98-.96l-.07-.07c-.21-.21-.45-.46-.49-.72-.48-3.11-.33-6.16.46-9.31l.03-.13.09.1Zm6.73,16.61v-.22c-.4-6.26,1.29-11.05,5.17-14.66l.03-.03.43.09v.07c-.11.73-.2,1.47-.29,2.18v.04c-.24,1.83-.47,3.72-.85,5.55-.12.58-.55,1.09-.97,1.59-.21.25-.45.53-.63.82-.64.99-1.27,1.99-1.87,2.96l-1.01,1.61Zm-1.2-29.51l1.67-3.24.04-.05.29.02.03,5.89-2.03-2.62Zm.57,36.06c-.43-4.68,2.04-8.35,4.4-11.42l.14.07c-1.15,4.48-2.59,8.2-4.41,11.38l-.11.2-.02-.23Zm-25.54,29.31c3.53-3.16,8-5.16,13.67-6.1l.03.15c-4.6,1.37-9.18,3.42-13.61,6.08l-.09-.12Zm24.67-13.72l-.17-.12c-.66-.46-1.38-.84-2.14-1.24l-.05-.03c-.32-.17-.65-.35-.98-.53l-.21-.12.24-.02c.5-.04.99-.11,1.46-.17,1.13-.15,2.19-.28,3.25-.18,1.17.12,2.35.78,3.36,1.39,1.02.61,1.97,1.34,2.85,2.16.1.09.2.19.29.28.64.63,1.19,1.37,1.78,2.15h0c.27.37.55.75.86,1.13l.1.12-.87-.03c-.45-.01-.84-.02-1.23-.05-1.95-.15-3.82-.4-5.29-1.78-.25-.24-.49-.51-.71-.81-.19-.26-.41-.5-.68-.76-.56-.53-1.22-.98-1.86-1.42Zm3.99-2.01c-.15-.08-.3-.16-.48-.26l-.53-.29.23-.03c7.42-.9,10.55-.41,15.69,4.44.26.25.53.51.83.8l.08.07-.1.04c-1.94.87-3.88,1.47-5.95,1.82h-.1c-1.6.24-2.2.33-2.81-.25-.3-.28-.6-.72-1.09-1.43l-.02-.03c-.56-.82-1.22-1.58-1.94-2.26-1.08-1.02-2.35-1.9-3.8-2.64Zm-11.84.46c1.62-.38,3.02-.29,4.38.28.04.02.08.03.12.05,1.97.86,3.82,2.07,5.33,3.5.43.41.84.84,1.22,1.28l.16.19-.24-.07c-4.39-1.31-7.89-2.93-11-5.1l-.14-.09.16-.04Zm27.51,3.21c-2.07-1.95-4.22-3.38-6.55-4.35-.2-.08-.4-.16-.6-.24l-.22-.08.23-.06c4.72-1.12,9.45-.2,13.67,2.67l.1.07-1.34.65c-1.32.64-2.69,1.31-4.05,1.93-.22.1-.63-.03-.82-.2,0,0-.28-.27-.42-.41Zm4.72-7.62c-3.47,2.02-7.15,2.08-10.62,1.98h-.26s.23-.14.23-.14c.42-.23.85-.46,1.23-.65h.02c.95-.5,1.85-.97,2.66-1.58.99-.75,1.95-.92,3.19-.55.75.22,1.52.38,2.34.56h.02c.38.08.77.17,1.17.26l.18.04-.16.09Zm-6.3-1.37c-1.86,2.29-7.79,4-13.49,3.9h-.28s.25-.14.25-.14c.6-.32,1.23-.63,1.83-.93,1.44-.71,2.92-1.43,4.21-2.41,1.4-1.06,2.81-1.35,4.71-.97.58.12,1.15.2,1.83.29.24.03.81.12,1.01.15l-.08.1Zm-20.69,4.5h-.26s.22-.14.22-.14c.49-.3,1.02-.58,1.54-.86,1.23-.66,2.5-1.34,3.53-2.29,1.94-1.78,4.19-1.83,6.36-1.88.83-.02,1.69-.04,2.52-.16l.06.15c-4.77,3.52-9.34,5.22-13.98,5.18Zm-4.79.36l-.05-.15c3.39-1.96,6.61-3.35,9.84-4.25l.07.14c-2.47,2.12-5.51,3.43-9.86,4.26Zm29.47-.89l9.77.2.03.15-1.03.48c-1.33.62-2.58,1.21-3.84,1.78-.16.07-.42.02-.58-.08-1.04-.59-2.08-1.2-3.14-1.83l-1.22-.71Zm-.25-.75l1.13-.62c.65-.36,1.27-.7,1.9-1.03.15-.08.39-.15.59-.1,1.71.42,3.41.84,5.05,1.25l1.4.35-.06.37-10.01-.22Zm19.15-28.79c-2.22,2.29-4.96,2.73-7.61,3.16-1.03.17-2.1.34-3.11.62l-.07-.14c.18-.14.38-.27.56-.4l.12-.09c.53-.38,1.09-.76,1.58-1.2.45-.39.86-.83,1.27-1.26.25-.27.51-.55.78-.81.14-.13.38-.23.57-.22,1.4.04,2.78.1,4.44.16l1.58.06-.12.12Zm-6.96-.27c-3.51,4.34-8.3,5.61-12.08,6.23l-.21.03.15-.16c.29-.31.62-.62.91-.9.76-.72,1.54-1.46,2.09-2.37,1.07-1.77,2.68-2.03,4.39-2.32,1.07-.18,2.16-.31,3.21-.45.4-.05,1.34-.17,1.66-.22l-.11.14Zm-10.2,3.11c-1.06,1.13-2.16,2.29-3.26,3.44-.23.24-.56.37-.69.41-1.58.52-3.12,1.01-4.76,1.54l-1.69.54.14-.18c2.14-2.83,7.26-6.04,11.4-7.14l.25-.07-1.39,1.47Zm-9.28,6.21c1.96-.62,3.81-1.2,5.7-1.7.59-.16,1.37.15,1.9.39,2.67,1.21,5.03,2.81,7.22,4.87.12.11.43.42.56.55l-.14.02c-6.51.95-12.37-1.16-17.36-3.23-.04-.02-.08-.03-.12-.05l-.19-.08.19-.06c.75-.23,1.48-.46,2.2-.69h.04Zm6.78-2.16l2.11-.54c1.97-.5,3.84-.98,5.7-1.43.31-.08.68.04.98.13,2.09.65,4,1.75,5.87,3.35.48.41.96.78,1.52,1.21.31.24.57.44.86.66l.09.07-.11.05c-2.66,1.24-4.93,2.15-7.36,2.59-.22.04-.58-.02-.76-.19-.23-.23-.46-.46-.7-.69-2.31-2.18-4.93-3.87-7.99-5.14l-.2-.08Zm10.13-1.83c-.19-.08-.38-.15-.58-.22l-.05-.02v-.37s.05-.01.05-.01c.66-.13,1.33-.26,1.98-.4h.02c1.59-.33,3.24-.68,4.88-.84,1.04-.11,2.2.3,3.21.72.02.01.05.02.07.03.96.4,1.89.93,2.79,1.44h.01c.39.23.78.45,1.18.67l.04.02.03.43-1.33.79-.04.02c-1.46.87-2.97,1.76-4.48,2.6-.26.14-.82-.13-1.05-.32l-.57-.46c-1.89-1.53-3.85-3.1-6.17-4.07Zm8.55-2.33l10.97-.68.06.4-1.17.77-.04.03c-1.2.79-2.45,1.61-3.68,2.39-.22.14-.62.16-.87.06-.02,0-.04-.02-.05-.03-1.26-.68-2.52-1.41-3.73-2.11l-1.47-.84Zm8.69-1.54l-.07.29-9.57.78.72-.62c.57-.49,1.08-.94,1.61-1.38.12-.1.33-.19.49-.17,1.79.28,3.61.58,5.37.86l1.45.23Zm-22.21-39.36c-.58-1.03-1.13-2.01-1.65-3-.11-.21-.05-.57.07-.79,1.05-1.87,1.98-3.45,3.1-5.02l.16-.22-.93,10.37-.75-1.34Zm2.45,14.56l.03-.05.49.22-4.2,9.51-.49-.21v-.05c.2-3.68,2.08-6.56,4.16-9.42Zm-9.12-3.33c2.99,3.52,5.9,9.07,4.3,13.11l-.06.16-.07-.15c-3.34-6.97-4.39-10.14-4.29-13.07v-.19s.13.15.13.15Zm10.87-13.19c-.72.78-1.44,1.54-2.14,2.28l-.75.79.85-9.59.3-.16.35,1.13c.53,1.71,1.04,3.38,1.55,5.06.04.15-.07.38-.16.48Zm-2.22,16.59c-.3.34-.62.7-.88,1.06-.27.37-.52.76-.75,1.1-.33.5-.67,1.01-1.05,1.5l-.14-.07c.2-.91.26-1.87.32-2.8h-.04s.04-.01.04-.01c.11-1.65.22-3.36,1.13-4.87.78-1.27,1.71-2.47,2.61-3.62l.11-.14c.36-.47.74-.95,1.1-1.43l.03-.05.66.3v.06c-.17.68-.32,1.36-.46,2.02v.04c-.35,1.59-.69,3.23-1.24,4.77-.28.79-.87,1.46-1.46,2.13Zm2.71-9.88c-1.12,1.27-2.27,2.54-3.28,3.66l-1.24,1.36.03-.23c.07-.58.13-1.18.19-1.76v-.09c.18-1.59.36-3.24.65-4.86.14-.75.66-1.43,1.16-2.09l.19-.25c.36-.48.79-.91,1.24-1.36l.06-.06c.19-.19.38-.38.57-.59l.08-.08.05.1c.04.1.09.19.13.27.08.15.14.28.16.47.14,1.48.28,3,.36,4.51.02.33-.13.74-.36,1Zm-4.87,3.54c-.05.44-.16,1.44-.21,1.79l-3.47-6.06-.05-.14h0s-.01-.02-.01-.02c-.13-.09-.23-.17-.33-.26-.94-.89-.36-1.9.11-2.71.46-.8.91-1.65,1.34-2.46.18-.34.6-1.14.72-1.37l.07.11c1.39,2.32,2.71,4.5,2.31,7.28-.19,1.32-.34,2.67-.47,3.85Zm-1.99-.51c1.37,2.35,1.78,4.68,1.24,7.13-.22.98-.33,2-.43,2.9h0c-.04.4-.09.77-.13,1.11l-.03.23-.96-1.86c-.78-1.51-1.59-3.08-2.42-4.64-.27-.51-.55-.9-.84-1.17-.07-.07-.13-.12-.2-.17-.09-.07-.17-.14-.25-.21-.64-.61-.84-1.37-.62-2.34.3-1.29.62-2.58.93-3.83l.4-1.63.54-.05.87,1.41.03.05c.62,1,1.26,2.04,1.86,3.07Zm23.86,12.71l8.72-1.99.18.45-1.19.8c-1.43.97-2.73,1.84-4.07,2.72-.21.14-.64.14-.83.02-.65-.43-1.28-.89-1.94-1.37l-.87-.63Zm-13.67,3.72c1.23-.39,2.49-.79,3.79-1.15.35-.1.84-.05,1.24.11,0,0,.01,0,.02,0,1.51.65,3.03,1.34,4.5,2l1.59.72-.02.59-1.21.52c-1.25.54-2.54,1.09-3.85,1.62-.24.1-.63-.04-.88-.18-1.7-.96-3.38-1.93-5.01-2.87l-1.59-.92,1.41-.44Zm5.65-1.66l.17-.04c.54-.14,1.07-.3,1.71-.48h.02c1.42-.42,2.88-.84,4.37-1.03.8-.1,1.67.29,2.52.68.22.1.43.2.64.28.05.02.11.04.16.06.28.12.52.33.8.58h0c.13.13.28.27.45.4l.08.07-1.16.71c-1.05.65-2.25,1.38-3.42,2.05-.22.13-.64.03-.85-.09-1.38-.78-2.75-1.59-4.08-2.36l-1.42-.83Zm10.18-5.4c-2.5,2.66-5.96,4.22-10.27,4.65l-.2.02,1.02-1.08.1-.11c1.03-1.09,2.01-2.13,3.01-3.17.14-.14.36-.25.55-.25,1.35-.05,2.7-.09,4.13-.14h.23s1.55-.05,1.55-.05l-.12.13Zm-23.54,9.88c1.53-.58,3.26-1.25,4.98-1.87.23-.09.55-.02.81.09.03.01.07.03.1.04,1.76.85,3.69,1.81,6.06,3,.07.03.13.08.2.15h0c.05.05.1.1.15.15h.01c.05.06.09.12.14.16l.08.08-.11.04c-2.93,1.2-9.46.33-13.84-1.17l-.19-.07,1.59-.61Zm16.34-9.62c-2.71,4.53-7.12,5.98-10.66,6.74l-.23.05.78-.83c.57-.6,1.18-1.24,1.77-1.89.17-.18.32-.38.48-.6.2-.27.43-.57.7-.82l.16-.15c.52-.48,1.05-.97,1.68-1.18,1.19-.4,2.4-.7,3.67-1.02.45-.11,1.01-.25,1.56-.4l.17-.05-.09.15Zm4.96,2.49l-.07-.14c.29-.25.57-.5.83-.73l.05-.05c.69-.61,1.28-1.13,1.92-1.63.25-.2.71-.22,1.05-.17.99.14,2,.31,3.07.49l1.38.23v.16s-8.23,1.84-8.23,1.84Zm-23.44,7.42l.18-.21c2.69-3.13,6-5.46,10.73-7.56l.23-.1-.14.21c-2.9,4.39-7.06,6.29-10.74,7.57l-.26.09Zm-10.62-7.66l.04.04c.64.64.63,1.65-.03,2.36-.26.28-.59.44-.95.45-.35.01-.68-.12-.96-.38h0c-.69-.67-.73-1.71-.11-2.36.64-.67,1.37-.7,2-.11ZM18.05,104.01l-.69.25h-.09s-.17-.33-.17-.33l6.4-3.25.1.12c-1.51,1.75-3.56,2.49-5.55,3.21Zm6.91-1.42c1.5-.3,3.05-.62,4.58-.9.29-.05.64-.02,1.08.11,2.76.81,5.57,2.14,8.59,4.06.04.02.07.05.12.1l.39.38-.1.05c-.36.17-.71.34-1.04.5-.74.37-1.44.71-2.18.98-1.46.52-2.98.93-4.45,1.33l-.12.03c-.27.08-.7-.03-.91-.23h0c-.32-.32-.64-.64-.95-.93-2.07-1.96-4.22-3.61-6.56-5.04l-.16-.1,1.71-.35Zm6.73-.99l-.18-.06.17-.08c4.41-1.97,10.5-1.6,13.59.83l.08.06-1.18.86c-1.02.75-2.18,1.59-3.33,2.37-.22.15-.69.16-.98.04-.04-.02-.08-.04-.11-.06-1.82-1.23-3.75-2.27-5.77-3.11-.75-.31-1.52-.6-2.3-.85Zm9.96-4.51c-1.89,1.65-3.65,2.46-5.71,2.63-1.32.1-2.63.37-4.02.66l-.13.03c-.6.12-1.22.25-1.87.36l-.21.04.15-.16c1.5-1.61,2.82-2.86,4.93-2.95,1.5-.07,3-.26,4.59-.46.67-.09,1.43-.18,2.22-.27l.23-.03-.18.15Zm-10.32,1.49s-.05.09-.09.13c-1.6,2.11-3.93,2.67-6.39,3.1-.4.07-.8.18-1.23.3h-.04c-.19.06-.38.12-.58.17l-.07-.14c2.81-2.24,6-3.66,8.34-3.7h.13s-.07.13-.07.13Zm-12.89,6.1h.02c.56-.21,1.14-.42,1.67-.7,1.47-.77,2.91-.61,4.41.5,1.38,1.02,2.78,2.14,4.02,3.13.5.4,1.09.87,1.69,1.35l.04.03-.23.61h-.05c-.64-.05-1.28-.1-1.92-.15-1.46-.1-2.97-.21-4.44-.39-1.08-.13-2.17-.37-3.22-.61h-.02c-.38-.09-.82-.19-1.26-.28-1.98-.41-4.03-.84-6.19-.6l-.05-.15c.4-.21.8-.43,1.19-.65l.03-.02c.92-.5,1.88-1.03,2.84-1.49.47-.23.97-.41,1.45-.58Zm23.22-4.89l9.07-1.79.06.14-.95.73c-1.07.82-2.4,1.83-3.69,2.79-.16.12-.47.11-.66.03,0,0-.02,0-.03-.01-.91-.43-1.82-.89-2.7-1.34l-1.1-.55Zm-1.66-.56l.1-.15c.83-1.17,2.5-2.11,3.71-2.09,1.4.02,2.83.04,4.2.06h.23s1.83.03,1.83.03l.07.35-10.16,1.79Zm2.58-11.42c.42-.41,1.25-.51,1.81-.28.11.04.21.1.29.17l.03.03c.23.21.36.52.37.88.01.41-.15.83-.43,1.12-.6.63-1.73.8-2.24.35-.2-.19-.31-.51-.31-.91,0-.53.19-1.07.49-1.36Z"/>
  </g>
</svg>