<?xml version="1.0" encoding="UTF-8"?>
<svg id="Layer_2" data-name="Layer 2" xmlns="http://www.w3.org/2000/svg" viewBox="0 0 110.55 136.03">
  <defs>
    <style>
      .cls-1 {
        fill: #c7a48b;
      }
    </style>
  </defs>
  <g id="BANNER_1" data-name="BANNER 1">
    <g>
      <path class="cls-1" d="m110.4,0l-.51.57c-.81.89-1.62,1.78-2.4,2.7-7.26,8.55-12.79,18.37-18.16,27.9-3.18,5.65-6.48,11.5-10.11,17.03-7.02,10.68-15.67,22.97-26.67,33.24-13.92,12.99-30.7,22.85-45.5,31.56-.54.32-1.32.37-2.2.42-.14,0-.27.02-.41.03,0-.18,0-.36,0-.54,0-.88,0-1.72.3-2.35l1.44-3.08c3.09-6.61,6.3-13.45,9.78-19.98,4.97-9.32,10.12-18.96,15.98-28.17,7.59-11.9,18.32-22.45,31.9-31.37,11.14-7.32,22.71-14.42,34.02-21.37l8.47-5.21c.94-.58,2.13-.88,3.29-1.17.26-.06.51-.13.77-.2Zm-34.22,50.05c.26.04.51-.08.65-.31l23.43-39.36c.17-.29.1-.65-.16-.85-.05-.04-.24-.12-.31-.13-.2-.03-.41.04-.55.19-2.13,2.17-4.19,4.3-6.26,6.44-4.75,4.91-9.23,9.54-13.97,13.99-3.59,3.37-5.12,7.25-4.82,12.24.1,1.59.23,3.17.37,4.82l.17,2.07c.02.26.19.48.43.56,0,0,1,.34,1.02.35Zm-17.76-14.46l1.18-.16c8.48-1.14,16.49-2.21,22.46-9.82,2.58-3.28,5.74-6.23,8.81-9.08,1.43-1.33,2.86-2.66,4.24-4.03.32-.32.62-.65,1.01-1.07l.44-.49c.22-.24.23-.61.03-.85-.1-.13-.25-.21-.41-.23-.15-.02-.3.01-.43.09-3.52,2.17-7.18,4.26-10.75,6.3-9.29,5.32-18.89,10.82-27.1,18.21-.21.2-.27.5-.15.76.09.2.28.34.5.37h.18Zm-16.85,16.34c1.62-.36,3.24-.71,4.88-1.06,4.47-.96,9.09-1.95,13.58-3.15,1.17-.31,2.03-1.37,2.87-2.42.29-.36.58-.72.88-1.03,2.01-2.11,4-4.22,6.09-6.44l2.6-2.76c.19-.2.24-.51.1-.76-.1-.18-.28-.3-.48-.33-.04,0-.16,0-.2,0-1.37.24-2.75.47-4.13.7l-.61.1c-4.16.69-8.46,1.4-12.67,2.36-1.46.33-2.64,1.54-3.78,2.71-.26.26-.51.52-.76.77-2.31,2.23-4.57,4.51-6.83,6.79l-2.67,2.68c-.22.22-.25.58-.07.84l.53.75c.1.15.26.25.44.27.04,0,.19,0,.23-.01Zm21.09,16.28s.12.06.17.07c.24.03.47-.07.61-.26l2.59-3.51c2.74-3.71,5.48-7.41,8.16-11.15.44-.61.36-1.46.28-2.22l-.03-.3c-.25-3.08-.52-6.16-.8-9.37l-.35-4.03c-.02-.25-.19-.47-.56-.59-.21-.03-.42.05-.57.21-.98,1.06-1.96,2.09-2.96,3.12-2.34,2.43-4.55,4.72-6.42,7.34-1.35,1.88-2.19,4.78-2.24,7.76-.07,3.68.47,7.55,1.74,12.52.06.23.23.41.34.42,0,0,.02,0,.03,0Zm-35.38,3.85c1.29-.18,2.6-.29,3.98-.4,5.55-.44,11.29-.9,15.14-7.04,1.62-2.58,3.79-4.92,5.9-7.18,1.07-1.15,2.14-2.29,3.15-3.48.62-.73,1.17-1.5,1.74-2.31.26-.38.54-.76.82-1.14.16-.21.17-.5.03-.73-.1-.17-.27-.28-.46-.3-.04,0-.17,0-.21,0l-4.43.8c-4.56.82-9.02,1.63-13.47,2.51-.93.18-1.97.92-2.57,1.83-2.9,4.35-6.69,10.15-10.27,16.47-.12.22-.11.48.03.68.11.15.27.25.45.28h.18Zm19.38,13.07c.2.03.41-.04.56-.19l3.18-3.28c3.31-3.4,6.73-6.92,10.04-10.51.78-.84.8-2.41.69-3.58-.36-3.64-.79-7.27-1.23-10.98l-.47-4.01c-.03-.26-.21-.47-.56-.56-.22-.03-.45.06-.59.23l-3.22,3.9c-3.45,4.16-7.36,8.88-11.06,13.49-.7.88-.87,2.32-.73,3.37.38,2.76.87,5.51,1.33,8.17l.52,2.98c.03.21.17.39.37.49l1,.46s.14.05.17.05Zm-35.33,19.07l28.73-31.55c.18-.2.22-.49.1-.73-.1-.19-.28-.33-.49-.35q-.06,0-2.05.17l-2.02.18c-3.18.29-5.94.53-8.7.91-1.08.15-2.17,1.19-2.66,2.1-3.93,7.41-7.81,14.85-11.68,22.28l-2.95,5.67c-.14.27-.08.59.15.79l.66.57c.05.05.27.15.34.16.21.03.42-.05.57-.21Zm-4.04,7.28c.23-.11.44-.21.79-.36.5-.22.97-.43,1.4-.72l11.62-7.75c7.22-4.82,14.43-9.64,21.67-14.43,1.96-1.29,2.42-2.66,1.71-5.04-.67-2.22-1.08-4.56-1.49-6.83-.17-.96-.34-1.91-.53-2.85-.05-.24-.22-.43-.55-.52-.21-.03-.42.05-.57.2L6.54,110.46c-.21.23-.23.58-.05.83.1.14.26.24.43.26.07.01.31-.03.37-.06Z"/>
      <path class="cls-1" d="m110.55,1.87l-.54.19c-.86.3-1.71.6-2.55.93-7.85,3.05-15.02,7.55-21.97,11.91-4.12,2.59-8.39,5.27-12.77,7.62-8.45,4.53-18.57,9.55-29.51,12.39-13.84,3.59-28.44,4.1-41.33,4.54-.47.02-1-.23-1.61-.51-.09-.04-.19-.09-.28-.13.07-.12.13-.24.2-.36.32-.58.62-1.13,1.04-1.44l2.05-1.52c4.41-3.26,8.97-6.62,13.61-9.69,6.62-4.37,13.47-8.9,20.63-12.87,9.27-5.14,20.13-8.26,32.29-9.29,9.98-.84,20.15-1.39,30.1-1.93l7.46-.41c.83-.05,1.72.18,2.59.41.19.05.39.1.58.15Zm-40.5,20.79c.16.11.37.13.54.03l29.56-17.59c.21-.13.3-.39.2-.62-.02-.04-.12-.17-.16-.2-.12-.09-.28-.12-.43-.07-2.18.67-4.3,1.34-6.44,2.01-4.89,1.54-9.51,3-14.22,4.23-3.58.94-5.98,2.95-7.56,6.35-.5,1.08-.98,2.18-1.48,3.31l-.63,1.43c-.08.18-.05.38.08.53,0,0,.54.58.55.59Zm-6.54-15.9l.83.32c6,2.29,11.67,4.45,18.34,1.56,2.88-1.24,6.02-2.06,9.06-2.84,1.42-.37,2.84-.73,4.24-1.14.32-.09.64-.21,1.05-.35l.47-.16c.23-.08.37-.32.32-.55-.02-.12-.09-.23-.19-.3-.09-.07-.2-.1-.32-.09-3.1.17-6.26.24-9.35.31-8.03.19-16.34.38-24.4,2.32-.21.05-.36.23-.37.45-.01.17.06.33.2.42l.12.06Zm-16.97,4.75c1.2.34,2.39.69,3.6,1.05,3.29.97,6.7,1.97,10.09,2.79.88.21,1.83-.18,2.76-.57.32-.13.64-.27.95-.37,2.08-.67,4.15-1.36,6.32-2.07l2.7-.89c.2-.06.34-.25.34-.47,0-.15-.08-.3-.2-.39-.02-.02-.11-.06-.14-.07-.99-.33-1.99-.68-2.98-1.02l-.44-.15c-2.99-1.03-6.08-2.1-9.21-2.98-1.08-.3-2.29.07-3.47.43-.27.08-.53.16-.78.23-2.32.64-4.63,1.34-6.94,2.03l-2.72.81c-.23.07-.37.29-.34.53l.08.68c.02.14.08.26.19.34.03.02.13.07.16.08Zm8.09,18.3s.06.08.09.11c.14.11.33.12.5.05l2.97-1.39c3.13-1.47,6.27-2.93,9.38-4.44.51-.25.76-.83.98-1.36l.09-.21c.94-2.12,1.86-4.25,2.83-6.47l1.21-2.79c.08-.18.04-.38-.16-.59-.13-.09-.3-.12-.45-.07-1.02.35-2.04.67-3.07,1-2.41.76-4.69,1.49-6.87,2.54-1.56.76-3.15,2.37-4.26,4.32-1.36,2.41-2.39,5.15-3.33,8.89-.04.17,0,.35.07.4,0,0,.01,0,.02,0Zm-24.73-10.12c.92.34,1.82.74,2.77,1.16,3.82,1.69,7.77,3.45,12.51.77,1.99-1.13,4.26-1.89,6.46-2.63,1.12-.37,2.23-.75,3.32-1.17.67-.26,1.31-.57,1.98-.9.31-.15.63-.31.95-.46.18-.08.29-.27.28-.47,0-.15-.08-.28-.2-.36-.02-.02-.11-.06-.14-.07l-3.21-1.06c-3.31-1.09-6.54-2.16-9.79-3.16-.68-.21-1.63-.1-2.35.28-3.47,1.83-8.05,4.3-12.68,7.19-.16.1-.24.28-.23.46.02.14.09.26.2.34l.12.06Zm8.11,15.56c.13.09.29.12.44.07l3.28-1.03c3.4-1.06,6.91-2.16,10.39-3.34.81-.28,1.39-1.3,1.74-2.12,1.07-2.53,2.08-5.08,3.12-7.69l1.13-2.81c.07-.18.03-.39-.17-.57-.13-.1-.32-.12-.47-.06l-3.52,1.42c-3.77,1.51-8.04,3.23-12.13,4.94-.78.33-1.41,1.22-1.69,1.96-.74,1.96-1.4,3.95-2.04,5.87l-.72,2.15c-.05.15-.03.32.07.45l.49.66s.08.08.1.09Zm-30.15-.06l30.26-10.54c.19-.07.32-.24.33-.44,0-.16-.07-.32-.2-.41t-1.41-.62l-1.4-.6c-2.2-.95-4.11-1.78-6.07-2.51-.76-.29-1.86,0-2.51.44-5.25,3.48-10.47,7-15.69,10.53l-3.98,2.68c-.19.13-.26.36-.19.58l.23.62c.02.05.12.19.17.22.13.09.3.12.45.07Zm-5.28,3.36c.19,0,.37.02.65.04.41.03.79.06,1.18.03l10.44-.96c6.49-.6,12.98-1.2,19.47-1.76,1.76-.15,2.55-.89,2.93-2.72.35-1.71.92-3.4,1.46-5.04.23-.69.46-1.39.67-2.07.05-.18,0-.37-.18-.54-.13-.1-.3-.12-.45-.07L2.45,37.6c-.22.07-.36.3-.33.53.02.13.09.25.19.33.04.03.21.09.27.09Z"/>
      <path class="cls-1" d="m95.05,27.69l-.2.53c-.32.85-.64,1.69-.93,2.55-2.73,7.97-3.91,16.35-5.05,24.48-.68,4.82-1.38,9.81-2.4,14.67-1.98,9.39-4.66,20.35-9.54,30.55-6.17,12.89-15.2,24.39-23.16,34.53-.29.37-.82.62-1.43.9-.09.04-.19.09-.28.13-.05-.13-.1-.25-.15-.38-.24-.62-.47-1.2-.43-1.73l.16-2.55c.35-5.47.72-11.13,1.36-16.65.92-7.88,1.87-16.03,3.46-24.07,2.04-10.4,6.65-20.72,13.7-30.67,5.78-8.17,11.92-16.31,17.93-24.26l4.49-5.96c.5-.66,1.25-1.2,1.98-1.72.16-.11.32-.23.48-.35Zm-10.2,44.37c.19-.05.33-.2.37-.4l5.59-33.94c.04-.25-.11-.48-.34-.55-.05-.01-.21-.02-.25,0-.15.04-.27.14-.33.28-.9,2.1-1.75,4.15-2.61,6.22-1.97,4.73-3.83,9.2-5.93,13.6-1.59,3.34-1.59,6.48-.02,9.87.5,1.08,1.03,2.15,1.58,3.27l.69,1.4c.08.17.26.28.46.27,0,0,.79-.03.81-.04Zm-16.38-5.24l.78-.43c5.62-3.12,10.92-6.06,13.01-13.02.9-3,2.31-5.93,3.67-8.76.64-1.32,1.27-2.64,1.86-3.98.14-.31.26-.62.41-1.03l.18-.46c.09-.23,0-.49-.22-.6-.11-.06-.23-.08-.35-.05-.11.03-.21.09-.28.18-1.87,2.48-3.85,4.94-5.79,7.35-5.03,6.26-10.24,12.74-13.95,20.16-.09.2-.05.43.1.57.12.12.29.16.45.12l.12-.05Zm-7.3,16.04c1.03-.7,2.07-1.38,3.12-2.08,2.86-1.9,5.82-3.86,8.63-5.92.73-.54,1.04-1.52,1.35-2.48.11-.33.21-.66.33-.96.83-2.02,1.64-4.05,2.49-6.17l1.06-2.64c.08-.19.03-.42-.14-.56-.12-.1-.28-.14-.43-.1-.03,0-.11.04-.14.06-.9.54-1.8,1.08-2.7,1.62l-.4.24c-2.72,1.62-5.53,3.3-8.21,5.12-.93.63-1.42,1.8-1.9,2.93-.11.26-.21.51-.32.75-1,2.19-1.96,4.4-2.92,6.62l-1.13,2.61c-.09.22-.02.47.18.6l.58.38c.11.08.25.1.38.07.03,0,.13-.05.16-.07Zm19.21,5.6s.1,0,.14,0c.17-.04.31-.18.36-.35l.85-3.16c.9-3.34,1.8-6.68,2.65-10.03.14-.55-.15-1.12-.41-1.63l-.1-.2c-1.02-2.09-2.05-4.17-3.13-6.33l-1.35-2.72c-.09-.17-.27-.28-.55-.26-.16.04-.28.15-.34.3-.39,1.01-.8,2-1.21,2.99-.97,2.34-1.88,4.55-2.48,6.89-.43,1.68-.22,3.94.56,6.04.96,2.59,2.39,5.15,4.65,8.28.1.14.27.22.35.2,0,0,.01,0,.02,0Zm-23.68,12.39c.85-.48,1.74-.91,2.68-1.37,3.76-1.83,7.64-3.72,8.65-9.07.42-2.25,1.3-4.48,2.16-6.63.43-1.1.87-2.19,1.25-3.29.23-.68.41-1.37.59-2.09.08-.34.17-.68.26-1.02.05-.19-.02-.4-.18-.52-.12-.09-.27-.12-.41-.08-.03,0-.12.04-.14.06l-2.88,1.78c-2.96,1.83-5.86,3.61-8.73,5.45-.6.38-1.12,1.18-1.3,1.98-.84,3.83-1.89,8.93-2.67,14.33-.02.19.06.37.21.47.12.08.26.1.39.07l.13-.05Zm17.13,3.83c.15-.04.28-.14.34-.29l1.33-3.17c1.38-3.28,2.81-6.68,4.14-10.1.31-.8-.1-1.91-.5-2.69-1.25-2.45-2.54-4.87-3.87-7.34l-1.43-2.67c-.09-.17-.28-.27-.54-.24-.16.04-.3.16-.35.32l-1.19,3.61c-1.27,3.85-2.71,8.22-4.04,12.46-.25.81.02,1.86.41,2.55,1.02,1.82,2.11,3.61,3.17,5.34l1.18,1.94c.08.14.23.23.39.24l.83.05s.11,0,.13-.01Zm-19.47,23.02l11.44-29.93c.07-.19.02-.4-.13-.54-.12-.11-.29-.15-.44-.11t-1.38.68l-1.36.68c-2.15,1.07-4,2-5.83,3.02-.71.4-1.19,1.43-1.28,2.2-.72,6.26-1.39,12.52-2.06,18.78l-.51,4.77c-.02.22.11.44.32.51l.62.22c.05.02.23.03.28.02.16-.04.28-.15.34-.3Zm-.83,6.2c.13-.14.25-.27.45-.47.29-.29.56-.56.78-.89l6-8.6c3.72-5.35,7.44-10.7,11.19-16.02,1.02-1.44.96-2.52-.19-3.99-1.08-1.37-2.01-2.89-2.91-4.37-.38-.62-.76-1.25-1.15-1.85-.1-.16-.28-.24-.53-.21-.16.04-.28.15-.34.3l-14.12,35.59c-.09.22,0,.47.19.59.11.07.25.09.38.06.05-.01.21-.1.24-.14Z"/>
    </g>
  </g>
</svg>