<?xml version="1.0" encoding="UTF-8"?>
<svg id="Layer_2" data-name="Layer 2" xmlns="http://www.w3.org/2000/svg" viewBox="0 0 208.82 226.44">
  <defs>
    <style>
      .cls-1 {
        fill: #967053;
        font-family: EBGaramond-Bold, 'EB Garamond';
        font-size: 23.91px;
        font-variation-settings: ';
        font-weight: 700;
      }
    </style>
  </defs>
  <g id="BANNER_2" data-name="BANNER 2">
    <g>
      <text class="cls-1" transform="translate(27.74 99.03) rotate(-59.25)"><tspan x="0" y="0">T</tspan></text>
      <text class="cls-1" transform="translate(35.73 85.24) rotate(-48.25)"><tspan x="0" y="0">H</tspan></text>
      <text class="cls-1" transform="translate(48.17 71.58) rotate(-38.06)"><tspan x="0" y="0">E</tspan></text>
      <text class="cls-1" transform="translate(58.77 63.51) rotate(-32.04)"><tspan x="0" y="0"> </tspan></text>
      <text class="cls-1" transform="translate(62.69 60.12) rotate(-22.76)"><tspan x="0" y="0">W</tspan></text>
      <text class="cls-1" transform="translate(84.61 51.41) rotate(-11.14)"><tspan x="0" y="0">E</tspan></text>
      <text class="cls-1" transform="translate(97.46 48.63) rotate(-1.2)"><tspan x="0" y="0">D</tspan></text>
      <text class="cls-1" transform="translate(115.03 48.18) rotate(10.14)"><tspan x="0" y="0">D</tspan></text>
      <text class="cls-1" transform="translate(132.44 51.61) rotate(18.46)"><tspan x="0" y="0">I</tspan></text>
      <text class="cls-1" transform="translate(140.32 53.78) rotate(27.05)"><tspan x="0" y="0">N</tspan></text>
      <text class="cls-1" transform="translate(156.87 62.27) rotate(38.25)"><tspan x="0" y="0">G</tspan></text>
      <text class="cls-1" transform="translate(169.79 72.87) rotate(45.31)"><tspan x="0" y="0"> </tspan></text>
      <text class="cls-1" transform="translate(173.74 76.24) rotate(52.69)"><tspan x="0" y="0">O</tspan></text>
      <text class="cls-1" transform="translate(184.24 90.29) rotate(62.38)"><tspan x="0" y="0">F</tspan></text>
    </g>
  </g>
</svg>