<?xml version="1.0" encoding="UTF-8"?>
<svg id="Layer_2" data-name="Layer 2" xmlns="http://www.w3.org/2000/svg" viewBox="0 0 300.69 134.36">
  <defs>
    <style>
      .cls-1 {
        fill: #826148;
      }
    </style>
  </defs>
  <g id="BANNER_1" data-name="BANNER 1">
    <g>
      <g>
        <path class="cls-1" d="m245.89,47.11c-1.57-.15-3.08-.35-4.6-.44-4.4-.25-8.8-.68-13.19-.61-4.92.07-9.67,1.21-13.94,3.86-3.08,1.91-5.19,4.55-5.89,8.2-.04.24-.49.61-.65.57-.47-.12-1.08-.32-1.28-.68-.24-.44-.22-1.1-.12-1.63.51-2.74,2.05-4.88,4.15-6.61,3.12-2.57,6.84-3.84,10.72-4.7,5.55-1.23,11.17-1.26,16.8-.86,2.83.21,5.66.46,8.53.7.45-1.63.85-3.2,1.34-4.74.52-1.64,1.11-3.25,1.7-4.86.14-.38.34-.74.56-1.08.44-.68,1.1-.91,1.87-.75.76.15,1.29.67,1.28,1.42-.03,2.15-.11,4.29-.29,6.43-.11,1.33-.44,2.63-.69,4.1,2.38.06,4.66.22,6.93.16,6.15-.16,12.13-1.22,17.73-3.9,7.73-3.71,12.87-9.64,14.69-18.1,1.3-6.07.43-11.86-3.44-16.9-2.1-2.73-4.77-4.75-8.36-4.99-1.11-.08-2.33.13-3.36.54-5.5,2.22-9.18,8.72-8.48,14.65.24,2.02.79,3.91,1.8,5.67.26.44.47.86,1.15.6.28-.1.67.12,1.06.2-.88,1.47-2.75,1.59-3.95.26-1.63-1.79-2.71-3.92-3.28-6.25-2.25-9.1,6.09-18.42,15.4-17.28,6.26.76,10.2,4.52,12.49,10.06,3.3,7.98,2.11,15.64-2.46,22.8-3.7,5.78-9.11,9.43-15.48,11.74-6.56,2.38-13.34,3.21-20.29,2.9-.84-.04-1.68,0-2.61,0-.4,1.72-.82,3.47-1.21,5.24-1.14,5.15-2.37,10.29-3.38,15.47-.75,3.88-.87,7.83-.31,11.76.11.74.44,1.45.77,2.49.77-.77,1.42-1.23,1.81-1.86.85-1.38,1.63-2.81,2.31-4.28.9-1.92,1.66-3.91,2.51-5.86,1.08-2.47,1.87-4.97,2.19-7.7.5-4.26,2.05-8.19,5.09-11.36,1.76-1.84,3.95-2.48,6.43-1.78,1.41.4,2.09,1.39,2.12,2.85.08,3.66-2.29,6.88-5.49,7.39-.54.09-1.12.01-1.85.01-.32,1.41-.68,2.86-.98,4.31-.64,3.03-.79,6.07-.09,9.12.08.33.17.67.29.99.62,1.6,1.71,2,3.02.96.96-.77,1.88-1.67,2.58-2.68,3-4.33,5.7-8.82,7.05-13.99.17-.67.5-.99,1.39-.54-.59,1.81-1.07,3.68-1.8,5.45-1.56,3.84-3.69,7.39-6.07,10.76-2.7,3.83-7.48,3.61-9.88-.41-.73-1.22-1.23-2.59-1.87-3.97-.13.28-.26.57-.39.86-1.25,2.83-2.44,5.68-3.77,8.47-.47,1-1.17,1.94-1.95,2.73-1.89,1.89-4.44,1.52-5.7-.82-2.14-3.94-2.72-8.2-2.53-12.62.01-.25.03-.5.04-.75,0-.03-.02-.06-.08-.27-.18.38-.3.64-.41.9-2.07,5.06-4.1,10.14-6.24,15.17-.58,1.37-1.37,2.68-2.26,3.88-1.48,2-4.31,2.06-5.94.16-1.72-2.01-2.6-4.47-2.78-7.05-.18-2.57.03-5.17.08-7.75,0-.27.04-.54-.16-.88-.63,1.41-1.29,2.8-1.87,4.23-.84,2.05-1.58,4.15-2.44,6.19-.42,1-1,1.94-1.55,2.88-1.54,2.64-5.6,2.26-6.91-.3-1.44-2.83-1.93-5.8-1.42-8.92.74-4.6,2.96-8.41,6.55-11.35.87-.71,1.98-1.23,3.06-1.54,2.8-.83,4.47.02,5.64,2.73.61-1.14,1.17-2.24,1.77-3.3.8-1.42,3.03-1.84,4.32-.86.66.5.63,1.2.51,1.88-.29,1.57-.63,3.12-.95,4.68-.92,4.45-1.61,8.93-1.21,13.49.15,1.7.51,3.38.77,5.07.1.02.21.05.31.07.39-.49.88-.93,1.16-1.48,1.23-2.39,2.46-4.77,3.57-7.21,2.27-4.98,4.53-9.96,6.63-15,.69-1.64.89-3.49,1.29-5.25.76-3.38,1.5-6.77,2.25-10.16.05-.21.08-.42.14-.73Zm-29.91,37.85c.28-.34.51-.54.66-.8.69-1.25,1.43-2.49,2.03-3.79,1.67-3.63,3.22-7.31,4.95-10.92.71-1.48.41-2.74-.34-3.97-.82-1.33-1.54-1.35-2.55-.16-2.57,3.01-4.23,6.46-5.05,10.33-.65,3.07-.6,6.12.31,9.3Zm50.82-33.8c-1.45,1.44-3.35,5.49-3.73,7.87,1.41.44,3.13-.67,4.18-2.68,1.14-2.18.99-4.09-.45-5.2Z"/>
        <path class="cls-1" d="m171.86,118.04c-1.25,1.94-2.45,4.07-3.92,6-1.11,1.45-2.48,2.73-3.88,3.89-1.3,1.07-2.91,1.56-4.63,1.53-1.78-.04-3.17-.81-3.91-2.44-1.6-3.53-1.95-7.24-1.02-10.98.75-2.98,3.46-4.89,6.9-4.87,1.97.01,3.95.49,5.91.78.4.06.78.22,1.4.4,1.01-3.25,2-6.48,3.02-9.77-1.1-.14-2.04-.18-2.93-.39-6.83-1.65-11.62-5.81-14.39-12.18-3.26-7.51-3.28-15.24-.95-23.01,1.44-4.79,3.49-9.28,6.46-13.35,7.27-9.98,19.95-10.03,28.05-4.37,4.73,3.3,7.98,7.79,10.27,13.01,3.1,7.07,4.69,14.48,4.88,22.19.14,5.99-.15,11.94-1.86,17.73-1.08,3.65-2.57,7.1-4.68,10.28-4.3,6.51-10.42,8.78-17.92,7.51-2.31-.39-4.54-1.3-6.79-1.96Zm5.86-18.35c2.06-1,3.65-2.29,5.08-3.79,6.95-7.29,9.05-20.2,4.76-29.54-2.33-5.08-6.43-7.51-11.92-7.79-.21-.01-.4-.13-.61-.2,0-.11,0-.22.01-.32.52-.08,1.05-.28,1.57-.23,5.59.49,10.13,2.75,12.67,8,2.99,6.2,3.35,12.69,1.53,19.28-2,7.27-5.89,13.06-13.08,16.17-.27.11-.48.52-.58.84-1.21,3.81-2.4,7.62-3.59,11.44-.07.22-.15.45-.26.78,2.25.89,4.4,1.82,6.61,2.59,2.15.75,4.23.47,6.22-.71,2.45-1.45,4.35-3.45,5.91-5.79,2.11-3.18,3.66-6.63,4.67-10.29,2.49-9.02,2.4-18.1.48-27.2-1.21-5.71-3.22-11.11-6.66-15.88-2.64-3.67-5.88-6.64-10.16-8.32-4.03-1.58-7.76-.94-11.13,1.64-1.35,1.03-2.61,2.26-3.68,3.58-4.36,5.38-6.96,11.61-8.42,18.32-1.17,5.39-1.22,10.8.39,16.13,1.62,5.37,4.68,9.56,9.91,11.95,1.4.64,2.86,1.03,4.47,1,.28-1.29.52-2.51.8-3.72,1.5-6.61,2.87-13.25,4.56-19.81.69-2.66,1.99-5.18,3.17-7.68.7-1.49,1.86-2.7,3.53-3.17.49-.14,1.06-.02,1.48-.01-.78,1.64-1.56,3.06-2.14,4.56-.52,1.36-.93,2.79-1.21,4.23-1.1,5.8-2.14,11.61-3.2,17.42-.39,2.11-.78,4.23-1.2,6.53Zm-10.19,15.46c-1.79-.73-3.5-1.49-5.25-2.13-1.31-.47-2.53-.07-3.59.78-1.48,1.18-2.17,2.78-2.37,4.62-.3,2.82-.18,5.62,1.43,8.05,1.4,2.11,1.73,1.79,3.09.34,3.08-3.3,4.92-7.33,6.7-11.66Z"/>
      </g>
      <path class="cls-1" d="m102.38,81.09c-.85.31-1.64.54-2.37.87-4.56,2.06-8.91,4.45-12.11,8.44-1.01,1.26-1.84,2.68-2.68,4.06-.33.55-.74.86-1.27.56-.24-.14-.39-.74-.32-1.08.59-2.81,1.99-5.18,4.13-7.08,3.72-3.31,7.98-5.68,12.73-7.17.36-.11.71-.23,1.06-.34.14-1.04.44-1.29,1.46-.98.85.26,1.63.2,2.47,0,5.71-1.32,11.53-1.85,17.37-2.24,6.67-.45,13.38-.57,19.93-2.07,7.45-1.71,14.35-4.62,20.12-9.75,4.23-3.77,7.47-8.24,8.88-13.83.55-2.17.77-4.38.28-6.59-.16-.72-.46-1.44-.83-2.07-1.39-2.38-2.75-2.95-5.37-2.19-.94.27-1.81.81-2.74,1.17-.42.16-.9.17-1.35.25-.06-.12-.12-.25-.19-.37.33-.32.6-.74.99-.94,1.88-.97,3.88-1.59,6.03-1.49,2.44.11,4.95,2.48,5.48,5.31.66,3.54.09,6.99-1.26,10.28-2.64,6.43-7.15,11.33-12.92,15.07-6.43,4.17-13.55,6.6-21.1,7.56-5.82.74-11.7,1.06-17.55,1.55-5.08.42-10.15.88-15.13,2.06-.24.06-.47.14-.81.24,1.66,3.69.9,7.31-.1,10.93-.29,1.05-.61,2.11-.79,3.18-.72,4.15-1.48,8.3-2.05,12.47-.36,2.68-.06,5.38.65,7.99.49,1.82,1.04,1.97,2.44.69.64-.58,1.22-1.26,1.7-1.99,1.91-2.89,3.22-6.07,4.26-9.35.39-1.23.26-2.61.52-3.89.95-4.65,1.97-9.28,2.95-13.92.21-.98.39-1.96.47-2.96.06-.72.42-.9,1.04-.86,1.23.08,2.32,1.05,2.33,2.51.02,1.73-.12,3.5-.47,5.19-1.04,5.02-2.23,10-3.34,15-.15.68-.22,1.38-.12,2.11.71-1.66,1.42-3.31,2.12-4.97,1.23-2.89,2.72-5.63,4.65-8.11.52-.66,1.09-1.29,1.69-1.87.88-.84,1.97-1.05,3.14-.84,1.39.26,2.06,1.08,1.79,2.46-.25,1.31-.67,2.6-1.08,3.88-.82,2.56-1.73,5.1-1.83,7.82-.03.72.08,1.44.12,2.17.1.02.2.03.3.05.38-.63.81-1.24,1.14-1.9,1.13-2.23,2.24-4.47,3.31-6.73.2-.43.24-.96.24-1.44,0-3.45.9-6.61,3.06-9.35,1.37-1.74,3.15-2.51,5.37-2.16,1.3.21,1.92.86,2.1,2.16.35,2.48-.6,4.53-2.41,6.08-.74.63-1.9.78-3.07,1.22-.59,2.61-.37,5.43.78,8.15.39.93.75,1,1.61.5.38-.22.76-.46,1.05-.77,2.61-2.8,5.1-5.7,6.17-9.49.2-.69.62-.79,1.2-.68.64.12.44.61.32.97-.43,1.3-.72,2.69-1.41,3.84-1.17,1.95-2.49,3.83-3.94,5.58-2.91,3.52-7.68,2.83-9.61-1.29-.2-.42-.37-.86-.63-1.48-.21.41-.36.68-.5.97-1.03,2.1-1.97,4.26-3.13,6.29-.97,1.69-3.13,1.83-4.46.38-.51-.56-1.04-1.26-1.18-1.98-.28-1.39-.56-2.87-.36-4.24.3-2.08,1.01-4.11,1.55-6.15.07-.26.19-.5.29-.75-.09-.05-.18-.1-.27-.16-1.07,1.63-2.3,3.18-3.16,4.92-1.64,3.3-3.07,6.7-4.59,10.06-.18.4-.38.79-.57,1.18-.36.72-1,.77-1.68.71-.71-.07-1.03-.52-1.1-1.19-.11-1.14-.21-2.27-.49-3.44-.15.39-.27.8-.44,1.18-.77,1.67-1.43,3.41-2.37,4.98-.62,1.04-1.53,1.99-2.5,2.73-1.64,1.26-3.76.99-5.18-.51-1.77-1.87-2.57-4.18-2.88-6.69-.56-4.54.45-8.9,1.59-13.23.84-3.17,1.86-6.29,2.8-9.43.56-1.86.73-3.72.04-5.74Zm33.13,13.48c1.3.25,2.38-.63,3.23-2.39.77-1.58.61-3.04-.63-4.08-.88,2.2-1.73,4.31-2.6,6.47Z"/>
      <g>
        <path class="cls-1" d="m0,118.55c.12-.48.25-.96.36-1.45.15-.64.5-.82,1.13-.5-.91,2.83-.06,5.46,1.09,7.97.96,2.09,2.15,4.09,3.35,6.06,1.6,2.62,4.05,3.37,6.97,2.85,3.24-.57,6.09-2.04,8.73-3.94,3.27-2.35,6.11-5.16,8.59-8.33.09-.12.16-.25.25-.37-1.06-.68-2.14-1.27-3.09-2-5.39-4.17-8.63-9.73-9.79-16.36-1.93-11.11.99-20.87,8.87-29.03,2.15-2.22,4.71-3.83,7.85-4.27,4.36-.62,7.8,1.2,9.79,5.14,1.4,2.78,1.97,5.79,2.22,8.86.62,7.64-1.03,14.91-3.66,22.01-2.02,5.46-4.77,10.53-8.34,15.14-.07.1-.13.2-.26.4,2.49.76,4.96,1.14,7.5.91,16.48-1.45,29.64-14.29,31.45-30.73.78-7.08-.67-13.8-3.54-20.26-3.05-6.87-7.22-13.05-11.7-19.06-2.71-3.63-5.3-7.35-7.77-11.15-2.04-3.14-3.19-6.63-3.1-10.46.15-6.57,5.98-12.51,12.54-12.79,2.44-.1,4.8.19,7.07,1.13,8.17,3.4,10.75,14.56,4.87,21.18-1.96,2.2-4.5,3.21-7.4,3.28-.63.01-1.28-.25-1.91-.39,0-.1.02-.21.03-.31.18-.04.39-.15.55-.1,2.68.85,4.94-.21,6.81-1.87,3.3-2.93,4.58-6.73,3.74-11.09-.84-4.41-3.17-7.83-7.36-9.66-5.65-2.47-10.2-.3-12.87,4.52-1.63,2.94-1.75,6.14-.87,9.38,1.15,4.22,3.53,7.78,6.09,11.22,3.33,4.46,6.83,8.79,10.04,13.33,3.82,5.4,7.05,11.16,9.06,17.51,5.23,16.53-1.34,33.25-16.55,42.11-6.08,3.54-12.63,5.62-19.71,5.53-2.38-.03-4.76-.57-7.13-.96-.57-.09-.89-.05-1.27.39-3.47,3.97-7.38,7.39-12.16,9.7-3.2,1.54-6.54,2.52-10.14,2.2-2.15-.19-3.98-1.05-5.24-2.88-2.21-3.21-4.02-6.62-4.83-10.48-.1-.48-.17-.97-.26-1.45v-.94Zm31.42,1.1c.26-.35.51-.67.74-1,4.44-6.26,7.58-13.14,9.63-20.52,1.64-5.91,2.52-11.92,1.56-18.08-.45-2.87-1.17-5.64-3.14-7.9-1.78-2.03-3.97-2.71-6.59-1.89-2.17.68-3.99,1.91-5.62,3.45-4.33,4.1-7.03,9.15-8.4,14.9-2.04,8.54-1.06,16.64,3.96,24.03,2.02,2.97,4.58,5.35,7.87,6.99Z"/>
        <path class="cls-1" d="m100.49,53.48c.39-.85.83-1.84,1.31-2.81.7-1.39,3.04-1.91,4.19-.87.28.25.36.92.27,1.34-.44,1.88-1.03,3.74-1.47,5.62-.94,3.95-2.01,7.89-1.79,12.01.1,1.78.37,3.53,1.34,5.18,1.3-.63,2.18-1.6,2.86-2.72,1.29-2.14,2.42-4.38,3.76-6.48,1.21-1.89,1.48-3.74,1.03-5.98-.77-3.86-.24-7.72.95-11.47.51-1.61,1.42-2.98,2.67-4.12.89-.81,1.93-1.26,3.16-1.18,1.09.07,1.66.53,1.47,1.6-.49,2.69-1.1,5.37-1.76,8.03-.27,1.12-.69,2.22-1.2,3.25-.9,1.81-1.08,3.66-.81,5.64.31,2.31.82,4.55,1.93,6.62.93,1.71,1.77,1.86,3.01.34.88-1.07,1.62-2.31,2.21-3.57,2.05-4.38,3.26-9.04,4.32-13.75.27-1.18.48-2.38.73-3.61-.24-.09-.4-.17-.57-.21-1.73-.4-2.83-1.44-3.11-3.22-.3-1.89.35-3.47,1.86-4.63.79-.61,1.78-.71,2.68-.34.43.18.91.76.98,1.21.17,1.26.17,2.54.17,3.82,0,.62-.14,1.24-.24,2.06.6-.16,1.17-.21,1.63-.45.8-.42,1.59-.89,2.27-1.48.44-.38.83-.94,1-1.5.78-2.47,1.78-4.82,3.51-6.78,1.65-1.88,3.73-2.9,6.29-2.79,1.27.05,2.18.63,2.76,1.77,1.4,2.74.45,7.1-1.98,8.97-1.3,1-2.8,1.15-4.54.83-.33,1.61-.71,3.17-.96,4.76-.42,2.67-.65,5.36.32,7.97.3.81.68,1.62,1.15,2.35.64,1,1.43,1.28,2.5.72.94-.5,1.89-1.15,2.57-1.96,3.25-3.82,5.47-8.27,7.48-12.83.27-.61.5-1.1,1.38-.67-.1.43-.14.9-.32,1.32-1.83,4.43-3.91,8.73-6.84,12.56-1.63,2.13-3.77,3.13-6.46,2.83-1.32-.15-2.43-.74-3.38-1.68-3.28-3.24-4.6-7.21-4.38-11.75.04-.87.14-1.74.23-2.79-.49.32-.86.62-1.28.82-.73.34-1.47.76-2.24.88-.77.12-1,.44-1.14,1.15-1.08,5.56-2.37,11.07-4.53,16.32-.5,1.21-1.1,2.4-1.83,3.47-2.04,3-5.57,3.21-7.94.46-.99-1.15-1.71-2.52-2.57-3.83-.11.2-.28.49-.44.77-1.28,2.29-2.51,4.61-3.86,6.86-.52.87-1.22,1.68-1.98,2.36-1.92,1.7-4.48,1.39-5.96-.69-1.3-1.81-2.04-3.86-2.39-6.05-.02-.15-.05-.3-.25-.52-.13.28-.26.56-.38.84-1.04,2.34-2.03,4.7-3.14,7.01-.44.92-1.04,1.79-1.73,2.55-1.85,2.05-4.88,1.96-6.66-.18-1.44-1.73-2.13-3.85-2.43-6.02-.84-6.1.83-11.62,4.46-16.48,2.38-3.2,6.14-4.24,9.32-2.84.99.44,1.82,1.24,2.81,1.94Zm-10.27,23.82c.6-.53,1.16-.89,1.55-1.39.66-.83,1.35-1.68,1.77-2.63,1.66-3.77,3.22-7.58,4.82-11.38.06-.14.07-.3.1-.45.37-1.74.75-3.47,1.1-5.21.06-.29.1-.64,0-.9-.52-1.25-1.34-2.24-2.59-2.83-1.03-.49-2.05-.52-2.87.3-.81.8-1.68,1.65-2.18,2.64-2.65,5.29-4.03,10.87-3.34,16.83.2,1.69.5,3.4,1.65,5.02Zm55.03-43.03c-.27.37-.56.64-.69.97-.91,2.28-1.81,4.56-2.67,6.86-.22.59.44,1.14,1.16.92.54-.17,1.1-.48,1.51-.87,1.46-1.38,2.12-3.11,2.01-5.12-.05-1.04-.48-1.91-1.33-2.75Zm-26.67,10.4c-.17-.02-.34-.05-.51-.07-.42,2.06-.83,4.12-1.25,6.17.11.02.21.05.32.07.48-2.06.96-4.12,1.44-6.17Z"/>
      </g>
      <path class="cls-1" d="m267.45,99.28c-6.75-.19-13.4-1.14-20.03-2.24-6.05-1-12.13-1.82-18.29-1.38-6.21.45-12.1,1.91-17.1,5.9-1.9,1.51-3.52,3.28-4.59,5.5-.09.19-.46.43-.6.38-.27-.1-.69-.42-.67-.6.09-.85.14-1.77.51-2.51,1.38-2.76,3.59-4.79,6.2-6.37,4.67-2.83,9.84-4.11,15.22-4.6,8.11-.73,16.09.3,24.05,1.76,6.3,1.15,12.62,2.28,19.07,2.17,8.94-.15,16.56-3.23,22.25-10.35,3.23-4.04,5.27-8.6,5.08-13.87-.12-3.39-1.44-6.25-4.56-8.01-1.47-.83-2.9-.85-4.34.06-1.55.98-2.75,2.24-3.51,3.92-.52,1.15-.41,2.27.23,3.32.14.23.64.47.84.39.67-.28,1.27-.71,1.91-1.08.28-.16.57-.41.87-.43.34-.02.86.07.98.29.13.24-.04.74-.23,1.02-.83,1.23-4.3,2.12-6.19,1.64-1.92-.49-3.43-2.11-3.69-3.94-.21-1.49.4-2.7,1.33-3.77,2.48-2.87,5.67-4.15,9.41-3.98,5.8.27,9.37,4.51,9.09,10.74-.27,5.92-2.63,10.99-6.41,15.47-5.21,6.17-12.03,9.18-19.9,10.08-2.29.26-4.61.33-6.92.49Z"/>
    </g>
  </g>
</svg>