<?xml version="1.0" encoding="UTF-8"?>
<svg id="Layer_2" data-name="Layer 2" xmlns="http://www.w3.org/2000/svg" viewBox="0 0 246.45 172.93">
  <defs>
    <style>
      .cls-1 {
        fill: #826148;
      }
    </style>
  </defs>
  <g id="BANNER_2" data-name="BANNER 2">
    <g>
      <path class="cls-1" d="m82.83,111.63c-.96,3.86-1.47,7.69-1.04,11.61.27,2.48.64,4.95,2.1,7.08,1.95,2.83,2.68,3.1,5.17.46,2.59-2.74,4.13-6.15,5.45-9.63,1.43-3.78,2.73-7.62,4.07-11.44.14-.41.22-.88.19-1.31-.42-6.35.47-12.6,1.53-18.83,1.56-9.19,4.17-18.08,8.01-26.58,1.22-2.69,2.7-5.29,4.3-7.78,1.6-2.5,3.92-4.04,7.06-3.9,1.91.08,2.79.76,3.23,2.61.77,3.19.65,6.43.13,9.63-1.62,10-4.46,19.61-9.52,28.46-1.84,3.23-3.91,6.32-7.04,8.52-.21.15-.39.47-.43.73-.87,6.48-1.08,12.95.51,19.36.47,1.9,1.42,3.58,2.96,4.87.64.54,1.31.66,1.88.04,1.19-1.31,2.64-2.52,3.38-4.07,2.43-5.12,4.7-10.33,6.79-15.6.65-1.64.43-3.6.77-5.38.88-4.58,2.48-8.87,5.68-12.39,2.04-2.24,4.38-4.05,7.6-4.15,2.46-.07,3.58.64,4.06,3.03.35,1.75.33,3.59.33,5.38,0,.68-.44,1.29-1.48.96.36-2.55.07-4.98-1.98-7.2-1.04,1.34-2.11,2.51-2.94,3.84-2.96,4.72-4.25,10-4.99,15.45-.5,3.68-.16,7.26,1.22,10.72.19.48.45.94.75,1.36.63.86,1.51,1.18,2.44.63,1.01-.6,2.08-1.24,2.82-2.11,1.67-1.98,3.23-4.06,4.71-6.19,1.56-2.26,2.91-4.66,4.46-6.93,1.59-2.31,2.41-4.87,3.09-7.55.44-1.72.57-3.07-.23-4.84-2.48-5.49.21-13.33,5.32-16.5,1.89-1.18,3.95-1.45,6.11-1.03,1.45.29,2.41,1.21,3.07,2.51,1.29,2.56,1.23,5.32,1.25,8.06.01,1.54-.06,3.09-.1,4.83.36-.32.65-.53.88-.79,2.59-2.81,5.2-5.6,7.75-8.45.47-.53.82-1.25.99-1.94.62-2.44,1.24-4.91.87-7.47-.13-.9.36-1.19,1.12-1.29,2.23-.29,4,.89,4.58,3.14.58,2.26.22,4.51-.26,6.73-1.04,4.9-2.14,9.79-3.19,14.68-.18.83-.26,1.67-.19,2.57.59-1.66,1.19-3.32,1.78-4.98,2.03-5.78,4.01-11.6,7.48-16.73,1.6-2.36,3.35-4.63,5.23-6.77,1.56-1.79,4.43-2.13,6.59-1.12,1.12.52,1.8,1.4,1.69,2.63-.12,1.32-.33,2.66-.73,3.92-1.39,4.46-2.87,8.9-4.31,13.35-.31.95-.55,1.91-.63,2.95.76-1.62,1.49-3.24,2.27-4.85,3.27-6.73,6.83-13.28,11.71-19,1.27-1.49,2.68-2.88,4.1-4.23,1.49-1.42,3.34-1.52,5.22-1.05,1.41.35,2.19,1.24,2.01,2.67-.24,1.93-.52,3.93-1.25,5.72-1.78,4.4-3.79,8.7-5.76,13.02-1.95,4.29-3.98,8.56-4.68,13.29-.36,2.4-.28,4.79.35,7.29.48-.21.87-.37,1.26-.55,5.29-2.37,10.71-4.27,16.63-3.93,1.45.08,2.95.43,4.31.97,2.91,1.16,4.06,3.83,2.86,6.74-1.58,3.85-4.54,6.37-8.38,7.84-6.37,2.43-13.78.76-18.03-5.29-.1-.15-.23-.28-.47-.56-16.63,11.04-32.07,23.7-48.29,35.27.03.09.06.19.09.28,1.93.3,3.85.63,5.78.88,7.09.91,14.19,1.55,21.31.43,4.93-.77,9.59-2.32,13.68-5.31,2.6-1.9,4.64-4.26,5.89-7.26,1-2.42.95-4.69-.85-6.77-.87-1.01-1.72-2.05-2.52-3.11-.24-.33-.29-.8-.43-1.2.56-.04,1.12-.11,1.69-.1.14,0,.29.22.42.35.96.98,1.9,1.98,2.86,2.96,2.37,2.39,2.54,5.15,1.36,8.13-1.65,4.18-4.59,7.26-8.38,9.52-5.21,3.09-10.94,4.54-16.95,4.93-8.27.53-16.47-.22-24.62-1.59-1.3-.22-2.28-.03-3.38.74-8.9,6.32-17.96,12.41-27.58,17.6-6.91,3.73-13.97,7.1-21.63,9-5.24,1.3-10.52,1.89-15.87.66-4.49-1.03-8.12-3.37-10.76-7.18-3.6-5.2-3.59-10.67.01-15.88,4-5.79,9.65-9.22,16.22-11.3,6.98-2.21,14.15-2.51,21.38-2.14,8.78.45,17.37,2.19,26,3.72,2.92.52,5.84,1.06,8.76,1.64.76.15,1.32-.02,1.93-.48,10.09-7.58,20.17-15.17,30.32-22.67,6.84-5.05,13.79-9.95,21.22-14.12.13-.07.24-.16.42-.29-.37-1.08-.76-2.15-1.1-3.24-1.6-5.25-.95-10.41.97-15.38,1.81-4.66,4-9.18,6.01-13.76.89-2.04,1.76-4.09,2.63-6.14.17-.4.28-.82.22-1.35-.32.29-.65.57-.96.86-4.38,4.21-7.82,9.14-10.71,14.43-2.27,4.16-4.29,8.46-6.43,12.7-.52,1.03-1.01,2.07-1.59,3.06-.7,1.21-1.8,1.74-3.2,1.53-1.4-.22-2.08-1.17-2.39-2.47-.59-2.51-.32-5.02.02-7.53.69-5.03,2.09-9.87,3.92-14.59.12-.3.21-.62.11-1.08-.88.96-1.78,1.9-2.62,2.89-3.65,4.29-5.87,9.35-7.75,14.57-1.37,3.81-2.58,7.67-3.87,11.5-.25.74-.53,1.47-.79,2.2-.31.85-.88,1.34-1.83,1.34-.96,0-1.83-.26-2.2-1.2-.35-.88-.66-1.83-.72-2.77-.39-5.5-.2-10.98.77-16.42.06-.35.09-.71.18-1.37-1.6,1.77-2.98,3.34-4.4,4.89-1.26,1.37-2.58,2.68-3.81,4.06-.36.41-.68.98-.74,1.51-.56,4.73-1.35,9.41-3.08,13.88-.6,1.54-1.33,3.08-2.27,4.44-1.97,2.85-5.98,2.81-8.08.04-1.52-2.02-2.13-4.38-2.51-6.83-.03-.22-.05-.44-.09-.66-.01-.06-.09-.11-.23-.27-.92,1.5-1.79,2.99-2.72,4.44-1.84,2.87-3.69,5.74-5.59,8.58-.53.79-1.21,1.51-1.9,2.18-3.16,3.07-8.12,2.84-10.98-.51-1.94-2.28-3.08-4.96-3.91-7.95-.25.57-.51,1.13-.75,1.71-1.4,3.32-2.7,6.68-4.22,9.94-.74,1.6-1.74,3.12-2.84,4.5-1.46,1.84-3.41,2.26-5.61,1.47-2.7-.97-4.66-2.9-5.85-5.38-1.23-2.55-2.01-5.33-2.97-8.01-.11-.31-.17-.63-.34-1.27-.48,1.39-.83,2.5-1.24,3.59-1.45,3.85-2.79,7.75-4.43,11.52-.74,1.7-1.96,3.24-3.2,4.64-1.89,2.15-4.6,2.51-7.09,1.09-3.71-2.11-6.1-5.31-7.09-9.43-2.22-9.22-.56-17.84,4.49-25.79,1.93-3.04,4.77-4.73,8.56-4.36,2.52.24,4.06,1.53,4.3,3.99.33,3.46-.14,6.84-1.82,9.93-1.95,3.59-4.63,4.9-8.83,4.32Zm65.5,31.33c-.74-.16-1.17-.26-1.61-.34-5.25-.98-10.5-2.01-15.76-2.94-6.98-1.24-13.96-2.5-21.09-2.52-6.93-.02-13.72.75-20.09,3.73-4.87,2.28-8.85,5.56-11.43,10.36-2.03,3.76-2.21,7.59-.1,11.38,3.54,6.38,9.73,9.44,16.97,8.61,5.8-.67,11.18-2.62,16.4-5.1,8.38-3.97,16.21-8.88,23.83-14.12,4.25-2.92,8.43-5.93,12.89-9.07Zm-41.96-44.2c.11.07.21.15.32.22.3-.36.62-.7.9-1.07,1.4-1.91,2.96-3.73,4.16-5.76,4.82-8.16,7.5-17.07,8.94-26.39.49-3.2.76-6.42-.08-9.61-.21-.8-.57-1.56-.97-2.63-.56.83-1,1.33-1.28,1.91-.7,1.47-1.39,2.95-1.98,4.47-4.27,11.15-7.36,22.63-9.3,34.42-.24,1.48-.48,2.96-.72,4.44Zm102.04,6.27c.97,3.33,4.2,6.5,7.35,7.28,5.3,1.33,11.61-1.67,14.11-6.7,1.54-3.1.21-5.98-3.19-6.67-1.06-.22-2.22-.2-3.3-.05-5.52.78-10.26,3.44-14.96,6.14Zm-49.74-30.27c-2.78,2.7-5.46,9.85-5.02,13.26,3.61.72,1.59,3.32,1.68,5.37,1.68-.22,2.98-1.15,4.37-1.89,1.48-.79,2.24-1.84,2.13-3.61-.18-2.81-.04-5.64-.3-8.43-.18-1.9-1.04-3.63-2.86-4.71Zm-4.07,35.33c4.33-4.93,5.57-11.07,6.76-17.39-1.46.73-2.71,1.83-4.02,1.92-2.71.18-3.01,1.84-3.3,3.9-.56,3.86-.6,7.67.57,11.57Zm-65-14.49c-3.58,4.64-5.06,9.85-6.59,15.06,1.59.8,2.94.51,4.25-.31,3.75-2.35,5.62-8.66,3.72-12.68-.32-.68-.83-1.26-1.38-2.08Z"/>
      <path class="cls-1" d="m40.22,128.29c-1,3.37-1.87,6.8-3.05,10.11-1.5,4.22-3.21,8.38-4.94,12.52-.45,1.07-1.21,2.06-1.99,2.93-1.79,2.02-4.68,2.17-6.48.17-1.21-1.35-2.23-2.98-2.94-4.66-2.46-5.79-3.63-11.91-4.12-18.16-.53-6.75-.54-13.5.36-20.23.96-7.19,2.73-14.2,4.66-21.18,2.02-7.29,4.09-14.57,5.97-21.9.56-2.17.62-4.48.76-6.73.06-.95-.29-1.93-.49-3.12-1.05.49-1.86.83-2.64,1.23-3.59,1.86-6.54,4.51-9.03,7.65-8.23,10.4-13.06,22.12-13.45,35.48-.06,2.16.31,4.33.5,6.58-.71.2-1.02-.49-1.34-1.02-1.19-1.99-1.67-4.19-1.87-6.47-.53-6.02.48-11.84,2.37-17.53,2.65-7.94,6.4-15.26,12.1-21.47,2.56-2.78,5.54-5.04,9.07-6.5,2.3-.95,4.66-1.17,7.09-.66,2.65.55,4.24,2.17,4.82,4.78.65,2.92.34,5.84-.07,8.75-1.01,7.16-3.33,14-5.2,20.95-2.28,8.49-4.81,16.92-6.32,25.61-1.86,10.7-2.28,21.4-.07,32.1.4,1.94,1.07,3.86,1.91,5.66.72,1.56,1.68,1.67,2.67.28,1.38-1.95,2.64-4.04,3.59-6.23,3.06-7.11,4.97-14.61,7.14-22.01.51-1.73.73-3.45.79-5.24.25-7.49,2.05-14.7,4.46-21.74,1.52-4.45,3.44-8.77,5.2-13.14.16-.41.4-.8.62-1.18,1.2-2.05,2.62-2.64,4.94-2.09,1.42.33,1.76.83,1.31,2.22-1.22,3.82-2.53,7.6-3.75,11.42-2.44,7.68-4.79,15.4-5.73,23.43-1.03,8.81.22,17.33,3.77,25.47.43.97,1.03,1.89,1.69,2.74,1.19,1.55,1.87,1.64,3.16.16,1.16-1.33,2.2-2.81,3-4.38,2.53-4.97,3.8-10.37,4.82-15.81,2.29-12.26,3.06-24.67,3.79-37.09.54-9.19,1.25-18.37,1.88-27.55.03-.4.02-.79.03-1.29-.65.02-1.24.03-1.82.05-5.18.19-10.16-.6-14.7-3.24-6.49-3.78-9.78-9.62-10.67-16.95-.66-5.36.22-10.53,2.12-15.52,2.85-7.5,7.14-14.04,13.7-18.82,4.01-2.92,8.52-4.97,13.27-6.43.9-.28,1.88-.46,2.93.49-.85.07-1.51.01-2.09.2-1.16.37-2.3.84-3.42,1.34-5.83,2.57-11.26,5.73-15.24,10.89-6.01,7.8-9.24,16.52-8.09,26.45.87,7.46,4.32,13.44,11.2,17.05,3.97,2.08,8.19,2.48,12.57,1.79.73-.11.73-.56.8-1.1.97-8.02,2.48-15.92,5.37-23.49,2.11-5.53,4.9-10.67,9.37-14.7,3.94-3.56,8.44-4.87,13.59-3.04,5.42,1.93,8.73,7.87,8.01,14.1-.72,6.2-3.67,11.31-7.74,15.84-7.06,7.84-15.72,12.91-26.19,14.67-.8.13-.92.56-.96,1.21-.5,7.44-1.13,14.88-1.49,22.33-.56,11.42-.93,22.85-2.27,34.22-.83,7.04-1.82,14.07-4.09,20.83-.82,2.44-1.87,4.87-3.21,7.06-2.9,4.77-8.34,5.23-12.24,1.22-2.27-2.35-3.7-5.23-4.67-8.28-1.08-3.42-1.83-6.94-2.73-10.42-.05-.2-.1-.4-.14-.61-.06,0-.13.02-.19.03Zm31.42-70.45c.66-.16,1.08-.25,1.49-.37,6.98-2.18,12.97-5.99,18.13-11.14,4.05-4.04,7.3-8.61,8.99-14.14,1.08-3.56,1.32-7.13-.36-10.64-2.33-4.89-6.52-6.14-11.08-3.26-4.33,2.73-7.15,6.74-9.45,11.17-3.37,6.49-5.25,13.46-6.52,20.62-.44,2.51-.78,5.04-1.2,7.77Z"/>
      <path class="cls-1" d="m227.93,68.82c-.77,3.25-1.04,6.45-.73,9.67.13,1.32.45,2.63.73,3.93.1.46.31.91.53,1.34,1.3,2.6,3.09,3.15,5.34,1.36,1.75-1.4,3.43-2.99,4.78-4.76,1.81-2.38,3.37-4.97,4.86-7.58.8-1.4,1.2-3.02,1.85-4.51.14-.31.55-.5.84-.75.12.33.38.69.32,1-.14.87-.3,1.78-.65,2.58-2.08,4.62-4.59,9.01-7.94,12.83-5.32,6.05-13.3,4.74-16.61-2.64-1.66-3.7-1.94-7.6-1.3-11.56.98-6.07,3.36-11.52,7.51-16.12,2.11-2.34,4.75-3.5,7.94-3.24,2.74.22,4.47,1.68,4.77,4.4.45,4.17-.03,8.18-2.83,11.57-2.58,3.12-5.45,3.87-9.41,2.49Zm7.6-16.07c-.24.29-.46.55-.67.81-3.05,3.93-4.94,8.42-6.35,13.14-.08.28.15.79.4,1,1.42,1.22,3.07,1.13,4.82-.39,3.54-3.06,4.74-6.97,3.84-11.52-.23-1.17-.74-2.25-2.05-3.05Z"/>
    </g>
  </g>
</svg>